<?xml version="1.0" standalone="no"?>
<!DOCTYPE svg PUBLIC "-//W3C//DTD SVG 20010904//EN"
 "http://www.w3.org/TR/2001/REC-SVG-20010904/DTD/svg10.dtd">
<svg version="1.0" xmlns="http://www.w3.org/2000/svg"
 width="407.000000pt" height="237.000000pt" viewBox="0 0 407.000000 237.000000"
 preserveAspectRatio="xMidYMid meet">

<g transform="translate(0.000000,237.000000) scale(0.100000,-0.100000)"
fill="#000000" stroke="none">
<path d="M3095 2187 c-46 -24 -80 -48 -80 -57 0 -19 28 -16 115 13 67 23 81
39 58 69 -12 16 -20 13 -93 -25z"/>
<path d="M1648 2070 c-120 -36 -181 -172 -129 -285 23 -51 71 -92 117 -101 45
-8 130 0 167 17 24 11 27 18 27 61 0 44 -2 48 -24 48 -19 0 -26 -7 -31 -32 -4
-18 -13 -36 -19 -40 -17 -12 -82 -9 -111 4 -61 28 -85 150 -45 229 22 42 51
59 103 59 44 0 54 -9 62 -53 6 -30 12 -37 30 -37 25 0 35 22 35 77 0 30 -3 33
-52 48 -56 16 -88 18 -130 5z"/>
<path d="M2073 2073 c-29 -4 -34 -9 -43 -46 -6 -23 -32 -98 -58 -167 -35 -94
-53 -127 -70 -135 -12 -5 -22 -18 -22 -28 0 -16 8 -18 72 -15 48 2 73 7 76 16
2 7 -5 16 -17 19 -24 6 -26 17 -10 60 10 29 14 31 76 38 36 4 69 3 73 -2 5 -4
15 -25 24 -46 13 -33 13 -38 1 -42 -8 -3 -22 -7 -30 -10 -8 -2 -12 -11 -9 -20
9 -22 159 -22 168 1 4 10 0 18 -13 21 -14 4 -35 44 -77 151 -31 81 -63 162
-70 180 -7 17 -19 31 -26 30 -7 0 -28 -3 -45 -5z m41 -142 c14 -36 26 -66 26
-68 0 -2 -27 -3 -60 -3 -33 0 -60 2 -60 4 0 20 55 145 61 139 4 -4 19 -37 33
-72z"/>
<path d="M2445 2065 c-51 -18 -110 -81 -126 -135 -10 -33 -10 -54 -1 -98 14
-68 36 -99 88 -129 75 -43 226 -22 240 33 11 43 1 69 -28 72 -25 3 -28 0 -28
-25 0 -40 -17 -53 -71 -53 -55 0 -94 26 -115 76 -32 75 -5 187 51 212 29 13
94 16 111 4 6 -4 14 -24 18 -44 5 -29 12 -38 26 -38 20 0 29 20 33 74 2 27 -3
32 -43 47 -55 22 -102 23 -155 4z"/>
<path d="M3047 2065 c-112 -39 -162 -181 -104 -295 38 -77 159 -115 236 -76
94 49 138 182 92 281 -22 48 -44 69 -94 90 -44 18 -80 19 -130 0z m115 -55
c38 -29 51 -71 46 -150 -5 -96 -26 -124 -96 -128 -44 -3 -56 1 -76 21 -46 46
-57 150 -24 221 24 54 104 73 150 36z"/>
<path d="M270 2056 c0 -7 9 -16 20 -19 19 -5 20 -14 20 -160 0 -149 -1 -155
-21 -160 -12 -3 -19 -12 -17 -19 4 -10 40 -13 159 -13 l154 0 0 55 c0 48 -3
55 -19 55 -13 0 -22 -10 -27 -29 -10 -37 -24 -46 -76 -46 -69 0 -73 4 -73 76
l0 64 65 0 c58 0 65 2 65 20 0 18 -7 20 -65 20 l-65 0 0 65 0 65 64 0 c67 0
76 -6 76 -51 0 -13 7 -19 24 -19 22 0 24 5 28 51 1 28 1 53 -1 55 -2 2 -73 4
-158 4 -124 0 -153 -3 -153 -14z"/>
<path d="M640 2056 c0 -8 11 -17 25 -20 l25 -6 0 -150 0 -150 -26 -10 c-14 -6
-24 -16 -21 -23 3 -9 39 -12 133 -12 117 0 132 2 166 23 53 33 80 81 85 155 5
72 -10 118 -54 158 -42 39 -84 49 -214 49 -95 0 -119 -3 -119 -14z m248 -40
c42 -23 62 -65 62 -134 0 -97 -46 -162 -116 -162 -65 0 -64 -3 -64 161 l0 149
48 0 c26 -1 57 -6 70 -14z"/>
<path d="M1060 2057 c0 -8 11 -19 24 -25 23 -10 24 -16 28 -129 6 -180 36
-223 156 -223 64 0 110 22 139 67 14 22 19 53 22 155 3 125 4 128 26 134 15 4
22 11 18 20 -4 11 -22 14 -76 12 -77 -3 -95 -17 -46 -35 l31 -12 -4 -127 c-4
-118 -6 -128 -27 -145 -15 -13 -39 -19 -70 -19 -85 1 -101 30 -101 184 0 116
0 116 25 122 51 13 19 29 -63 32 -64 2 -82 0 -82 -11z"/>
<path d="M2710 2057 c0 -8 11 -19 25 -25 l26 -12 -3 -147 c-3 -145 -3 -148
-25 -151 -15 -2 -23 -10 -23 -23 0 -17 8 -19 79 -19 90 0 109 12 68 42 -27 20
-27 20 -27 159 0 139 0 139 25 151 44 20 22 33 -63 36 -64 2 -82 0 -82 -11z"/>
<path d="M3330 2057 c0 -8 11 -19 24 -25 22 -10 25 -18 28 -84 1 -40 1 -106
-1 -146 -3 -67 -5 -74 -28 -83 -47 -17 -20 -34 60 -37 65 -2 77 0 77 13 0 8
-11 20 -24 25 -20 7 -26 18 -31 62 -3 29 -5 79 -3 111 l3 57 104 -135 c69 -88
110 -134 119 -130 7 3 20 5 28 5 12 0 14 30 14 169 0 160 1 169 20 174 11 3
20 12 20 21 0 14 -11 16 -77 14 -80 -3 -109 -21 -54 -33 26 -6 31 -12 36 -48
4 -23 5 -73 3 -112 l-3 -69 -70 83 c-38 46 -85 105 -104 132 -33 48 -35 49
-87 49 -39 0 -54 -4 -54 -13z"/>
</g>
</svg>
