<?xml version="1.0" encoding="utf-8"?>
<!-- Generator: Adobe Illustrator 19.2.1, SVG Export Plug-In . SVG Version: 6.00 Build 0)  -->
<svg version="1.1" id="layer" xmlns="http://www.w3.org/2000/svg" xmlns:xlink="http://www.w3.org/1999/xlink" x="0px" y="0px"
	 viewBox="0 0 652 652" style="enable-background:new 0 0 652 652;" xml:space="preserve">
<style type="text/css">
	.st0{fill:#BC955A;}
	.st1{fill:#9F2141;}
</style>
<path class="st0" d="M171.9,315.7c-0.3-4.2-1.3-8.3-2.9-12.1c-0.3-0.3-0.7-0.5-1.1-0.4c-0.2-0.1-0.4-0.1-0.6,0v0.4
	c1.4,3.6,2.3,7.4,2.7,11.2c0.2,2.7-0.2,5.5-1.2,8.1c-0.2,2-0.2,4,0,6c0,0.8-0.4,1.2-0.8,1.2c-0.3,0-0.7-0.3-0.8-1.2
	c0-2.3,0-4.2-0.3-5.9l0,0c0-2.8-0.3-5.5-0.8-8.3c-0.8-2.4-2.1-4.5-3.8-6.3c-1-1.5-1.7-3.1-2.1-4.9c0-0.3,0-0.7-0.3-1.1
	c-0.3-0.4-0.2-0.9-0.4-1.3l-0.8-2.4c-0.1-0.2-0.3-0.3-0.5-0.2c-0.4,0-0.8,0.2-1.1,0.6c-0.1,0.3-0.1,0.5,0,0.8l1.9,7.5
	c0.7,1.4,1.5,2.7,2.6,3.8l0,0c0.6,0.6,1.1,1.3,1.7,2c0.8,1,1.2,2.2,1.3,3.4c0.3,2.5,0.6,6.1,0.9,11.3l1.5,7.4
	c0.4,2.8,0.2,5.5-0.3,8.3c0,1.1,0,1.5,0,1.6l0,0c0,0,0.5,0,1.3-0.8c2-2.5,1.9-11,1.8-17.9c0.2-1.9,0.5-3.7,1-5.5
	c0.5-1.6,0.7-3.2,0.7-4.9"/>
<path class="st0" d="M164.5,304.5v-1.3c0-0.2-0.1-0.5-0.2-0.7c-0.3-0.6-0.8-1-1.5-1.2h-0.6c0,0,0,0,0,0.3c0.3,2.7,1.6,5.1,3.5,7h0.3
	c0,0,0-0.2,0-0.7l-0.9-2.2c-0.2-0.4-0.3-0.8-0.4-1.2"/>
<path class="st0" d="M155.4,324.3L155.4,324.3c-0.3,0-0.7-0.4-0.8-0.9c-1-2-1.6-4.2-1.8-6.5c0-0.9-0.4-1.8-0.7-2.8
	c-0.3-1.6-1.1-3-2.3-4.1c-2.7-2.1-4.8-4.9-6.1-8.1c-0.3-0.7-0.8-1.2-1.1-1.2c-0.3,0-0.3,0-0.4,0.3c-0.2,0.5-0.2,1.1,0,1.6
	c0.7,1.7,1.6,3.4,2.7,4.9c0.3,0.4,0.7,0.8,1.1,1.2h0.2c1.4,1.1,2.6,2.3,3.7,3.6c0.7,1.2,1.2,2.6,1.3,4c0,0.3,0,0.6,0,0.9l0,0
	c0.7,3.7,2,7.2,3.7,10.4c0.5,1.1,0.8,2.2,1,3.4l0.7,4.4c0,1.2,0.5,1.5,0.7,1.5h0.2c0.2-0.4,0.3-0.8,0.3-1.2
	c0.1-4.4-0.1-8.8-0.6-13.1c-0.4-3.6-1.4-7-3.1-10.2c-0.3-0.4-0.7-0.7-1.1-0.7l0,0c0,0,0,0.3,0,0.9c1.4,3.3,2.3,6.9,2.5,10.5
	c0.1,0.4,0,0.8-0.2,1.1L155.4,324.3z"/>
<path class="st0" d="M147.3,301.8c-0.1-0.4-0.5-0.7-0.9-0.6c-0.2-0.1-0.4-0.1-0.6,0l0,0c0.5,2.1,1.6,4,3.2,5.4h0.4l0,0
	c0,0,0-0.2,0-0.5c-1-1.5-1.7-3.1-2.1-4.9"/>
<path class="st0" d="M161.5,324.7L161.5,324.7c0,0-0.5,0-0.8-0.7c-0.2-0.3-0.3-0.6-0.3-1l-1.4-7.6c-0.4-2.2-1.4-4.2-2.8-5.8
	c-2.5-2.7-4.3-5.9-5.5-9.4c-0.3-1.1-0.7-1.3-0.8-1.3c-0.1,0-0.4,0.3-0.5,0.9c-0.1,0.4-0.1,0.8,0,1.2c0.8,3.3,2.5,6.3,4.9,8.7
	c1.4,1.2,2.3,2.8,2.5,4.6l0,0c0,0.9,0.4,1.8,0.5,2.7l0,0c0.7,4,1.7,8,3.2,11.9c0.5,1.1,0.8,2.3,0.9,3.5c0,2.8,0.3,4.6,0.5,6
	c0.2,1.4,0.5,1.7,0.7,1.7c0.2,0,0.5-0.4,0.7-1.4c0.5-4.8,0.5-9.7,0-14.6c-0.1-2.6-0.4-5.2-1-7.8c-0.2-1.1-0.7-2.2-1.4-3.1
	c-0.5-0.6-0.7-0.7-0.8-0.7c0,0.3,0,0.5,0,0.8c0.8,3.2,1.4,6.4,1.7,9.7c0.1,0.4,0,0.9-0.3,1.2L161.5,324.7z"/>
<path class="st0" d="M156.7,306.3c-0.6-1.1-1.1-2.2-1.5-3.4l-0.3-1.9c-0.1-0.4-0.2-0.7-0.4-1c-0.3-0.3-0.7-0.6-1.2-0.6
	c-0.1,0-0.3,0-0.4,0c-0.1,0.2-0.1,0.4,0,0.5c0.4,2.7,1.7,5.2,3.6,7.1l0,0l0.4,0.2l0,0c0,0,0,0,0-0.4c0-0.3-0.2-0.6-0.3-0.8"/>
<path class="st0" d="M148.5,324.3L148.5,324.3c0,0.5,0.3,0.9,0.5,1.4c0.1,0.4,0.3,0.8,0.6,1.1c0,0,0.4,0.3,0.5,0.3
	c0.1,0,0.4-0.3,0.4-0.4c0.1-0.4,0.1-0.7,0-1.1c0.3-4.9-0.8-9.8-3.4-14c-0.4-0.4-0.6-0.4-0.6-0.4s0,0,0,0.3c-0.1,0.3-0.1,0.5,0,0.8
	c0.6,1.1,1,2.3,1.2,3.5c0.2,0.3,0.2,0.7,0,1l0,0l0,0c-0.3,0-0.6-0.3-0.8-0.8c-0.7-2-2.1-3.8-4-4.9c-2.1-1.2-4.1-2.7-5.8-4.5
	c-0.6-0.7-1.1-1.5-1.5-2.4c0,0,0-0.3-0.4-0.4c-0.4,0-0.7,0.5-0.8,1c-0.1,0.5,0,0.4,0,0.7c1.1,2.2,2.8,3.9,4.9,5.1
	c3,1.3,5.4,3.6,6.8,6.5c1.3,3,2,5.3,2.5,6.8"/>
<path class="st0" d="M138.2,303.1c-0.4,0-0.7,0-0.7,0.3l0,0c0.9,1.6,2.2,3,3.8,3.9h0.4l0,0c0,0,0,0-0.2-0.4c-1.1-1-2-2.3-2.6-3.6
	c-0.2-0.3-0.5-0.4-0.8-0.4"/>
<path class="st0" d="M131.3,310.8L131.3,310.8c0.8,0.2,1.5,0.5,2.2,0.9c0.7,0.3,1.4,0.7,2,1.3c1.5,1.5,2.9,3.2,4.1,5l0,0
	c1,1.4,2,2.7,3.2,4.1c0.2,0.2,0.4,0.3,0.6,0.3c0.1,0,0.3,0,0.4,0c0.1-0.2,0.1-0.5,0-0.7c-0.8-2.8-2-5.6-3.4-8.2
	c-0.3-0.5-0.9-0.8-1.5-0.7l0,0l0,0l0.8,1.5v0.3l0,0c-0.1,0.1-0.3,0.1-0.4,0l0,0h-0.3l0,0l0,0c-0.6-0.9-1.3-1.8-2.1-2.5
	c-0.4-0.3-0.8-0.6-1.2-0.8l-2.8-1.1c-0.7-0.4-1.4-0.8-2.1-1.3c-0.7-0.6-1.4-1.2-2.2-2H128c-0.1-0.1-0.2-0.1-0.3,0
	c-0.2,0.3-0.2,0.7,0,1c0.5,0.9,1.3,1.6,2.2,2.1c0.4,0.2,0.9,0.4,1.3,0.6"/>
<path class="st0" d="M159.3,341.2c-2-1.3-3.4-2.2-4.6-3c-7.9-6-15.9-11.8-24.3-17.6c-0.2-0.1-0.3-0.1-0.5,0l0,0
	c-0.1,0.6,0.2,1.2,0.8,1.5l25.5,18.7h0.3c0.4,0.1,0.7,0.4,0.9,0.8c0,0,0.3,0.7-0.4,1.2c-0.8,0.4-1.6,0.6-2.5,0.6
	c-1.6,0-3.1-0.6-4.4-1.7c-6.8-5.3-13.5-10.8-19.8-15.8c-0.2-0.1-0.3-0.1-0.5,0l0,0c-0.1,0.3-0.1,0.7,0,1c0.1,0.4,0.4,0.7,0.7,0.9
	c6.6,5.3,13.2,10.7,19.4,16c1.3,0.8,2.8,1.2,4.3,1.2c2-0.1,3.9-0.9,5.4-2.2c0.4-0.5,0.3-1.2-0.2-1.6
	C159.5,341.3,159.5,341.3,159.3,341.2"/>
<path class="st0" d="M149.8,339.9c0.9,0.7,1.9,1.3,2.9,1.8h0.6h0.3c0,0,0-0.3-0.3-0.6l-22.8-17.6h-0.3l0,0c0,0.5,0.3,1,0.7,1.3
	L149.8,339.9z"/>
<path class="st0" d="M144.5,341l-14.8-12.4c-0.1,0-0.3,0-0.4,0l0,0c0,0,0,0.4,0.4,0.9c4.3,3.9,9,8,13.8,12.1c0.6,0.6,1.3,1.1,2,1.5
	c0.2,0.2,0.5,0.3,0.8,0.2c0.3,0,0.5,0,0.5-0.3s0,0,0-0.2L144.5,341z"/>
<path class="st0" d="M132.9,308.6h0.5c0-0.1,0-0.2,0-0.3c-0.2-0.4-0.4-0.7-0.6-1c-0.3-0.3-0.7-0.6-1.1-0.8h-0.8c0,0-0.2,0-0.3,0v0.3
	C131.2,307.6,132,308.2,132.9,308.6"/>
<path class="st0" d="M147.1,346.4c0.8,0,1.5-0.3,2.2-0.7c0,0,0.3-0.3,0.2-0.4c0-0.1,0-0.3-0.4-0.4h-0.3h-0.4h-0.2h-1
	c-1.3,0-2.5-0.4-3.4-1.3c-3.6-3.1-6.5-5.7-9-8l0,0c-1.9-1.7-3.7-3.4-5.6-4.9c0,0-0.2,0-0.3,0l0,0c0,0.2,0,0.3,0,0.5
	c0.1,0.2,0.3,0.4,0.4,0.5l0.9,0.9c4.5,4.2,8.5,8,12.6,11.7c0.8,0.9,1.8,1.6,3,2.1c0.6,0.1,1.2,0.2,1.8,0.2"/>
<path class="st0" d="M127,332c3.3,3.5,6.7,7,10.5,10.7c0.7,0.8,1.6,1.3,2.6,1.6l0,0c-0.1-0.1-0.2-0.3-0.3-0.3
	c-3.4-2.9-7-6.5-10.1-9.7c-0.2-0.2-0.4-0.4-0.6-0.6v-0.2c-0.6-0.7-1.2-1.3-1.9-1.8h-0.3C126.8,331.6,126.8,331.8,127,332"/>
<path class="st0" d="M141.7,347.1c0.3,0.1,0.6,0.1,0.9,0c0.1-0.1,0.1-0.2,0-0.3c-0.1-0.3-0.4-0.5-0.7-0.5c-1.6-0.1-3-0.6-4.2-1.7
	c-3.9-3.6-7.8-7.4-11.5-11.2c-0.1-0.1-0.2-0.2-0.4-0.2l0,0c-0.1,0.4-0.1,0.8,0,1.1c0.2,0.2,0.3,0.5,0.5,0.7l0,0
	c2.1,2.2,4.9,5.1,8.7,8.7c1,1.1,2.2,2,3.5,2.7c0.9,0.4,1.8,0.7,2.8,0.7"/>
<path class="st0" d="M136.1,345.8L136.1,345.8c-0.1-0.4-0.4-0.7-0.7-0.7c-1.8-0.3-4.2-3-6.7-5.8l-1.1-1.8h-0.2v0.2
	c-0.1,0.1-0.1,0.3,0,0.4l5.2,6.1c0.9,1,2.2,1.6,3.6,1.6H136.1z"/>
<path class="st0" d="M70.1,281.1L70.1,281.1c0.2,0,0.5,0,0.7,0c0.3-0.1,0.5-0.1,0.8,0c0.2,0,0.3,0,0.5,0c0.2,0,0.4,0,0.6,0
	c0.5-0.7,1.2-1.2,1.9-1.6c0.3,0,0.7,0,1,0c0.8,0,1.5,0.3,2.1,0.8c0.2,0.2,0.3,0.5,0.2,0.8c0,0.2-0.3,0.4-0.8,0.4h-0.7
	c-0.7,0-1.4,0.1-2.1,0.3c-1.8,0.4-3,2-2.7,3.8l0,0c0,0.3,0,1.3-0.7,1.3c-0.4-0.1-0.7-0.2-0.9-0.5c-0.8-0.7-1.3-1.7-1.3-2.7
	c0.1-1,0.6-1.9,1.5-2.5 M67.8,283c-0.5,0.8-0.6,1.8-0.3,2.6c0.9,2.3,3.1,3.8,5.6,3.7l0,0c0.7,0,1.2,0,1.3-0.5c0.1-0.5,0-0.6-0.3-0.7
	c-1.2-0.8-1.7-2.2-1.4-3.6c0.6-1.4,2-2.2,3.5-2.1c0.4,0,0.7,0,1.1,0c0.7,0,1.5-0.2,2.1-0.6c0.8-0.8,1.8-1.3,2.9-1.3
	c0.5,0,0.9,0.1,1.4,0.2l0,0c0.4,0.3,0.5,0.9,0.2,1.3c0,0.1-0.1,0.1-0.2,0.2c-0.3,0.3-0.7,0.6-1.2,0.6c-0.8,0.2-1.6,0.6-2.3,1.1
	c0,0.1,0,0.2,0,0.3c0,0,0,0,0.6,0h0.8h0.8c1.6-0.7,3.1-1.7,4.4-2.8c0.4-0.4,0.5-0.7,0-1.2c-1-1-2.4-1.6-3.9-1.7c-0.5,0-1,0-1.6,0
	c-0.7,0.2-1.4,0.3-2.1,0.3c-0.5,0.1-1,0.1-1.5,0l-3.1-0.9c-0.4-0.2-0.9-0.3-1.4-0.3c-0.5,0-0.9,0.2-1.2,0.5l0,0l0.3,0.2
	c0.3,0.3,0.4,0.5,0.3,0.8c-0.1,0.2-0.5,0.4-0.9,0.5H71c-0.3,0-0.7,0.1-0.9,0.3c-0.8,0.8-1.5,1.6-2.1,2.6"/>
<path class="st0" d="M73.3,275.9c0.7,0.4,1.4,0.7,2.2,0.9h0.2c0.2,0,0.5-0.1,0.6-0.3c0.4-0.6,0.7-1.2,0.8-1.9c0.2-1,0.7-1.9,1.3-2.6
	l0.3-0.3c0.4-0.4,0.7-1,0.9-1.6c0.4-1,0.1-2.1-0.8-2.8v0.5c-0.2,1.9-1.3,3.5-2.9,4.5l-0.7,0.4c-0.6,0.4-1.2,0.9-1.7,1.4
	c-0.4,0.3-0.7,0.7-0.7,1.2C72.9,275.6,73,275.8,73.3,275.9"/>
<path class="st0" d="M78.7,273.1c-0.2,0-0.4,0-0.3,0.3c1.1,1.8,0.6,2.5-1,3.3c-0.6,0-0.3,0.7,0.2,0.6c0.2,0.1,0.3,0.1,0.5,0
	c1.2-0.3,2-1.6,1.6-2.9c-0.1-0.2-0.2-0.4-0.3-0.6C79.3,273.3,78.9,273.1,78.7,273.1"/>
<path class="st0" d="M81.1,269.4c0.3,0,0.4-0.5,0.5-0.9s0-1.5,0.6-1.6c0.6-0.1,0.3,0.7,0.5,0.8c0.2,0.1,0.3,0,0.4-0.3
	c0-1-0.3-1.9-1.1-2.5l0,0c0,0,0,0,0,0.3c-0.5,1.3-0.7,2.6-0.8,3.9c0,0.3,0,0.4,0,0.4"/>
<path class="st0" d="M80.9,272.2L80.9,272.2c4.2-1.9,5.1-4.5,5.2-5.8c0.2-1.2-0.2-2.4-1-3.3l0,0c0.6,1.9,0.1,4-1.1,5.5
	c-0.9,0.8-2,1.6-3.1,2.4l-0.5,0.3c0,0-0.2,0.3,0,0.4c0.1,0.3,0.3,0.5,0.6,0.4"/>
<path class="st0" d="M86.2,272.4c-1,0.8-2.1,1.4-3.3,1.9c-0.6,0.2-1.2,0.6-1.7,1.1c0,0.1,0,0.2,0,0.3h0c2.2-0.8,4.2-1.9,6-3.3
	c1.2-1,1.6-2,1.1-3.1c0,0-0.2,0-0.3,0c-0.1,0-0.3,0-0.4,0c-1,1-5.2,3.2-6,3.7s-0.3,0.4-0.3,0.4c0.1,0.1,0.2,0.1,0.3,0c0,0,0,0,0,0
	c0.6,0,3.4-1.9,4.1-2.2c0.7-0.3,1.1-0.3,1.1,0C86.9,271.6,86.6,271.9,86.2,272.4"/>
<path class="st0" d="M80.3,278.1c0.5,0,0.9-0.2,1.4-0.3c1.9-1,3.8-1.8,5.8-2.5c0.2,0,0.5,0,0.6,0c0.4,0.2,0.5,0.7,0.3,1.1
	c-0.1,0.1-0.2,0.2-0.3,0.3l-2.5,1.1l0,0c0,0,0,0,0.8,0l0,0c2.5-0.6,3.5-1.6,3.2-3c-0.2-0.5-0.7-0.8-1.3-0.8c-0.7-0.1-1.5,0-2.1,0.3
	c-1.3,0.5-3.1,1.6-4.3,2c-0.5,0.2-1,0.4-1.5,0.7c0,0-1,0.8,0,0.7"/>
<path class="st0" d="M88.2,266.9c0.7-0.6,1.4-2.3,1.9-1.4c0.2,0.9,0,1.8-0.5,2.6c-0.3,0.5,0,0.7,0.3,0.9l0,0c0,0,0,0,0.2,0
	c0.7-1.1,1-2.5,0.7-3.8c-0.1-0.8-0.5-1.5-1.1-1.9h-0.3c-0.2,0-0.3,0.1-0.4,0.3l-0.4,1.5c-0.1,0.5-0.4,1-0.8,1.4
	c-0.3,0.3-0.5,0.6-0.6,1.1c0,0.4,0,0,0.7,0"/>
<path class="st0" d="M92.1,268.8c1.3,0.3,2.5,0.9,3.6,1.6c0.2,0.2,0.5,0.3,0.8,0.4c1,0.6,2,1.1,3.1,1.6h0.3c0,0,0.3,0,0.4-0.3l0,0
	c0.8-0.8,1.4-1.9,1.6-3.1l0,0l0,0c-0.4,0.1-0.8,0.1-1.2,0c-0.5,0.1-0.9,0.1-1.4,0c-2-1.2-4.1-1.9-6.4-2.1h-0.3l0,0l0,0v0.2l0,0
	c2.4,0.5,4.7,1.4,6.8,2.7l0,0c0,0,0.6,0.3,0.6,0.6l0,0c-0.2,0.1-0.4,0.1-0.6,0h-0.3h-0.3c-2.1-1-4.2-1.9-6.4-2.5l0,0
	c-0.1-0.1-0.2-0.1-0.3,0c0,0.2,0.1,0.4,0.2,0.5"/>
<path class="st0" d="M89.5,280.4c-0.3,0-0.8-0.8-1-1.3l0,0h-0.2c-0.1,0.1-0.1,0.3,0,0.4c0.2,0.8,0.6,1.5,1.2,1.9c0.2,0,0.4,0,0.6,0
	c0.5-0.1,1-0.4,1.1-1c0-1-0.4-1.9-1.2-2.5l0,0c0.3,0.6,0.4,1.2,0.4,1.8c0,0.3-0.3,0.3-0.5,0.3"/>
<path class="st0" d="M92.9,278.7c-0.6,0-1.4-1.4-1.6-1.8H91l0,0c0,0.2,0,0.4,0,0.5c0.2,1,0.6,1.9,1.3,2.6c0.2,0.2,0.5,0.3,0.8,0.2
	c0.9-0.2,1.6-0.6,2.1-1.4c0.3-0.5,0.3-1.1,0-1.6c-1.2-1.3-2.8-2.3-4.5-3l0,0c0.5,0.4,1,0.8,1.5,1.1l0,0c0.7,0.4,1.4,0.9,1.9,1.6
	c0.1,0.3,0.1,0.7,0,1c-0.2,0.4-0.6,0.7-1,0.8"/>
<path class="st0" d="M90.1,272.5L90.1,272.5c2,1.4,4.2,2.7,6.5,3.7c0.3,0.1,0.5,0.2,0.8,0.2c0.3,0,0.6-0.2,0.8-0.4
	c0.7-0.6,0.8-1.5,0.4-2.3c-2-2.1-4.7-3.5-7.5-4l0,0l0,0c0.1,0.1,0.2,0.2,0.4,0.2c1.9,0.7,3.6,1.6,5.2,2.9l0,0
	c0.3,0.3,0.7,0.6,0.6,1.1c-0.1,0.3-0.3,0.5-0.5,0.7h-0.3c-0.7-0.1-1.3-0.4-1.8-0.7h-0.3l0,0c-1.2-0.7-2.6-1.3-3.9-1.7L90.1,272.5z"
	/>
<path class="st0" d="M143.9,268.3c0,0,0,0.4,0.4,0.7c9.7,7.4,17.2,17.2,21.9,28.5c0.2,0.4,0.2,0.8,0,1.1c-0.2,0.2-0.4,0.2-0.6,0.2
	c-0.6-0.1-1.2-0.3-1.7-0.7c-2-1.4-3.8-3.1-5.2-5.1c-5.4-8.5-12.3-15.8-20.4-21.8c-0.2,0-0.3,0-0.5,0l0,0c-0.1,0.5,0.1,1,0.5,1.4
	c8.3,6.5,15.3,14.5,20.7,23.6c2.4,3.5,6.4,5.5,10.7,5.3h1.3c0.7,0,0.8-0.4,0.8-0.4s0-0.2-0.4-0.5c-1.9-1.4-3.4-3.5-4.1-5.8
	c-5-10.6-12.6-19.7-22.1-26.4c-0.2-0.1-0.5-0.1-0.7,0c0,0-0.3,0-0.3,0"/>
<path class="st0" d="M162.4,295.8c0.3,0.3,0.6,0.4,1,0.5c0.1,0.1,0.2,0.1,0.3,0c0.1-0.5,0-1.1-0.3-1.5c-5.3-9.7-12.8-18.2-21.8-24.7
	c-0.3-0.1-0.7-0.1-1,0c-0.2-0.1-0.4-0.1-0.6,0c0,0,0,0.3,0.7,0.7c8.7,7,16,15.6,21.6,25.2"/>
<path class="st0" d="M153.5,295.8c-0.6-0.1-1.1-0.5-1.5-1c-4.2-5.9-9.1-11.2-14.6-15.8l0,0l0,0c-0.3,0.6-0.3,1.3,0,1.9
	c3.6,3.2,6.9,6.7,10,10.4l0,0c1.7,2.1,3.5,4,5.4,5.9c0.6,0.4,1.3,0.6,2,0.6c0.6,0,1.2-0.2,1.6-0.7c0.2-0.5,0.2-1,0-1.5
	c-4.5-8.2-10.8-15.2-18.4-20.6c0,0-0.3,0-0.4,0l0,0c-0.1,0.7,0.1,1.4,0.6,1.8c5.9,5.1,11.2,10.9,15.6,17.3c0.2,0.4,0.2,0.9,0,1.3
	c-0.1,0.2-0.4,0.3-0.6,0.3"/>
<path class="st0" d="M136,282.7L136,282.7c-0.2,0.3-0.2,0.7,0,1.1c3.9,3.4,7.4,7.2,10.5,11.3c0.4,0.4,0.5,1.1,0.2,1.7
	c-0.4,0.8-1.4,1.2-2.3,0.8c-0.2-0.1-0.3-0.2-0.4-0.3c-2.4-2.1-4.9-4.5-6.9-6.8c-0.9-1-1.9-2.1-2.9-3H134l0,0c-0.2,0.4-0.2,0.8,0,1.2
	l7.1,7.6c1,1.1,2.2,2,3.5,2.6h1.6c0.8,0.1,1.6-0.2,2.2-0.9c0.4-0.8,0.4-1.8,0-2.6c-3.1-5.1-7.3-9.5-12.1-12.9L136,282.7z"/>
<path class="st0" d="M134.1,284.6c-0.1,0.2-0.1,0.5,0,0.8c3.1,3.4,6.5,6.7,10,9.7h0.2l0,0c0,0,0-0.2,0-0.4c-3-3.8-6.4-7.2-10.2-10.2
	L134.1,284.6z"/>
<path class="st0" d="M133.1,290.2c-0.2,0-0.3,0-0.5,0c-0.2,0-0.4,0.1-0.4,0.3c-0.1,0.3,0,0.6,0.2,0.8c2.3,1.8,4.4,4,6,6.5
	c0.3,0.5,0.3,1.1,0,1.6c-0.3,0.5-0.8,0.8-1.4,0.7c-0.5,0-0.9-0.1-1.4-0.4c-2.1-1.4-4-3-5.8-4.9l-0.4-0.4c0,0,0,0-0.3,0.3
	c-0.2,0.3-0.2,0.6,0,0.9c1.8,2.3,3.9,4.3,6.4,5.9c0.8,0.2,1.5,0.3,2.3,0.3c0.7,0.1,1.5-0.2,2-0.7c0.4-0.9,0.4-2,0-2.9
	c-1.9-2.9-4.3-5.6-7-7.8"/>
<path class="st0" d="M130.4,292.9l5.8,5.7h0.4h0.3l0,0c-1.8-2.6-4.1-4.8-6.8-6.5c-0.1,0.4,0,0.9,0.2,1.2"/>
<path class="st0" d="M129.9,305c1.2,0,2.2-0.6,2.9-1.6c0.3-0.6,0.3-1.4,0-2c-1.4-2-3-3.7-4.9-5.3l0,0c0,0-0.2,0-0.3,0.2
	c-0.1,0.2-0.1,0.4,0,0.5c1.4,1.2,2.6,2.6,3.6,4.2c0.2,0.5,0.2,1.1,0,1.6c-0.4,0.5-1,0.8-1.6,0.8c-0.4,0.1-0.8,0.1-1.2,0
	c-1.3-1-2.5-2.1-3.5-3.4l0,0c0,0-0.2,0-0.3,0.2c-0.1,0.2-0.1,0.5,0,0.7c1.2,1.7,2.7,3,4.5,4c0.4,0.1,0.8,0.1,1.2,0"/>
<path class="st0" d="M128.3,301.4c0.2,0.1,0.4,0.2,0.6,0.2c0.2,0,0.5-0.1,0.6-0.3c0.1-0.3,0-0.6-0.2-0.8c-0.9-1.1-1.9-2-3-2.8h-0.4
	c-0.3,0-0.5,0.2-0.5,0.5c0,0,0,0,0,0c0,0.2,0,0.5,0.5,0.8c1,1.1,1.7,1.7,2.5,2.5"/>
<path class="st0" d="M125.9,304.8l-2.8-3.2h-0.2c-0.1,0-0.3,0-0.4,0c-0.1,0.2-0.1,0.5,0,0.7l1.7,2c0.3,0.2,0.4,0.6,0.4,0.9
	c0,0.6-0.6,1.2-1.2,1.7l0,0c-0.4,0.3-0.7,0.6-0.9,1c-0.1,0.2-0.1,0.4,0,0.6c0.1,0.2,0.2,0.3,0.4,0.2h0.3l2.3-1.9
	C126.2,306.3,126.4,305.4,125.9,304.8"/>
<path class="st0" d="M122.3,305.8L122.3,305.8h0.3c0.1-0.1,0.1-0.3,0-0.4l-1.4-2.4h-0.3c-0.2,0-0.3,0.1-0.4,0.3v0.1L122.3,305.8z"/>
<path class="st0" d="M122.7,265.3c0.3,0.5,0.7,0.9,1.2,1.2c3.7,1.3,7.1,3.1,10.3,5.3c0.3,0.3,0.5,0.8,0.3,1.2
	c-0.2,0.4-0.5,0.6-0.9,0.6c-0.3,0-0.7-0.1-1-0.3c-2.6-1.9-5.4-3.4-8.4-4.5l0,0c0,0.4,0.2,0.7,0.5,0.8c3.2,1.4,6.2,3.2,9,5.3
	c0.3,0.3,0.8,0.4,1.2,0.4c0.4,0,0.8-0.3,1-0.6c0.6-1.7,0-3.4-2.4-4.9c-3.3-2-6.9-3.7-10.6-4.9L122.7,265.3z"/>
<path class="st0" d="M125.1,271.5L125.1,271.5c-0.1,0.4,0.1,0.7,0.4,1c0.7,0.5,1.7,1.1,2.9,1.7c1.9,0.9,3.7,2.1,5.1,3.6
	c0.4,0.6,0.4,1.4,0,2.1c-0.2,0.4-0.6,0.7-1.1,0.7c-0.3,0-0.6-0.1-0.9-0.3l-5.2-3l0,0c0,0.7,0.3,1.3,0.8,1.7c1.2,1,2.4,1.8,3.7,2.6
	h0.3c0.6,0.4,1.3,0.7,2,0.8c0.3,0,0.6-0.1,0.8-0.2c1.1-1.3,1.4-3,0.8-4.6c-2.9-2.6-6.2-4.8-9.7-6.4"/>
<path class="st0" d="M131,279.1h0.3c0.3,0,0.7,0,0.6-0.3c-2-1.5-4.1-2.8-6.3-3.9c0,0.2,0.1,0.4,0.2,0.6c1.5,1.3,3.1,2.5,4.9,3.5"/>
<path class="st0" d="M126,286.9l3.2,2.3c0.3,0.2,0.6,0.3,1,0.3c0.3,0,0.6-0.1,0.8-0.3c0.6-0.5,1.2-1.2,1.5-2c0.4-1.1,0-2.4-1-3
	l-4.3-3.1l0,0l0,0c-0.1,0.3-0.1,0.7,0,1c1.2,0.8,2.3,1.8,3.3,2.9c0.4,0.5,0.5,1.2,0.3,1.8c-0.1,0.4-0.5,0.7-0.9,0.7
	c-0.3,0-0.6-0.1-0.8-0.3l-2.5-1.6c-0.2,0.1-0.3,0.2-0.3,0.3C125.9,286.2,125.9,286.6,126,286.9"/>
<path class="st0" d="M128.6,285.8c0.2,0,0.4-0.1,0.5-0.3c0.1-0.2,0.1-0.4,0-0.6l-2-1.2h-0.3v0.4l1.8,1.5L128.6,285.8z"/>
<path class="st0" d="M122.1,292.6c-0.1,0.2-0.1,0.5,0,0.8l3.1,2.3c0.2,0.1,0.4,0.1,0.6,0c0.5-0.1,1-0.3,1.3-0.7l0.4-0.6
	c0.8-1.4,1.5-2.3,0.5-3.7c-0.8-1.1-1.9-2-3.1-2.6c0,0,0,0-0.3,0.2c-0.1,0.3-0.1,0.7,0,1l1.6,1.7c0.3,0.5,0.3,1.2,0,1.7
	c-0.2,0.5-0.6,0.8-1.2,0.9c-0.2,0.1-0.5,0.1-0.7,0l-1.7-1.3h-0.2c0,0-0.3,0-0.4,0.4"/>
<path class="st0" d="M123.4,290.7c-0.1,0.2-0.1,0.4,0,0.6l1.1,0.8h0.3c0.2,0,0.3-0.1,0.3-0.3c0.1-0.2,0.1-0.4,0-0.6l-1.1-0.8l0,0
	c-0.2,0-0.4,0.1-0.5,0.3"/>
<path class="st0" d="M117.6,296.9c-0.2,0-0.3,0.1-0.3,0.2c-0.1,0.3-0.1,0.6,0,0.9l2.4,2.8c0.2,0.3,0.6,0.4,0.9,0.4
	c1.2-0.3,2.2-1,2.8-2.1c0.5-0.7,0.6-1.6,0.2-2.4c-0.7-1.1-1.5-2.1-2.5-3l0,0c0,0,0,0-0.3,0.3c-0.2,0.3-0.2,0.7,0,1.1l1.1,1.5
	c0.3,0.6,0.3,1.3,0,1.8c-0.2,0.5-0.7,0.8-1.2,0.8c-0.4,0-0.7-0.2-1-0.4l-1.5-1.6L117.6,296.9z"/>
<path class="st0" d="M120.2,297.7c0.2,0,0.4-0.1,0.4-0.3c0.1-0.2,0.1-0.3,0-0.5l-1.3-1.2l0,0c-0.2,0-0.3,0.1-0.3,0.2
	c-0.1,0.2-0.1,0.3,0,0.5l1.3,1.3H120.2z"/>
<path class="st0" d="M124.7,329.4c0,0.3,0,0.8,0.6,0.8c0.4,0,0.8-0.3,1-0.6c2.6-3.4,1.7-14-1.6-19.4h-0.2c-0.2,0-0.3,0.1-0.4,0.3
	c-0.1,0.3-0.1,0.6,0,0.9c2.3,4.3,3.3,9.2,2.7,14.1c0,0.4-0.3,1-0.8,1s-0.6,0-0.9-1.4c-0.4-3.8-1.7-7.5-3.8-10.7
	c-0.2,0.7-0.2,1.4,0,2.1C123.3,320.5,124.4,324.9,124.7,329.4"/>
<path class="st0" d="M122.4,311.4L122.4,311.4c-0.2,0.5-0.2,1,0,1.5c1.7,2.7,2.8,5.6,3.2,8.7l0,0l0,0
	C125.4,318,124.3,314.6,122.4,311.4L122.4,311.4z"/>
<path class="st0" d="M106.4,262.5l1.5,0.6c0.8,0.4,1.6,0.8,2.3,1.3c3.5,1.9,5.8,5.5,6.1,9.5v0.6c1.2,5.6,2,9-3.7,13.5
	c-0.3,0.4-0.3,1,0,1.5c0.1,0.3,0.4,0.4,0.6,0.4l0,0c1.9-0.9,3.4-2.4,4.4-4.2c3.3-4.5-0.3-14.6-1.5-17.8c-0.9-2.2-2.6-4-4.9-4.9
	l-6.3-2.9c-0.6-0.4-1-1.2-0.9-2c0-0.7,0.5-0.9,1.4-1.4c0.9-0.4,1.8-0.5,2.7-0.5h2.3c10.1,0.5,19.9,3.8,28.3,9.4l0,0
	c0.3,0.3,0.4,0.8,0.2,1.2c-0.2,0.5-0.9,0.7-2.1,0.8c-0.7,0-1.3-0.3-1.8-0.7l-0.8-1.3c0,0,0-0.3-0.3-0.3s0,0-0.3,0.3l-0.3,1.7
	c0,0.2,0,0.3,0.3,0.4c1.3,0.5,2.7,0.7,4,0.7c2.3-0.1,4.6-0.9,6.4-2.4c0.3-0.4,0.4-0.7,0.3-0.9c-0.1-0.2-0.5-0.3-1.1-0.4h-0.7
	c-2.1,0-4.1-0.6-5.8-1.7c-9.1-5.3-19.5-8-30.1-7.9c-0.9,0-1.8,0.1-2.6,0.5c-0.9,0.4-1.5,1.2-1.7,2.2c-0.1,0.9,0.1,1.9,0.8,2.6
	c0.9,0.9,1.9,1.5,3.1,1.9"/>
<path class="st0" d="M59.5,283.6c0.5,1.4,1.2,2.1,2.1,2.3h4.1c0.4-0.1,0.7-0.4,0.7-0.8c0-0.3-0.2-0.6-0.5-0.7h-3.3
	c-1.2,0-1.8-1.7-2.3-3.5c-0.7-3.1,0.3-6.3,2.6-8.5l0.2-0.4h-0.3c-0.2-0.1-0.3-0.2-0.3-0.4c0-0.3,0.1-0.6,0.3-0.8l0.5-0.5l0,0h-0.3
	l0,0c-1.9,1.2-3.5,2.7-4.9,4.4c-0.5,0.8-0.6,1.7-0.3,2.6L59.5,283.6z"/>
<path class="st0" d="M67.8,280.4L67.8,280.4c-0.7,0.2-1.4,0.4-2.1,0.4c-0.9,0.1-1.9-0.3-2.5-0.9h-0.2l0,0c-0.1,0.2-0.1,0.5,0,0.7
	c0.6,0.8,1.5,1.2,2.5,1.3c0.9-0.1,1.8-0.4,2.5-1c0,0,0.2-0.3,0-0.4"/>
<path class="st0" d="M61.9,276.7c-0.2,0.4-0.2,0.9,0,1.3c0.2,0.3,0.5,0.5,0.8,0.5h0.7c2.2-0.3,4.3-1.3,5.9-2.8v-0.3l0,0
	c-1.6,1-3.3,1.6-5.1,1.8c-0.4,0-0.6-0.3-0.7-0.5c0-0.2,0-0.9,0.4-1.6c0.7-0.6,1.4-1.3,1.9-2.1c0,0,0-0.3,0-0.6c0-0.2,0-0.5,0-0.7
	c0-0.2,0-0.4,0-0.5c0-0.4,0.2-0.8,0.4-1.1c0.3-0.3,0.6-0.6,1-0.8c0.3-0.2,0.4-0.5,0.3-0.8c-0.2-0.4-0.6-0.7-1-0.7
	c-1.2,0.4-1.6,1-1.5,2.1c0.3,1,0,2-0.6,2.8c-1,1.2-1.9,2.5-2.5,3.9"/>
<path class="st0" d="M66.8,271.1c-0.1,0.2-0.1,0.5,0,0.7c0.6,0.7,0.8,1.6,0.4,2.5l0,0c0.4-0.4,0.8-0.9,0.9-1.5
	c0.1-0.6-0.1-1.2-0.5-1.7c0,0-0.4-0.4-0.6-0.3C66.8,270.8,66.7,270.7,66.8,271.1"/>
<path class="st0" d="M98.1,370.9c1.7,1.6,2.8,3.7,3.3,5.9c1.1,3.1,2.2,6.2,4.5,6.8c0.3,0.1,0.6,0.1,0.9,0l0,0
	c-0.1-0.1-0.2-0.2-0.3-0.2c-1.4-0.5-2.2-2.9-3.1-5.6c-0.9-2.7-2.3-6.8-4.9-7.5h-0.8c-0.2,0-0.4,0-0.5,0c0,0,0,0,0.5,0.5"/>
<path class="st0" d="M102.3,370.3c-0.2-0.1-0.4-0.1-0.6,0l0.3,0.3c1.6,0.9,2.6,3.4,3.6,6.2c1.1,2.8,2.5,6.8,4.9,6.8l0,0h0.5l0,0
	c-1.4-0.7-2.3-3.1-3.3-5.7C106.6,374.5,105.1,370.7,102.3,370.3"/>
<path class="st0" d="M110.2,377.6L110.2,377.6c1,2.6,2.2,5.9,4.9,6h0.3c-1.6-1.4-2.7-3.2-3.2-5.2c-0.6-2-1.2-3.8-3.3-4.4h-0.5v0.2
	C109.1,374.7,109.5,375.9,110.2,377.6"/>
<path class="st0" d="M102.4,368.5h0.9c0.4,0,0.8-0.3,0.8-0.8c0-0.3-0.2-0.6-0.5-0.7h-1.7c-1.2,0.1-2.4-0.1-3.5-0.4h-0.4
	c-0.2,0-0.5,0-0.7,0c-0.2,0-0.5,0-0.6,0.2c-0.2,0.3-0.2,0.7,0,1c0.6,0.8,2,1.2,4.3,1.2h1.6"/>
<path class="st0" d="M125.1,368.3c-0.4-1.2-1.6-1.9-2.9-1.7c-1.7-0.1-3.1,1.2-3.3,2.9c0,0,0,0,0,0.1c-0.1,0.2-0.1,0.4,0,0.6
	c0.2,0.2,0.4,0.2,0.6,0.2c0.3,0,0.6-0.2,0.7-0.5c0-1.4,1.1-1.6,1.5-1.6c0.6,0,1.2,0.4,1.4,1c0.1,0.5-0.1,1.1-0.5,1.4
	c-0.8,0.4-1.2,1.4-0.8,2.3c0,0,0,0,0,0c1.1,1.7,1.1,3.8,0,5.5c-0.4,0.9-0.1,2,0.8,2.4c0.1,0,0.2,0.1,0.3,0.1l0,0
	c0.2,0.3,0.2,0.8,0,1.1c-0.2,0.5-0.7,0.8-1.3,0.8c-0.7,0-1.3-0.5-1.4-1.1c-0.1-0.3-0.2-0.5-0.5-0.6c-0.3,0-0.5,0.1-0.6,0.3
	c-0.1,0.2-0.1,0.5,0,0.7c0.9,1.8,2,2.7,3.4,2.6c0.7,0,1.3-0.2,1.9-0.5c0.6-0.4,0.9-1.1,1-1.8c0-0.7-0.2-1.3-0.6-1.8
	c-0.7-0.4-0.8-1.3-0.4-2.6c0.7-1.4,0.7-3.1,0-4.5c-0.5-0.8-0.3-1.9,0.3-2.5c0.6-0.7,0.8-1.7,0.4-2.5"/>
<path class="st0" d="M95.9,380.8c-0.1-0.4-0.5-0.6-0.9-0.6h-0.3l-0.7,1.3c-0.4,0.6-1.1,0.7-1.7,0.4c-0.1-0.1-0.3-0.2-0.4-0.4
	c-0.2-0.4-0.2-0.8,0-1.1c0.1-0.6,0.5-1,1-1.4c0.3-0.6,0.3-1.3,0-1.8c-0.6-1.3-0.8-2.9-0.4-4.3l0.5-1.9c0.2-0.6-0.1-1.3-0.6-1.7
	c-0.6-0.3-0.8-1-0.6-1.6c0.1-0.5,0.6-0.9,1.1-0.9c0.2,0,0.3,0,0.5,0c0.4,0.2,0.8,0.5,0.9,1v0.4c0.2,0.3,0.6,0.5,0.9,0.5
	c0.2,0.1,0.3,0.1,0.5,0c0.2-0.3,0.2-0.7,0-1.1c-0.4-1.5-1.7-2.4-3.3-2.4c-0.7,0-1.4,0.3-1.9,0.8c-0.5,0.5-0.7,1.2-0.6,1.9
	c-0.1,0.7,0.2,1.3,0.7,1.7l0,0c0.6,0.8,0.6,1.9,0,2.8c-0.5,1.2-0.5,2.6,0,3.8c0.4,1,0.4,2.1,0,3.2l-0.2,0.4
	c-0.4,0.5-0.5,1.2-0.3,1.8c0.3,1.2,1.4,2.1,2.7,2c0.7,0,1.4-0.2,1.9-0.6c0.8-0.6,1.3-1.5,1.4-2.5"/>
<path class="st0" d="M118.5,384.5c-0.4,0-0.7,0.1-1,0.3c-0.5,0.3-1.1,0.5-1.7,0.5h-0.4c-5.7,0-11.4,0-17.3-0.4
	c-0.6,0-1.2-0.2-1.7-0.5c-0.4-0.2-0.8-0.3-1.2-0.2c-0.3,0-0.5,0-0.6,0c-0.1,0.3-0.1,0.7,0,1c1.2,1.7,10.8,1.5,14.6,1.5h6.8
	c1.1,0,2.3-0.3,3.3-0.9c0.3-0.1,0.4-0.5,0.3-0.8c-0.1-0.4-0.5-0.7-0.9-0.6"/>
<path class="st0" d="M97.9,265c5.5,1.3,9.4,3,10.4,7.6c-0.1,1.3,0.3,2.6,1.1,3.5l0,0v-0.4c0.6-3.7-1.2-7.4-4.4-9.2
	c-2.1-1.3-4.3-2.2-6.7-2.7c-1.2-0.2-2.1-1.2-2-2.5c0-1.5,1.2-2.8,2.7-2.9h0.3c0.5,0,0.7,0,0.7-0.3s0,0-0.3,0h-0.7
	c-1.8,0-3.6,0.4-3.8,3.4c-0.2,2.2,0.5,3.3,2.4,3.6"/>
<path class="st0" d="M98.7,260.2L98.7,260.2c1,0,1.4,0.4,1.4,0.8c0,0.4-0.3,0.8-1.4,0.9l0,0H99h1.1c0.7,0.1,1.3-0.2,1.7-0.7
	c0.1-0.2,0.1-0.5,0-0.7c-0.4-0.5-1.1-0.8-1.7-0.8c-0.4-0.1-0.7-0.1-1.1,0"/>
<path class="st0" d="M106.3,265.6c0.3,0.1,0.6,0.1,0.9,0c0.2,0.1,0.5,0.1,0.7,0l0,0c-1.6-1.6-3.9-2.2-6-1.7
	C101.4,264.2,105.7,263.9,106.3,265.6"/>
<path class="st0" d="M107.2,274.3c-0.9-1.7-2.2-3.1-3.9-4c-0.4,0-0.5,0-0.4,0.2c2.4,2,4.2,4.7,4.9,7.8c0.1,0.6,0,1.2-0.4,1.7l0,0
	l-0.7,0.7c-0.1,0.2-0.1,0.5,0,0.7c0.1,0.3,0.4,0.5,0.8,0.5l0,0l2.7-2c0.2-0.2,0.3-0.5,0.3-0.8c0,0,0,0,0,0c-1.4-1.2-2.5-2.8-3.1-4.5
	"/>
<path class="st0" d="M99.7,276.3L99.7,276.3c0,0.1,0,0.3,0,0.4c0.5,2.5,0.7,5,0.6,7.6c-0.1,0.2-0.1,0.3,0,0.5
	c0.3,0.2,0.7,0.3,1.1,0.3c1-0.2,1.9-0.7,2.7-1.2c0.7-0.4,1.1-1.2,1.1-2c-0.3-3.1-1.5-6-3.4-8.4c0,0,0,0-0.3,0l0,0
	c-0.1,0.2-0.1,0.4,0,0.5c2.3,4.1,2.8,6.7,1.8,8.4c-0.4,0.4-0.9,0.7-1.5,0.8c-0.3,0-0.8,0-0.9-1.1c-0.1-1.9-0.5-3.8-1.2-5.6
	L99.7,276.3z"/>
<path class="st0" d="M102.7,280.7c0-0.2,0-0.5,0-0.7c-0.4-2-1.2-4-2.3-5.7l0,0l0,0c0.8,2.1,1.3,4.3,1.7,6.5c0,0,0.5,0.6,0.6-0.2"/>
<path class="st0" d="M106.1,279.1c0.3,0.6,0.7-0.2,0.7-0.5c-0.8-2.6-3.2-6.5-3.8-6.3C104.2,274.5,105.3,276.8,106.1,279.1"/>
<path class="st0" d="M94.5,284l0.4-3.2c0.1-0.2,0.1-0.3,0-0.5c0,0,0,0-0.3,0.4s-1.7,4.4-1,5.6c0.1,0.2,0.4,0.4,0.6,0.4h0.9
	c1,0.1,2-0.3,2.7-1c1.4-1.5,1.1-4.4,1-7v-0.5c0-0.5-0.3-0.7-0.4-0.7h-0.3c-0.1,0.2-0.1,0.5,0,0.7c0.1,2-0.3,4-1.1,5.9
	c-0.3,0.6-0.9,1.1-1.6,1.2C95,285.2,94.6,284.9,94.5,284"/>
<path class="st0" d="M96.5,282.8c0.1-1.1,0.1-2.2,0-3.3l0,0c-0.2,0-0.3,0.1-0.3,0.3c0,1.1-0.2,2.2-0.4,3.2c-0.1,0.2-0.1,0.3,0,0.5
	l0,0c0.3,0,0.6-0.2,0.6-0.5"/>
<path class="st0" d="M94.9,273.6c0.1,0.1,0.3,0.1,0.4,0l0,0c0.1-0.2,0-0.5-0.2-0.6c-0.9-0.3-3-1.4-3.9-1.6l0,0
	c-0.1,0.1-0.1,0.2,0,0.3C92.4,272.2,93.6,272.9,94.9,273.6"/>
<path class="st0" d="M87.6,286.9c0.5,0.4,1.1,0.6,1.7,0.5c1.2,0,2.3-0.7,2.6-1.8l0.9-3.6c0.1-0.1,0.1-0.3,0-0.4h-0.3
	c-0.3,0-0.8,0.3-0.9,1.1c-0.2,1.2-0.6,2.3-1.2,3.3c-0.1,0.2-0.4,0.4-0.7,0.4c-0.2,0-0.4-0.1-0.5-0.3c-0.1-0.2-0.1-0.4,0-0.6
	c0.4-0.5,0.6-1.1,0.8-1.7c0.1-0.1,0.1-0.3,0-0.4l0,0l-0.4,0.2c-0.5,0.9-1,1.8-1.7,2.5c-0.3,0.5-0.3,0.8,0,1.1"/>
<path class="st0" d="M77.9,283.2c-0.3-0.1-0.6-0.1-0.8,0c-0.3,0-0.5,0-0.6,0.2c0,0.2,0,0.3,0,0.4c3.4,1.9,4.7,6.2,2.9,9.7
	c-0.1,0.2-0.1,0.3,0,0.5l0,0c0.2,0,0.4-0.1,0.6-0.3c2.3-3.3,1.5-7.9-1.8-10.2c-0.2-0.1-0.4-0.3-0.6-0.4"/>
<path class="st0" d="M45,299.9c0,0.3,0,0.5,0.4,0.6h0.2c0.3,0,0.5-0.2,0.6-0.4c0.1-0.2,0.1-0.5,0-0.8c-0.7-1.3,0-1.8,0.5-2.5l0,0
	c0.2-0.2,0.4-0.4,0.6-0.7c0.1-0.2,0.1-0.5,0-0.7c0-0.3-0.3-0.5-0.6-0.5c-0.2,0-0.5,0.1-0.7,0.2c-0.4,0.4-0.8,0.8-1.3,1.1l0,0l0,0
	h-0.3c0,0-0.5,0.3,0,1.1c0.4,0.7,0.7,1.4,0.9,2.1"/>
<path class="st0" d="M47.8,301.1c0.2,0.3,0.5,0.5,0.8,0.5c0.1,0.1,0.2,0.1,0.3,0c0.2-0.4,0.2-0.8,0-1.2c-0.7-1.7,0-2.3,1-3.2l0,0
	c0.2-0.2,0.2-0.6,0-0.8c-0.1-0.1-0.3-0.2-0.4-0.1H49c-1.9,1.2-2.3,2.4-1.4,4.9"/>
<path class="st0" d="M50.1,299.6l0.4,2.3c0.1,0.3,0.4,0.6,0.8,0.6c0.2,0,0.4-0.1,0.5-0.2c0.1-0.2,0.1-0.5,0-0.8
	c-0.5-0.9-0.3-2.1,0.4-2.9l0.8-0.8c0.1-0.2,0.1-0.5,0-0.8c-0.2-0.2-0.5-0.3-0.8-0.2h-0.3l-1.1,1c-0.6,0.3-0.9,1.1-0.8,1.7"/>
<path class="st0" d="M74.8,284.6c-0.2,0-0.3,0-0.5,0c-0.3,0-0.6,0.2-0.7,0.5c-0.2,0.5-0.1,1,0.3,1.4c1.4,0.8,2.4,2.1,2.9,3.6
	c0.3,1.4-0.1,2.8-1,3.9l-7.3,6.7c-4.9,4.6-5.5,8.8-2,12.8h0.2c0-0.2,0-0.4,0-0.6c-2.6-5.4,0.9-8.4,5.3-12.2l0,0
	c2.3-1.9,4.5-4.1,6.5-6.4C80.1,291,79,287.8,74.8,284.6"/>
<path class="st0" d="M77.6,312.1c-1.1,0-2.2,0.1-3.3,0.2H74c-0.7,0.1-1.4,0.1-2.1,0c-1.9,0-3.4-0.7-4.2-4.3c0-0.5,0-0.6-0.3-0.8
	c-0.4,0.2-0.7,0.6-0.6,1c0,4.9,3.2,4.9,7.8,4.9c1.4,0,2.9,0.1,4.3,0.2c2.1,0.4,3.9,2,4.5,4.1c0.4,2-0.4,4.1-2,5.3
	c-0.4,0.4-0.6,0.7-0.5,1c0.2,0.4,0.6,0.6,1.1,0.5c0.2,0.1,0.5,0.1,0.7,0c2.1-1.5,3.2-4.2,2.6-6.8c-0.7-2.9-3.2-5.1-6.2-5.4
	L77.6,312.1"/>
<path class="st0" d="M69.4,294.4c-5.9,2.7-9.3,9-8.4,15.4c0.7,4.6,4.5,8.1,9.1,8.5h8.1c0.5,0,1,0.2,1.3,0.7c0.2,0.6,0.1,1.3-0.3,1.7
	c-0.2,0.3-0.2,0.5,0,0.6l0,0c0.3,0,0.5-0.2,0.7-0.3c1-0.7,1.3-2,1-3.1c-0.4-1-1.4-1.6-2.5-1.6h-3.7c-2.3,0.3-4.5,0-6.7-0.8
	c-3.1-1.5-5.2-4.6-5.3-8c0.2-5.1,3.1-9.8,7.7-12.2c2.3-1.5,4.9-3.3,5.4-4.9c0.1-0.3,0.1-0.7,0-1l0,0c-0.2,0-0.3,0-0.5,0
	c-1.6,1.9-3.6,3.4-5.8,4.4"/>
<path class="st0" d="M55.5,310.5c-0.6,1.4-0.2,3.1,0.9,4.1c1.4,1.1,2.8,2.2,4.4,3.1c1.5,1.2,2.4,3,2.4,4.9l0,0c0,0.4,0,0.9,0.2,1.4
	c0.3,1.6,1.7,2.8,3.3,3l0,0c0.3,0,0.6-0.2,0.7-0.4c0-0.2,0-0.4-0.4-0.4c-1.7-0.7-2.5-1.4-2.6-2.5c-0.3-2.3-1.1-4.5-2.5-6.3
	c-1.5-0.9-3-2-4.3-3.2c-0.3-0.3-0.5-0.6-0.5-1c-0.2-2.4,0.4-4.8,1.8-6.8c0.6-3.3-1.2-6.5-4.3-7.8h-0.4c-0.2,0-0.3,0-0.3,0
	c0,0.3,0,0.5,0.2,0.7C57.1,301.5,58.9,303.7,55.5,310.5"/>
<path class="st0" d="M56.8,319.4c1.9,1.1,3,3.1,3,5.2c0.4,5.3,3,7.9,7.9,7.8l0,0c0.8,0,1.5-0.2,2.2-0.6l0,0c0-0.4-0.2-0.7-0.5-1
	c-0.3-0.4-0.7-0.6-1.1-0.5c-0.2,0-0.5,0-0.7,0l0,0c-0.4,0.2-0.8,0.3-1.3,0.3c-0.4,0.1-0.7,0.1-1.1,0c-2.4-0.6-4.2-2.8-4.2-5.3
	c0.4-2.3-0.5-4.6-2.4-6.1c-1.9-1-3.6-2.5-4.9-4.3c-1.1-2-1-4.4,0.3-6.3l0.6-1.2c0.4-0.8,0.5-1.7,0.5-2.6c0-2.6-0.7-4.1-2.1-4.5h-0.2
	c0,0-0.4,0-0.5,0c0,0,0,0.5,0.5,1c1.7,1.4,1.7,3.8,0,7.8c-1.2,1.7-1.4,3.9-0.6,5.9C53.4,316.8,54.9,318.3,56.8,319.4"/>
<path class="st0" d="M72.3,331.9h0.4c0,0,0,0,0-0.3c-0.4-0.2-0.9-0.3-1.4-0.3l0,0C71.5,331.7,71.9,331.9,72.3,331.9"/>
<path class="st0" d="M75.3,331.2c0-0.1,0-0.3,0-0.4c-0.5-0.3-1.1-0.5-1.7-0.5l0,0l0,0c0,0,0,0,0,0.3C74,331.1,74.6,331.3,75.3,331.2
	L75.3,331.2L75.3,331.2z"/>
<path class="st0" d="M75.6,329.3h-0.4l0,0c0.3,0.7,1,1.1,1.7,1h0.7l0,0c0,0,0,0,0-0.3c-0.5-0.6-1.3-0.9-2.1-0.9"/>
<path class="st0" d="M76.5,324.6c0.4,0,0.7-0.2,1-0.4l0.8-0.7c0.2-0.1,0.2-0.4,0-0.5c0,0,0,0,0,0c-0.7-0.5-0.8-1.5-0.4-2.2
	c0.1-0.2,0.1-0.4,0-0.6h-0.3c-0.3,0.1-0.5,0.2-0.7,0.4l0,0c-1.1,0.6-1.6,1.9-1.3,3.2C75.4,324.3,75.9,324.6,76.5,324.6L76.5,324.6z"
	/>
<path class="st0" d="M70.8,330h0.3l0,0c-0.7-0.6-1.1-1.5-1-2.5c0-1.1-0.4-2.2-1.1-3.1c-0.1,0.1-0.2,0.2-0.2,0.4
	c-0.2,0.4-0.2,0.8,0,1.1c0.4,0.5,0.5,1.2,0.4,1.8c0,1.4,0.3,2.2,1.6,2.4"/>
<path class="st0" d="M72.8,329.4H73c0.4,0,0.4-0.3,0.4-0.3s0,0-0.2-0.2c-1-0.6-1.5-1.7-1.2-2.8c0.3-0.7,0.1-1.5-0.3-2.1
	c-0.5-0.5-0.6-1.3-0.4-2l0,0h-0.5c-0.3,0.2-0.6,0.4-0.7,0.8c-0.1,0.8,0.1,1.6,0.6,2.2c0.4,0.5,0.6,1.1,0.4,1.7
	c-0.1,0.8,0.2,1.7,0.7,2.3C72.1,329.2,72.4,329.4,72.8,329.4"/>
<path class="st0" d="M75.6,320.4v-0.3l0,0h-0.8c-0.9-0.1-1.7,0.3-2.2,1c-0.4,0.7-0.4,1.4,0,2.1c0.4,0.6,0.4,1.4,0,1.9
	c-0.5,1.2,0,2.6,1.2,3.1c0.2,0.1,0.4,0.2,0.7,0.2h0.5l0,0c-0.4-0.4-0.5-1.1-0.1-1.5c0,0,0.1-0.1,0.1-0.1c0.1-0.1,0.2-0.2,0.3-0.4
	c0,0,0-0.4-0.4-0.6c-1.2-1.3-1.1-3.4,0.2-4.7c0.1-0.1,0.1-0.1,0.2-0.2"/>
<path class="st0" d="M83.7,329.4c0.5-0.7,1.2-1.2,2-1.4c0.9-0.4,1.7-1,2.3-1.7c0.8-1.7,0.4-3.7-1-4.9c-0.1,0-0.3,0-0.4,0
	c-0.2,0-0.4,0.1-0.5,0.3c-0.1,0.3-0.1,0.6,0,0.9l0.8,1.4c0.4,0.8,0.2,1.8-0.6,2.2c-0.1,0-0.1,0.1-0.2,0.1c-1.4,0.6-2.7,1.5-3.7,2.6
	c-0.2,0.3-0.6,0.6-1,0.6c-0.3,0-0.6-0.1-0.8-0.3l-1.5-1.5c-0.1-0.3-0.1-0.6,0-0.9c0.1-0.2,0.3-0.4,0.6-0.3H80l1,0.4h0.3
	c0,0,0,0,0.2-0.3c0.1-0.9-0.5-1.7-1.3-2h-0.7c-1.2,0.1-2.2,0.8-2.7,1.8c-0.7,1.1,0.8,2.1,2.3,3.3c0.4,0.3,0.9,0.7,1.4,1.1
	c0.3,0.2,0.6,0.2,0.9,0.2c0.2,0.1,0.5,0.1,0.7,0c0.7-0.3,1.3-0.8,1.8-1.4"/>
<path class="st0" d="M87.7,331.2H88c1.2,0.2,2.4,0.7,3.5,1.3c0.2,0.2,0.4,0.2,0.6,0c0,0,0,0,0,0c0-0.2-0.1-0.3-0.3-0.4
	c-1.6-1-3.4-1.6-5.3-1.7c-0.5-0.1-1-0.1-1.6,0c-0.5,0.3-0.9,0.7-0.9,1.1c0,0.3,0.2,0.5,0.4,0.6l3.4,0.9l2.3,1h0.2
	c0.2,0.1,0.3,0.1,0.5,0v-0.4c-0.9-0.6-1.9-1.1-3-1.3c-0.7-0.2-0.7-0.5-0.7-0.6s0-0.3,0.6-0.3"/>
<path class="st0" d="M89.7,326.6c-0.5,0.3-0.9,0.7-1.2,1.2c-0.2,0.4-0.2,0.9,0,1.3c0.6,1.2,3,1.8,4.2,2.1l0,0c0.3,0,0.6,0,0.6-0.3
	v-0.3l0,0c-1.1-0.4-2.2-1-3.1-1.9c0-0.5-0.3-0.9,0-1.2s0.5-0.4,1.1-0.5c0.5,0,1.1,0.1,1.6,0.3l0,0h0.2c0,0,0-0.3,0-0.4
	c-0.3-0.3-0.8-0.6-1.2-0.7c-0.8-0.1-1.5,0.1-2.1,0.6"/>
<path class="st0" d="M91.8,327.7L91.8,327.7c-0.3,0-0.4,0-0.4,0.2s0,0.4,0,0.5c1,0.6,2.1,1.1,3.2,1.4l0,0c0,0,0.2,0,0.3-0.3
	c0.1-0.1,0.1-0.3,0-0.5C93.9,328.5,92.9,328.1,91.8,327.7"/>
<path class="st0" d="M92.4,336.6L92.4,336.6c0.4,0.1,0.9,0.1,1.3,0c1.5-0.6,3.2-1,4.9-1.1c0.3,0,0.6,0,0.6-0.4s0-0.5-0.6-0.5h-0.7
	c-1.5,0.1-2.9,0.4-4.3,0.9h-0.3c-0.2,0.1-0.3,0.1-0.5,0c0-0.3,0-0.7,0.3-1c1.3-1.4,3-2.4,4.9-2.8c0.3,0,0.4-0.3,0.4-0.6c0,0,0,0,0,0
	c-0.1-0.3-0.4-0.4-0.6-0.4c-2.4,0.5-4.6,1.9-6,3.9c-0.4,0.5-0.5,1.2-0.3,1.7c0.2,0.4,0.7,0.6,1.2,0.6"/>
<path class="st0" d="M95.6,333.1c0,0,0,0.3,0,0.4s0.4,0.2,0.8,0.2c0.8,0,1.5-0.2,2.1-0.6v-0.3l0,0c0,0-0.3,0-1,0
	c-0.7,0-1.4,0.1-1.9,0.5"/>
<path class="st0" d="M90.8,323.3c-0.1-0.2-0.1-0.5,0-0.8c0-0.3,0.5-0.3,0.7-0.3l0,0l0,0c-0.6-0.8-1.4-1.2-2.4-1.3c0,0-0.3,0-0.3,0
	c0,1.8,0.9,3.1,3.2,4h0.4l0,0L90.8,323.3z"/>
<path class="st0" d="M88,314.7L88,314.7c-0.2,1.6,0.3,3.3,1.4,4.5c0.4,0.5,1.1,0.9,1.7,0.9c0.1,0,0.3,0,0.4,0c0.1-0.3,0.1-0.7,0-1
	c-0.2-0.4-0.6-0.7-1-0.9c-0.1,0.2-0.2,0.3-0.4,0.3c-0.5,0-1.1-0.8-1.1-1.7C89.3,315.9,88.8,315,88,314.7"/>
<path class="st0" d="M93.4,321.1c-0.2-0.3-0.5-0.5-0.8-0.6l0,0v0.2c0.1,3.2,1.6,6.2,4,8.4c0.2,0.1,0.5,0.1,0.7,0c0.7,0,1-0.8,1.1-1
	c0.1-1,0-2.1-0.5-3.1c-0.1-0.2-0.3-0.3-0.6-0.3H97v1.6c0.1,0.2,0.1,0.4,0,0.6h-0.2l0,0c-0.2,0-0.5-0.1-0.6-0.2
	c-1.4-1.4-2.1-3.3-2.1-5.2c0-0.3-0.1-0.7-0.3-0.9"/>
<path class="st0" d="M101.7,336.6c0.3,0.1,0.7,0.2,1,0.2c0.3,0,0.7-0.2,0.9-0.4c0.5-1.1,0.7-2.4,0.3-3.6l0,0
	c-0.1-0.3-0.4-0.7-0.6-0.9l0,0c0,0.1,0,0.3,0,0.4v2.1c0,0.6,0,0.8-0.5,0.9c-0.2,0-0.4-0.1-0.6-0.3c-1.1-2.1-1.6-4.4-1.5-6.7
	c0-0.8-0.5-1.3-0.8-1.3s-0.2,0-0.2,0.6c-0.4,3.2,0.5,6.5,2.5,9.1H101.7z"/>
<path class="st0" d="M101.9,332.8L101.9,332.8c0.1-0.3,0.1-0.6,0-0.8l-0.2-1.7c-0.1-0.2-0.3-0.3-0.5-0.4c0,0-0.3,0-0.3,0.3
	c-0.2,0.8,0,1.7,0.4,2.4h0.3"/>
<path class="st0" d="M95.9,325.4c0,0,0.2-0.4,0.2-0.5c0-0.4-0.1-0.9-0.4-1.2c0-0.2-0.3-0.2-0.3-0.2v0.2c-0.2,0.4-0.2,0.9,0,1.4
	C95.5,325.3,95.7,325.4,95.9,325.4"/>
<path class="st0" d="M108.7,266.8h-0.2h-0.3c0,0,0,0.4,0.7,0.4c1.3-0.3,2.6,0.5,3,1.7c0.2,0.3,0.2,0.7,0,1c0,0-0.3,0.3-0.9,0.3l0,0
	v0.3c0.2,0.2,0.5,0.2,0.8,0.2c0.3,0,0.7-0.2,0.9-0.4c0.2-0.4,0.2-0.9,0-1.3c-0.6-1.7-2.3-2.8-4.1-2.5"/>
<path class="st0" d="M110.5,269.4c0,0,0.2,0,0.2-0.3c0-0.3-0.2-0.8-1-0.9l0,0c0,0,0,0,0.3,0.7C110.2,269.1,110.3,269.3,110.5,269.4"
	/>
<path class="st0" d="M111.5,272.5c-0.2,0-0.4,0.1-0.4,0.3c0,0,0,0,0,0.1c0,0,0,0.4,0.3,0.4c1.7,0,2.2,1,2.2,3.1c0,1-0.6,0.9-1,0.9
	c-0.3,0.1-0.7,0.1-1,0c-0.1-0.1-0.3-0.1-0.5,0c0,0,0,0,0,0.3c0.6,0.6,1.4,0.9,2.2,0.9c0.2,0.1,0.5,0.1,0.7,0
	c0.6-0.5,0.8-1.4,0.5-2.8c-0.1-1.6-1.4-2.9-3.1-2.9c0,0,0,0-0.1,0"/>
<path class="st0" d="M112.2,275.9c0.1,0.1,0.2,0.1,0.3,0c0.1-0.4,0-0.8-0.2-1.1c-0.2,0-0.4,0-0.6,0c-0.3,0-0.5,0-0.5,0.4
	s0,0.3,0,0.5c0.3,0.2,0.6,0.4,0.9,0.4"/>
<path class="st0" d="M112.6,286.1h0.2c1.4-0.9,2.4-2.2,2.8-3.8c0.1-0.7,0-1.4-0.4-2c-0.7-0.6-1.5-0.9-2.4-0.9h-0.3
	c-0.4,0-0.7,0.2-0.9,0.5c-0.1,0.2-0.1,0.4,0,0.5l1.5,0.3c0.4,0.1,0.7,0.3,0.8,0.7c0.1,0.7,0,1.5-0.4,2.1c-1.1,1.3-1.7,1.4-1.4,2.2
	c0.2,0.8,0,0.4,0.3,0.4"/>
<path class="st0" d="M111.9,282.9h0.6c0.6,0,0.6-0.2,0.6-0.4s-0.5-0.9-0.6-0.9h-0.7c-0.2,0.1-0.4,0.3-0.4,0.5c0,0,0,0.4,0.5,0.5"/>
<path class="st0" d="M116.2,263.8h-0.3c0.9,0.7,2,1.1,3.2,1.2c0.2,0.1,0.5,0.1,0.7,0c0-0.1,0-0.3,0-0.4c-2.2-3.8-6.3-6-10.7-5.7
	h-1.7h-0.3c0,0,0.7,0.7,1.5,0.8l1.9,0.1c2.5-0.3,5,0.7,6.7,2.6c0.3,0.4,0.4,0.8,0.3,1.1c-0.1,0.3-0.5,0.5-1.2,0.5"/>
<path class="st0" d="M113.5,261.5h-1.1l0,0c0,0,0,0,0.4,0.4c0.5,0.1,1,0.1,1.5,0c0.3,0.1,0.5,0.1,0.8,0h0.2c0,0,0,0-0.4-0.4
	c-0.4-0.1-0.8-0.1-1.2,0"/>
<path class="st0" d="M123.1,262.5c-0.4-0.1-0.7-0.2-1-0.5c-0.9-1.1-2.2-1.9-3.5-2.3h-0.4l0,0c1.7,2.4,4.2,4.1,7,4.9h0.6
	c0.1,0.1,0.3,0.1,0.4,0c0.1-0.1,0.1-0.2,0-0.3c-0.1-1.4-1.1-2.7-2.5-3c0,0.6,0.3,1,0,1.3c-0.1,0.2-0.4,0.3-0.6,0.3"/>
<path class="st0" d="M127.8,365.5c0.2,0,0.4,0,0.6,0l0,0c-0.3-0.1-0.6-0.4-0.6-0.8c0-0.5,0-1.2,0.8-1.9c3.8-2,4.9-3.7,4.5-6.8
	c0.1-0.1,0.1-0.2,0-0.3c-0.2-0.2-0.5-0.3-0.8-0.3c-0.5,0-0.9,0.3-1.1,0.7c-0.1,1.6-0.9,3.1-2.1,4.2c-3.3,2-7,3.1-10.8,3.3
	c-1.5-0.1-2.9,0.7-3.5,2.1l-1.3,3.4c-0.1,0.8-0.8,1.4-1.6,1.4l-3.3-0.3c-0.3,0-0.6-0.1-0.9-0.4c-0.1-0.2-0.1-0.5,0-0.8
	c-0.1-2.7,0.3-5.5,1.1-8.1c0.3-0.8,0.2-1.7-0.3-2.5c-0.1-0.1-0.2-0.3-0.3-0.3c0,0,0,0-0.4,0.5c-1.5,3.6-2.1,7.4-1.9,11.3
	c0,1,0.2,1.6,1.2,1.8l6.8,0.5c1,0,1.5-0.4,1.5-1.2c0.3-3.5,1.5-5.3,3.4-5.4l5.4-0.9h0.4c0.5-0.1,1,0.1,1.3,0.5
	c0.5,0.4,1.2,0.6,1.8,0.6"/>
<path class="st0" d="M124.1,353.7h-0.3c-1,0-1.2,0.8-1.2,1.3c0,0.5,0.4,0.8,0.8,0.9c0.2,0,0.4,0,0.5,0c0.6-0.7,1.3-1.2,2.2-1.5
	c-0.7-0.3-1.4-0.5-2.1-0.5"/>
<path class="st0" d="M122.6,360.3h0.5c0.7-0.2,1.4-0.6,1.9-1.2c-0.9,0-1.8-0.2-2.7-0.5H122c-0.4,0-0.7,0.3-0.7,0.7l0,0
	c0,0.3,0.1,0.5,0.3,0.7C121.9,360.3,122.2,360.4,122.6,360.3"/>
<path class="st0" d="M119.9,355.1c0.4-0.8,0.9-1.6,1.6-2.1h-0.6c-0.6,0-1.3,0.1-1.9,0.4c-0.6,0.4-0.9,0.9-0.8,1.4
	c0.1,0.4,0.5,0.8,1,0.8C119.5,355.6,119.7,355.4,119.9,355.1"/>
<path class="st0" d="M111.5,366.1c0.3,0,0.6-0.2,0.7-0.5c0-0.9,0.4-1.8,0.9-2.5c-0.8,0.1-1.5,0.5-2.1,1c-0.4,0.4-0.5,1-0.3,1.5
	C110.7,365.8,111.1,366.1,111.5,366.1"/>
<path class="st0" d="M140.7,363.4c1-0.6,2.1-0.9,3.2-1c-0.9-0.8-1.9-1.3-3.1-1.5c-2.7,0-1.9,3.3,0,2.4"/>
<path class="st0" d="M144.5,359.1c0-0.9,0.3-1.8,0.6-2.6c-0.8,0.2-1.5,0.5-2,1.1c-0.4,0.4-0.5,1-0.3,1.5c0.2,0.4,0.6,0.6,1,0.6
	C144.1,359.7,144.4,359.4,144.5,359.1"/>
<path class="st0" d="M149.3,357.7h-0.6c-0.6,0-1.3,0.1-1.8,0.4c-0.6,0.4-0.9,1-0.7,1.5c0.1,0.4,0.5,0.7,0.9,0.8
	c0.3,0,0.5-0.1,0.7-0.4C148.1,359.1,148.6,358.3,149.3,357.7"/>
<path class="st0" d="M146.3,363.5h0.5c0.8-0.2,1.5-0.6,2-1.2c-1,0-1.9-0.2-2.8-0.5h-0.3c-0.4,0-0.7,0.3-0.7,0.7c0,0,0,0,0,0.1
	c0,0.3,0.1,0.6,0.3,0.7C145.6,363.5,145.9,363.6,146.3,363.5"/>
<path class="st0" d="M116,359.7c0.1,0.4,0.5,0.7,1,0.7c0.5-0.1,0.9-0.3,1.1-0.7c0.4-0.7,0.6-1.5,0.6-2.2c-0.7,0.6-1.5,1-2.3,1.4
	C116.1,358.9,115.9,359.3,116,359.7"/>
<path class="st0" d="M103.5,353.3c-1.1,0.2-2.1,0.7-2.8,1.6c1.1,0,2.2,0.3,3.2,0.9C105.8,356.4,106.2,353.2,103.5,353.3"/>
<path class="st0" d="M96.8,351.1c0.4,0,0.7-0.3,0.8-0.7c0-0.5,0-1.1-0.8-1.5c-0.6-0.2-1.2-0.3-1.7-0.3h-0.6c0.7,0.5,1.3,1.2,1.7,2
	C96.3,350.8,96.6,351,96.8,351.1"/>
<path class="st0" d="M92.9,350.9c0-0.5-0.3-1.2-1.4-1.3c-0.8,0-1.5,0.2-2.1,0.6c0.9,0.2,1.7,0.6,2.3,1.2c0.2,0.1,0.4,0.1,0.5,0
	c0.4,0,0.7-0.4,0.7-0.8c0,0,0,0,0,0"/>
<path class="st0" d="M93.9,354.2c-0.9,0.6-1.9,0.9-3,0.9c0.8,0.7,1.8,1.3,2.9,1.5c2.6,0,1.9-3.1,0-2.3"/>
<path class="st0" d="M97.5,354.3c0.3,0.1,0.5,0.1,0.8,0c0.5,0,0.9-0.4,1-0.9c0,0,0,0,0,0c0-0.4-0.3-0.8-0.7-0.8c0,0-0.1,0-0.1,0h-1
	c-0.5,0.1-1.1,0.1-1.6,0C96.2,353.2,96.8,353.8,97.5,354.3"/>
<path class="st0" d="M79.6,350.3c0.3,0.2,0.6,0.3,0.9,0.3c0.5,0,0.9-0.4,0.9-0.9c0-0.2,0-0.8-1-0.9c-0.8,0-1.6-0.1-2.3-0.4
	C78.5,349.2,79,349.8,79.6,350.3"/>
<path class="st0" d="M73.1,351c0.3,0.1,0.6,0.1,0.9,0c0.5,0,0.9-0.4,0.9-0.9c0-0.5-0.3-0.8-0.8-0.9c0,0,0,0,0,0h-0.5
	c-0.7,0-1.3-0.1-1.9-0.3c0.3,0.7,0.8,1.4,1.5,1.8"/>
<path class="st0" d="M70.3,345.1h-0.4c-0.6,0-1.3,0.2-1.8,0.4c0.5,0.3,1,0.6,1.5,1.1l0,0c0.1,0.2,0.3,0.3,0.5,0.3h0.4
	c0.5,0,0.9-0.3,0.9-0.8C71.4,345.7,71.1,345.2,70.3,345.1"/>
<path class="st0" d="M58.7,337.7L58.7,337.7c0.1,0.5,0.5,0.9,1,0.9c0.2,0,0.5-0.1,0.6-0.3c0.2-0.4,0.2-0.9,0-1.3
	c-0.4-0.7-0.9-1.3-1.6-1.7c0.1,0.6,0.1,1.2,0,1.8C58.7,337.5,58.7,337.6,58.7,337.7"/>
<path class="st0" d="M56.6,335.4c-0.4-0.7-0.9-1.3-1.6-1.7c0.1,0.6,0.1,1.2,0,1.7c0,0.2,0,0.5,0,0.7l0,0c0.1,0.5,0.5,0.9,1,0.8
	c0.2,0,0.5-0.1,0.6-0.3C56.6,336.6,56.9,336.1,56.6,335.4"/>
<path class="st0" d="M56.1,338.7h-0.3c-0.8-0.1-1.5-0.4-2.1-0.8c0.2,0.9,0.7,1.7,1.4,2.3c0.2,0.1,0.5,0.2,0.8,0.2
	c0.4,0,0.8-0.4,0.9-0.8C56.8,339.3,56.5,338.8,56.1,338.7"/>
<path class="st0" d="M59.6,343.1c0.2,0.2,0.6,0.3,0.9,0.3c0.4,0,0.8-0.3,0.9-0.7c0.1-0.4-0.1-0.9-0.5-1h-0.3
	c-0.8-0.2-1.5-0.5-2.1-0.9c0.2,0.9,0.6,1.7,1.2,2.4"/>
<path class="st0" d="M107.4,350.1c0.1-0.2,0.1-0.5,0-0.7c-0.1-0.7-0.1-1.5,0-2.2c0,0,0-0.5-0.9-0.6h-0.5c-1.4,0-2.7,1-3.1,2.3
	c-0.5,1.4,0.1,3,1.3,3.8h0.5l0,0c0.1-0.3,0.1-0.5,0-0.8c-0.2-0.4-0.2-0.8,0-1.1c0.3-0.4,1-0.6,2.1-0.7L107.4,350.1z"/>
<path class="st0" d="M111.6,358.8L111.6,358.8c0.2,0,0.5,0,0.5,0l0,0c-0.7-0.6-1-1.1-1-1.6s0.4-1,1-1.5c0.6-0.5,0.4-0.8,0-1.2
	c-0.6-0.5-1.1-1-1.5-1.7c-0.1-0.2-0.3-0.3-0.6-0.3c-0.3,0-0.6,0.1-0.9,0.3c-1.5,1.2-1.8,3.3-0.6,4.8c0.6,0.8,1.6,1.3,2.7,1.3"/>
<path class="st0" d="M134.8,358.2L134.8,358.2c0.4,0.1,0.7,0.1,1.1,0c1.3-0.1,2.4-1,2.7-2.3c0.5-1.6-0.2-3.3-1.6-4.1
	c-0.2-0.2-0.4-0.3-0.7-0.2c-0.2,0-0.4,0.1-0.5,0.3c-0.4,0.6-0.9,1.2-1.5,1.8c-0.1,0.2-0.1,0.4,0,0.6c0.1,0.2,0.3,0.4,0.5,0.5
	c0.6,0.2,1,0.8,1.1,1.4c0,0.6-0.3,1.1-1,1.8"/>
<path class="st0" d="M128.8,353.7c0.4,0.4,0.9,0.6,1.5,0.6c0.3,0,0.7-0.1,1-0.3c1.5-0.5,2.8-1.6,3.5-3.1c0.2-0.7,0-1.5-0.5-2
	c-0.5-0.7-1.4-1.1-2.3-1.1h-0.4c-1.4,0-2.7-0.7-3.5-1.8c-0.5-0.6-1-1.1-1.5-1.2H126l0,0v0.2c0.2,0.9,0.8,1.7,1.5,2.2
	c0.9,0.6,1.9,1.2,2.9,1.6c0.6,0.4,0.9,0.7,0.8,1.1s-0.4,0.8-1.1,1.2h-0.5c-0.5,0-1-0.3-1.5-1.1c-0.9-1.4-2-2.7-3.3-3.9h-0.3
	c-0.1,0-0.3,0-0.4,0c-0.4,0.2-0.8,0.5-1.1,0.9c-0.2,0.3-0.4,0.5-0.7,0.5c-0.2,0-0.5-0.1-0.7-0.2h-0.3c-1.8,1-3.5,2.3-4.9,3.8
	c-0.2,0.2-0.5,0.4-0.9,0.4l0,0h-0.3l0,0l0,0c-0.1-0.4,0.1-0.9,0.5-1.1c1.4-0.9,2.7-2,3.8-3.3c0-0.1,0-0.3,0-0.4
	c-0.1-0.2-0.2-0.4-0.4-0.6c-0.5-0.2-1-0.4-1.6-0.3c-0.6,0-1.2,0.1-1.7,0.3c-0.5,0.1-1.1,0.1-1.7,0c-0.9,0-1.8-0.1-2.7-0.4
	c-0.2,0-0.5,0-0.7,0c-0.5,0-1.1,0.3-1.3,0.7c-0.1,0.3-0.2,0.6-0.3,0.9c-0.2,0.8-0.2,1.7,0,2.5c0.1,0.3,0.2,0.5,0.3,0.8
	c0.1,0.2,0.3,0.3,0.5,0.3c0.3,0,0.6-0.2,0.9-0.3c0.8-0.5,1.4-1.4,1.3-2.4c0.1-0.4,0.4-0.7,0.8-0.8c1-0.3,2-0.6,3-0.6h0.9
	c0.4,0,0.6,0.2,0.7,0.5c0,0.2-0.2,0.6-0.5,0.8c-1.3,0.8-2.6,1.5-4.1,2c-0.9,0.4-1.4,1.5-1.1,2.5c0,0.6,0.7,1.4,1.9,2.3
	c0.3,0.2,0.7,0.3,1.1,0.3c0.8-0.1,1.6-0.6,1.9-1.4c0-0.4,0.4-0.8,1.2-1.2c1-0.7,1.9-1.5,2.8-2.4c0.1-0.2,0.3-0.2,0.5-0.2
	c0.4,0,0.5,0.4,0.6,0.8v0.4c0.3,0.4,0.5,0.6,0.8,0.6c0.3,0,0.7-0.3,1.2-0.9c0.2-0.2,0.4-0.3,0.7-0.3h0.1c0,0,0,0.5,0,1s0,0.3,0,0.4
	c0.2-0.1,0.3-0.1,0.5,0c0.3,0,0.7,0.1,1,0.3L128.8,353.7z"/>
<path class="st0" d="M111.1,338.5c-0.2-0.1-0.3-0.1-0.5,0c0,0.2,0,0.3,0,0.5l3.2,4.4c0.4,0.5,0.9,0.8,1.6,0.8c0.3,0,0.5-0.1,0.7-0.3
	c0.2-0.4,0.2-0.9,0-1.3c0-0.3-0.2-0.5-0.3-0.5v0.2c-0.2,0.2-0.4,0.3-0.7,0.4c-0.3,0-0.6-0.2-0.7-0.4l-2.7-3.7
	C111.5,338.4,111.3,338.4,111.1,338.5"/>
<path class="st0" d="M121,345.8c0.2,0.1,0.4,0.1,0.6,0c0.3,0,0.7,0,0.9-1c0.2-1.3,0-2.6-0.5-3.8l-2.6-5.7c0-0.4-0.2-0.4-0.3-0.4
	c0,0,0,0-0.3,0.5c-0.2,1,0.1,2,0.7,2.9c0.4,0.6,0.8,1.4,1.2,2.1l0.5,1c0.3,0.6,0.3,1.3,0,1.8c-0.2,0.2-0.5,0.4-0.8,0.4
	c-0.4,0-0.7-0.2-0.9-0.5l-2.5-3.7c-0.5-1-1.3-1.8-2.3-2.2H114l0,0v0.4c0.7,0.9,1.4,1.9,1.9,2.8l0,0c1.1,2.2,2.8,4.1,4.9,5.3"/>
<path class="st0" d="M117.5,337.8v0.4l1.9,3.4l0,0c0.2,0,0.3-0.1,0.4-0.2c0.1-0.2,0.1-0.4,0-0.6l-1.9-3l0,0L117.5,337.8z"/>
<path class="st0" d="M114.7,341.6L114.7,341.6c0.2,0,0.3-0.1,0.4-0.2c0.1-0.2,0.1-0.4,0-0.5l-1.6-2.5l0,0l0,0v0.3L114.7,341.6z"/>
<path class="st0" d="M125.4,343.1c0.3,0,0.5,0,0.8,0c0.1,0,0.2,0,0.3,0c0.1-0.2,0.1-0.4,0-0.5c-0.1-2.2-0.6-4.5-1.5-6.6
	c-0.3-0.6-0.5-1.3-0.5-2c0.1-0.1,0.1-0.3,0-0.5h-0.3c-0.4,0.7-0.4,1.6,0,2.4l1.3,3.4c0.2,0.5,0.2,0.9,0,1.2l0,0l0,0
	c-0.3,0-0.6-0.2-0.7-0.5c-0.6-0.9-0.9-2-1.1-3.1c-0.4-1.4-0.7-1.5-1.1-1.7h-0.4l0,0c0.3,2.8,1.7,5.5,3.8,7.4"/>
<path class="st0" d="M120.2,317.7c-0.2,0.1-0.4,0.2-0.5,0.4c-0.1,0.3-0.1,0.7,0,1c1.8,3.2,2.6,6.9,2.4,10.6c0,1.2-0.7,1.3-0.9,1.3
	c-0.4,0-0.8-0.3-1-0.6c-0.9-1.6-1.7-3.2-2.4-4.9l0,0c-0.6-1.3-1.2-2.8-1.8-3.9l0,0c0,0,0,0-0.3,0.6c-0.1,0.8,0,1.5,0.4,2.2
	c0.6,1.1,1.2,2.4,1.6,3.4l0,0c0.7,2.1,1.8,4,3.3,5.7c0.3,0.2,0.6,0.3,0.9,0.3c0.4,0,0.7-0.3,1-0.9c0.9-5.1,0-10.4-2.4-15
	c0,0-0.2,0-0.3,0"/>
<path class="st0" d="M120.2,327.9c0,0,0.3,0,0.3-0.5c0-2.9-1.1-5.6-3.2-7.6c-0.1,0-0.3,0-0.4,0c-0.1-0.1-0.2-0.1-0.3,0
	c-0.1,0.2-0.1,0.5,0,0.7c1.5,2.2,2.7,4.6,3.5,7.2c0,0,0,0.2,0.2,0.2"/>
<path class="st0" d="M115.7,336c0.3,0.1,0.5,0.1,0.8,0c0.3,0,1.1,0,1.3-1.3c0-4.1-1.2-8.1-3.5-11.5c-0.1-0.1-0.3-0.2-0.5-0.2
	c-0.3,0-0.5,0.1-0.7,0.3c-0.1,0.2-0.1,0.4,0,0.5c0.4,1.3,0.9,2.5,1.6,3.7v0.2c0.7,1.5,1.3,3,1.8,4.5c0.2,0.4,0.2,0.9,0,1.3
	c-0.1,0.2-0.3,0.3-0.5,0.3c-0.3,0-0.7-0.2-0.9-0.4c-1.4-1.6-2.7-3.4-3.7-5.2v-0.3c-0.6-1-1.2-2-1.9-2.9c-0.3-0.3-0.5-0.5-0.7-0.5
	h-0.3c-0.2,0.3-0.2,0.7,0,1.1c1.9,3.8,4.5,7.2,7.6,10.1"/>
<path class="st0" d="M108.9,322.8h-0.2v0.3c2,2.4,3.6,5,4.9,7.9h0.2l0,0c0.1-0.2,0.1-0.5,0-0.7c-0.7-3-2.3-5.6-4.7-7.5H108.9z"/>
<path class="st0" d="M110.5,337c0.8,0,1.2-0.7,1.2-1.7c-0.8-3.5-2.6-6.7-5.4-9c-0.2-0.1-0.4-0.2-0.6-0.2l0,0l0,0
	c1.8,2.1,3.4,4.4,4.9,6.8c0.3,0.5,0.3,1.1,0,1.7c-0.2,0.3-0.5,0.4-0.8,0.4c-0.4,0-0.7-0.2-1-0.5c-2.3-3.2-4.9-6.3-7.6-9.1
	c-0.1-0.1-0.3-0.2-0.4-0.2h-0.3c-0.1,0.2-0.1,0.4,0,0.5c2.9,3.2,5.7,6.5,8.2,10c0.4,0.5,1,0.8,1.7,0.9"/>
<path class="st0" d="M102.3,324.3L102.3,324.3c-0.1,0.3-0.1,0.6,0,0.9l6.3,7.6h0.4l0,0c0.1-0.2,0.1-0.4,0-0.5l-6.3-8L102.3,324.3z"
	/>
<path class="st0" d="M127.6,264.9c1.1,0.9,2.3,1.6,3.7,1.9c0,0,0.3,0,0.4,0c0.4-0.3,0.5-0.8,0.5-1.3c-0.2-0.7-0.7-1.2-1.4-1.4l0,0
	c0,0.3-0.1,0.6-0.2,0.9c-0.2,0.2-0.5,0.3-0.8,0.3c-0.6,0-1.1-0.4-1.2-1c-0.2-0.8-0.6-1.4-1.3-1.8l0,0c0.3,0.5,0.4,1.1,0.3,1.7
	c-0.2,0.3-0.2,0.6,0,0.9"/>
<path class="st0" d="M119.6,269.4h-0.9l0,0v0.3c0.7,0.7,1.6,1.1,2.6,1.1c0.5,0,0.9-0.2,1.2-0.6c0.3-0.5,0-1.6-0.6-2.8l0,0l0,0l0,0
	c0,0,0-0.4-1.2-1.4l0,0c0,0.3-0.3,0.4-0.8,0.5h-1h-1.3l0,0c0.1,0.3,0.4,0.6,0.7,0.6c2.3,0,3.2,0.8,3.2,1.5c0,0.7-0.6,1.1-1.5,1.1"/>
<path class="st0" d="M120.5,273.5c1.7,0.5,2.2,1.7,2.1,2.5c0,0.6-0.5,1.2-1.2,1.2c-0.5,0-1-0.3-1.3-0.6c-0.1,0.3-0.1,0.5,0,0.8
	c0.6,1.3,1.9,2.1,3.3,2.3c0.4,0,0.7-0.1,0.9-0.4c0.3-0.6,0.3-1.2,0-1.8c-0.8-1.5-1.1-3.2-1.1-4.9c0.1-0.2,0.1-0.4,0-0.5l-0.5,0.2
	c-0.3,0.2-0.7,0.3-1.1,0.2c-0.7,0-1.4-0.2-1.9-0.6l-0.2,0.2c0,0,0,0,0,0.3L120.5,273.5z"/>
<path class="st0" d="M114.4,300.6c-0.2,0.3-0.2,0.7,0,1.1c1.2,1.7,2.3,3.4,3.3,5.1v0.2c0.9,1.5,1.6,2.6,2.1,3.4
	c0.1,0.2,0.4,0.4,0.6,0.4c0.2,0,0.5-0.4,0.5-1c-0.6-4.6-2.5-8.9-5.4-12.4l0,0c-0.2,0.3-0.2,0.6,0,0.9c1.5,2.1,2.7,4.5,3.6,6.9
	c0.1,0.3,0.1,0.6,0,0.9l0,0l0,0c0,0-0.5,0-0.7-0.6c-0.9-1.9-2-3.7-3.3-5.4l0,0L114.4,300.6z"/>
<path class="st0" d="M111.1,307.3c-0.1-0.1-0.2-0.1-0.3,0c-0.2,0.3-0.2,0.8,0,1.1c1.4,2.9,2.9,5.8,4.6,8.5c0.4,0.7,1.2,1.2,2,1.3
	c0.7,0,1.4-0.4,1.7-1.1c0.7-1.5,0.7-3.3,0-4.9c-1.5-3.2-3.3-6.2-5.3-9c-0.1-0.1-0.3-0.1-0.4,0c-0.1-0.1-0.2-0.1-0.3,0
	c-0.2,0.3-0.2,0.7,0,1c2,2.8,3.6,5.9,4.9,9.1c0.4,0.8,0.4,1.7,0,2.5c-0.2,0.4-0.6,0.6-1.1,0.6c-0.5,0-1-0.3-1.2-0.7
	c-1.6-2.5-3.1-5.2-4.2-7.9c-0.1-0.1-0.3-0.2-0.4-0.2"/>
<path class="st0" d="M116.1,313.1c0.2,0,0.5-0.1,0.6-0.3c0.2-0.3,0.2-0.6,0-0.9l-3.8-6.8c0-0.1-0.1-0.3-0.2-0.3l0,0
	c-0.2,0.5-0.2,1.1,0,1.6l3.2,6.7H116.1"/>
<path class="st0" d="M111.8,322.4c0.9,0,1.8-0.5,2.2-1.4c0.6-1.2,0.5-2.6-0.2-3.7c-1.5-2.6-2.8-5.3-3.8-8.1c0-0.4-0.4-0.7-0.7-0.7
	c-0.3,0.1-0.5,0.2-0.6,0.4c-0.1,0.2-0.1,0.4,0,0.6c1.2,2.9,2.6,5.7,4.1,8.5c0.4,0.7,0.4,1.5,0,2.1c-0.2,0.4-0.6,0.7-1.1,0.7
	c-0.5-0.1-0.9-0.4-1.1-0.9c-1.2-1.5-2.3-3.1-3.2-4.9l-0.3-0.5c-0.6-1-1.3-2.1-1.9-3.1c-0.1-0.2-0.4-0.3-0.6-0.3
	c-0.3,0-0.5,0.2-0.6,0.4c-0.1,0.2-0.1,0.5,0,0.7l5.4,8.5C109.8,321.7,110.8,322.2,111.8,322.4"/>
<path class="st0" d="M106.2,310.6l4.3,7.4c0.2,0.3,0.4,0.4,0.7,0.4l0,0c0,0,0-0.4,0-1.2l-4.3-8c0,0,0,0-0.3,0l0,0v0.4
	c0.1,0.2,0.1,0.4,0,0.6c-0.2,0.3-0.2,0.6,0,0.9"/>
<path class="st0" d="M107.1,324.3c0.4-0.8,0.4-1.7,0-2.5c-1.2-3.1-2.8-6-4.9-8.6l-0.3-0.5c-0.2-0.3-0.6-0.4-1-0.4
	c-0.2,0-0.4,0-0.4,0c0,0.1,0,0.2,0,0.3c1.9,2.6,3.5,5.5,4.9,8.4c0.2,0.4,0.2,1,0,1.4c-0.2,0.3-0.5,0.6-0.9,0.6
	c-0.4,0-0.7-0.2-0.9-0.5c-2.6-2.8-5-5.8-7.1-8.9c-0.2-0.2-0.4-0.2-0.6-0.2c-0.2,0-0.4,0.1-0.5,0.3c-0.1,0.2-0.1,0.5,0,0.7
	c2.2,3.5,4.7,6.7,7.5,9.7c0.6,0.6,1.3,0.9,2.1,0.8c0.5,0,1.1-0.2,1.4-0.6"/>
<path class="st0" d="M97.9,312.3c1.3,3,3.2,5.8,5.7,8c0.1,0,0.2,0,0.3,0l0,0c0,0,0-0.3,0-0.6c-1.9-3-3.8-5.7-5.6-8H98
	C97.9,311.8,97.9,312,97.9,312.3"/>
<path class="st0" d="M100,324.3c0.2,0.1,0.4,0.1,0.6,0c0,0,0-0.3,0-1c-1.8-3.3-4-6.3-6.7-9c-0.2-0.2-0.4-0.3-0.6-0.3l0,0
	c0,0.1,0,0.2,0,0.3c1.5,1.8,3.2,4,4.4,6c0.1,0.3,0.1,0.6,0,0.8l0,0l0,0l0,0c-0.2,0-0.5-0.1-0.7-0.3c-2.4-2.8-4.7-5.8-6.8-8.8
	c-0.1-0.2-0.3-0.3-0.5-0.3c-0.3,0-0.5,0.2-0.7,0.4c-0.1,0.2-0.1,0.4,0,0.6l0.4,0.6c2.8,4.2,6.3,9.3,10.6,10.7L100,324.3z"/>
<path class="st0" d="M109.2,291.6c-0.2,0.3-0.3,0.5-0.4,0.8c0,1,0,1.2,0,1.3l0,0h0.3c1.2-0.9,2-2.4,1.9-3.9l-0.5-6.7
	c0-0.4-0.3-0.7-0.5-0.7h-0.3c-0.1,0.3-0.1,0.6,0,0.8v1.5c0,0.8,0,1.5,0,2.2s0,1.5,0,2.1c0.2,0.8,0,1.7-0.6,2.3L109.2,291.6z"/>
<path class="st0" d="M104.1,285.5c-0.2,0.1-0.3,0.2-0.4,0.4c-0.9,2.7-1.3,5.5-1.1,8.3c0.1,0.9,1,1.6,1.9,1.6
	c1.6-0.2,2.9-1.3,3.3-2.9c0.6-2.9,0.7-5.9,0.5-8.8c0-0.5-0.2-0.9-0.5-0.9h-0.3c-0.2,0.2-0.3,0.4-0.2,0.7c0.3,2.7,0.1,5.5-0.6,8.2
	c-0.7,1.1-1.4,1.7-1.9,1.7s-0.8,0-0.9-1.3c0-2.3,0.2-4.5,0.6-6.8c0,0,0-0.3-0.3-0.5"/>
<path class="st0" d="M105.6,291.7c0.6-2.3,0.7-4.7,0.3-7.1c0-0.3,0-0.4,0-0.4c-0.2,0.1-0.3,0.3-0.3,0.5l-0.3,7c0,0.3,0,0.3,0.2,0.3
	c0.2,0,0.3,0,0.3-0.3"/>
<path class="st0" d="M96.6,295.7c-0.4,0-0.7-0.1-0.9-0.4c-0.2-0.4,0-0.9,0-1.7l1.5-5.2c0.1-0.2,0.1-0.3,0-0.5h-0.3
	c0,0-0.4,0-0.5,0.5c-0.3,1.2-0.8,2.4-1.3,3.6c-0.5,1.3-0.6,1.7-1,2.8c-0.2,0.4-0.2,0.9,0,1.3c0.7,0.7,1.7,1.1,2.7,1l0,0
	c2.6-0.3,4-1.3,4.1-3l1.1-6.9c0.1-0.2,0.1-0.5,0-0.7h-0.3c0,0-0.5,0.2-0.6,0.8l-0.9,5.2c-0.4,2.2-1.5,3.3-3.2,3.3"/>
<path class="st0" d="M99.2,286.8c-0.3,0.1-0.5,0.3-0.5,0.5c-0.2,1.9-0.6,3.8-1,5.7c0,0.1,0,0.3,0,0.4h0.2c0.2,0,0.5,0,0.7-0.7
	c0.4-1.9,0.7-3.8,0.8-5.7c0-0.4,0-0.4,0-0.4"/>
<path class="st0" d="M89.1,295.9c0.5,0.2,1,0.4,1.6,0.4c1-0.1,1.9-0.7,2.3-1.6l1.9-5.5c0-0.5,0-0.6,0-0.7s0,0-0.2,0
	c-0.7,1.9-1.5,3.8-2.6,5.5c-0.3,0.4-0.7,0.7-1.3,0.8c-0.4,0-0.8-0.2-1-0.5c-0.3-0.4-0.3-0.9,0-1.4c0.8-1.6,1.5-3.2,2.1-4.9
	c0.1-0.2,0.1-0.4,0-0.6c-0.2,0-0.3,0.2-0.3,0.3c-0.8,1.9-1.7,3.6-2.7,5.3c-0.4,0.5-0.5,1.1-0.4,1.7c0.2,0.4,0.4,0.7,0.8,0.9"/>
<path class="st0" d="M92.7,288.5c-0.5,1.6-1.1,3.1-1.9,4.5c-0.1,0.3,0,0.6,0.2,0.7c0,0,0,0,0,0l0,0c0.2,0,0.3-0.1,0.4-0.3
	c1-1.4,1.6-2.9,1.9-4.5c0-0.3-0.1-0.5-0.3-0.6C93.1,288.3,93.1,288.3,92.7,288.5"/>
<path class="st0" d="M89.6,288.3c0,0,0,0,0,0.2c-0.6,1.2-1.3,2.4-2.1,3.6c-0.1,0.2-0.1,0.3,0,0.5h0.4c1-1.1,1.8-2.4,2.2-3.9
	c0,0,0,0,0-0.4"/>
<path class="st0" d="M84.6,293.7c0.4,0.6,1,1.1,1.8,1.2c0.3,0,0.5-0.2,0.6-0.4v-0.3l-0.8-0.5c-0.2-0.1-0.3-0.3-0.3-0.5
	c0-0.4,0.1-0.7,0.3-1c0.8-0.8,1.5-1.7,2-2.7c0.1-0.3,0.1-0.6,0-0.8l0,0c0,0-0.2,0-0.3,0.3c-0.9,1.2-1.8,2.4-2.8,3.5
	c-0.4,0.6-0.5,1-0.3,1.4"/>
<path class="st0" d="M84.1,295.8c-1.6,2-2.2,4.5-1.8,6.9c0.3,1.1,0.7,2.2,1.2,3.2c0.3,0.6,0.6,1.3,0.9,2c0.4,1,0.5,2,0.5,3.1
	c0,0,0,0.5,0.8,0.5c0.4,0,0.7,0,1.1,0c0.7-0.2,1.3-0.6,1.7-1.3c0.2-0.5,0.2-1.1,0-1.6c-2.3-5.2-2.3-8.5-0.4-11.3
	c0.1-0.2,0.1-0.5,0-0.7c-0.1-0.2-0.3-0.3-0.5-0.3c-0.3,0-0.5,0.1-0.6,0.3c-1.2,1.2-1.8,2.8-1.6,4.5c0.1,1.2,0.3,2.4,0.7,3.5
	c0.2,0.8,0.5,1.7,0.7,2.7c0.2,0.3,0.2,0.6,0,0.9c-0.1,0.2-0.3,0.3-0.5,0.3c0,0-0.6,0-0.9-0.9c-0.3-0.9-0.6-1.7-0.8-2.4l0,0
	c-0.5-1.1-0.8-2.3-0.9-3.5c-0.1-1.9,0.4-3.8,1.6-5.2l0,0c0-0.3,0-0.5,0-0.7c-0.1-0.2-0.3-0.3-0.6-0.3
	C84.5,295.6,84.2,295.7,84.1,295.8"/>
<path class="st0" d="M88.7,305.6c0.5,2.3,1.5,4.5,3.1,6.4c0.6,0.5,1.3,0.8,2.1,0.8c1.3,0.1,2.4-0.8,2.7-2c0-0.6-0.1-1.3-0.3-1.8
	c-0.2-0.2-0.3-0.3-0.4-0.5c-0.8-2.9-0.8-5.9,0-8.8c0.1-0.2,0.1-0.4,0-0.5c-0.2-0.1-0.4-0.1-0.5,0c-0.3,0-0.6,0.1-0.8,0.4
	c-1,3.2-1,6.6,0,9.7c0.2,0.5,0.1,1.1-0.2,1.6c-0.3,0.3-0.6,0.5-1,0.5c-0.5,0-1-0.2-1.3-0.7c-2.6-3.3-3.2-7.8-1.5-11.7
	c0.2-0.3,0.2-0.6,0-0.9c-0.1-0.2-0.3-0.2-0.5-0.2c-0.3,0-0.5,0.2-0.7,0.4c-1.3,2.4-1.6,5.3-0.8,7.9"/>
<path class="st0" d="M93.3,297.6c-0.1-0.1-0.3-0.1-0.4,0c-0.3,0-0.5,0.2-0.6,0.5c-1.4,3.2-1.2,6.9,0.4,10.1c0.1,0.1,0.2,0.2,0.3,0.2
	l0,0c0.1-0.3,0.1-0.5,0-0.8c-1.2-2.9-1.2-6.2,0-9.1c0.1-0.2,0.1-0.4,0-0.5"/>
<path class="st0" d="M98.6,298.6h-0.4c-0.3,0-0.6,0.2-0.7,0.5c-0.8,3-0.8,6.2,0,9.2c0.4,1.7,1.9,2.8,3.6,2.8c1.7,0,3-1.3,3.1-3
	c-0.6-3.3-0.8-6.6-0.4-10c0.1-0.2,0.1-0.4,0-0.6c-0.2-0.2-0.4-0.2-0.6-0.2c-0.3,0-0.5,0.2-0.5,0.4c-0.5,2.6-0.7,5.3-0.4,7.9
	c0,0,0,0.4,0,0.6c0.3,0.7,0.3,1.4,0,2.1c-0.2,0.3-0.6,0.5-1,0.5c-0.7-0.1-1.3-0.5-1.6-1.1c-1-2.8-1.2-5.8-0.5-8.6
	c0.1-0.2,0.1-0.4,0-0.5"/>
<path class="st0" d="M100.8,297.7L100.8,297.7c0,0-0.4,0-0.5,0.4c-0.5,2.6-0.6,5.3-0.3,8c0,0.3,0.3,0.5,0.6,0.5c0.2,0,0.5,0,0.6-0.7
	c-0.3-2.6-0.3-5.3,0-7.9L100.8,297.7z"/>
<path class="st0" d="M108.3,295.3c-0.2,0.5-0.2,1,0,1.6c0.9,2.2,1.2,4.6,1.1,7c-0.1,0.7-0.7,1.3-1.5,1.4c-0.6,0-1.1-0.4-1.3-1
	c-0.5-2.2-0.7-4.4-0.6-6.7c0-0.3-0.3-0.6-0.7-0.6c-0.1-0.1-0.3-0.1-0.4,0c-0.1,0.2-0.1,0.3,0,0.5c-0.3,3.1,0.2,6.2,1.5,9.1
	c0.4,0.5,0.9,0.8,1.6,0.8c1.1,0,2.3-1.1,3.1-2.8c0.5-3.2-0.2-6.5-2-9.3h-0.3H108.3z"/>
<path class="st0" d="M107.9,302.8c0,0,0.2-0.3,0.2-0.5c-0.3-1.9-0.6-3.6-0.8-5.5c0-0.4-0.2-0.5-0.3-0.5c-0.1,0-0.2,0-0.2,0.4
	c0,2,0.3,4.1,0.8,6L107.9,302.8z"/>
<path class="st0" d="M112.3,292.2c0,0,0,0,0,0.4c0,0.7,0.2,1.4,0.5,2l0,0c0.3,0.7,0.5,1.5,0.5,2.3c0,0.6-0.5,0.7-0.7,0.7h-0.4
	c-0.6,0-1.1-1.3-1.2-1.8s0.3-0.6,0.4-0.4c0.1,0.1,0.3,0.5,0.4,0.4c0.1-0.1-0.3-1.7-0.3-1.7c-0.2-0.1-0.4-0.1-0.6,0
	c-0.3,0-0.5,0.1-0.7,0.3c-0.3,0-0.5,0.4-0.3,1c0.3,1.8,1.1,3.5,2.2,4.9c0.1,0.1,0.3,0.1,0.4,0c0.3,0,0.5,0,0.8-0.5
	c1.2-2.3,0.9-5.2-0.9-7.1h-0.2"/>
<path class="st0" d="M115.3,291h-0.3c-0.1-0.1-0.2-0.1-0.3,0c0,0,0,0,0,0.3c0.2,0.3,0.4,0.6,0.7,0.9c0.6,0.7,1.5,1.6,0.5,2.6
	c-0.2,0-0.2,0,0,0.6c0.2,0.6,0.4,0.5,0.7,0.5c0.3,0,0.5-0.1,0.7-0.2l1.3-1.6v-0.3c0,0,0,0-0.2,0c-0.2,0-1.3-0.8-1.8-1.4
	c-0.4-0.5-0.8-1-1.4-1.3"/>
<path class="st0" d="M118.8,290.8c-0.2,0-0.4,0-0.5,0l-1.5-1.2h-0.3c0,0-0.3,0-0.4,0.3c-0.1,0.2-0.1,0.3,0,0.5
	c0.6,0.9,1.4,1.6,2.3,2.3c0.2,0.2,0.5,0.3,0.8,0.3c0.2,0,0.4-0.1,0.6-0.2c0.4-0.5,0.8-0.9,1.2-1.4c0.7-0.5,1.3-1.3,1.6-2.1
	c0-0.2,0-0.4,0-0.5c0,0,0,0-0.5,0c-1.2-0.2-2.3-0.7-3.1-1.7h-0.3c-0.2,0-0.4,0.2-0.5,0.3c0,0,0,0.3,0,0.5l1.5,1.6
	c0.2,0.4,0.2,0.8,0,1.2c-0.2,0.3-0.6,0.6-1,0.6"/>
<path class="st0" d="M122.1,284.9c-0.4,0-0.8-0.2-1.1-0.5c0,0,0,0-0.2,0c-0.2,0,0,0-0.3,0c-0.3,0-0.6,1.1-0.3,1.4
	c0.6,0.8,1.4,1.3,2.4,1.5c0.6-0.1,1.1-0.4,1.4-1c0.5-1.2,0.9-2.4,1-3.7c0.1-0.2,0.1-0.4,0-0.6c0,0-0.3,0-0.5-0.2l0,0h-0.3
	c-1-0.5-2-1.1-2.9-1.8l0,0c-0.2,0.4-0.1,0.9,0.2,1.2l1.4,1.2c0.5,0.5,0.6,1.3,0.4,1.9c-0.1,0.4-0.5,0.6-0.9,0.6"/>
<path class="st0" d="M150.4,354.3c0.2-0.4,0.2-1,0-1.4c0-0.3-0.3-0.4-1-0.5c-0.7-0.1-2,0-2.1-1.9v-0.6h-0.3
	c-0.8,0.3-1.5,0.9-1.8,1.7c-0.1,0.3-0.3,0.6-0.5,0.9c-0.4,0.4-0.9,0.6-1.5,0.7c-0.6,0-1.1-0.3-1.6-1.1c-0.4-0.8,0-0.4,0-0.4
	l-0.3,0.4c-0.3,0.5-0.5,1.1-0.3,1.7c0.1,1.1-0.1,2.1-0.6,3.1c-1.3,2.2-2.8,3.4-4.5,3.4h-1.2h-0.2c-0.3,0-0.5,0.2-0.6,0.5
	c0,0.3,0,0.6,0,0.6c0.7,0.3,1.5,0.4,2.3,0.4c1.7-0.1,3.4-1,4.3-2.4c1.8-2.6,4.1-5.8,6.8-5.9c0.6,0,1.2,0.1,1.7,0.4l0,0
	c0.2,0.4,0.6,0.7,1,0.7C150.1,354.6,150.3,354.5,150.4,354.3"/>
<path class="st0" d="M156.7,362.2c-0.6,0.1-1.2-0.1-1.6-0.5c-0.3-0.5-0.3-1.2,0-1.7v-0.2h-0.4c-1.4,0.2-1.7,0.7-1.7,1.5
	c0.2,0.6-0.2,1.2-0.8,1.4c-2.9,1.5-6.1,2.4-9.4,2.5c-2.5,0-4.9-0.4-7.2-1.2c-1.4-0.4-2.6-0.7-3.8-1c-1.2-0.2-1.4,0.3-1.5,0.6
	c0,0.2,0.1,0.4,0.2,0.5l2.8,1c0.4,0,1.6,0.3,1.6,1.5s1,1.9,1.8,1.9h0.3c-0.2-0.4-0.2-0.9,0-1.3c0.1-0.3,0.3-0.5,0.6-0.5h0.6
	c1.6,0.3,3.2,0.5,4.9,0.5c1.1,0,2.1-0.1,3.2-0.3h0.4c0.3,0,0.5,0.1,0.7,0.3c0.8,0.6,1.7,1,2.7,1.1c0.4,0,0.9-0.2,1.2-0.5l0,0
	c-0.5,0-0.9-0.5-1.2-1.2c-0.3-0.7,0-0.8,0.7-1c1.1-0.3,2.1-0.8,3-1.5c0.3-0.3,0.7-0.4,1.1-0.4l0,0c1.9,0,2.3-0.6,2.4-1v-0.4h-0.8"/>
<path class="st0" d="M157.1,355.4c-0.8,1-2,1.7-3.3,1.7c-0.5,0.1-0.9,0.1-1.4,0c-0.3-0.3-0.5-0.6-0.6-1.1c0-0.7,0.5-1.5,1.7-2.4
	c0.5-0.4,1.2-0.7,1.8-0.8c0.6,0,1.2,0.3,1.6,0.8c0.4,0.6,0.4,1.4,0,2 M155,351.8c-0.7,0-1.4,0.3-2,0.7c-2.7,2.3-3.3,4-1.9,5.8
	c0.8,0.5,1.7,0.7,2.6,0.7c1.7-0.1,3.2-0.9,4.4-2.1c0.7-1,0.7-2.3,0-3.3C157.4,352.5,156.2,351.8,155,351.8"/>
<path class="st0" d="M163.3,354.4c0-0.6-0.3-0.6-0.5-0.6h-0.3c-0.6,0.1-1.2,0.3-1.7,0.5c-0.2,0-0.4,0.2-0.4,0.5
	c-0.1,0.3,0.1,0.6,0.3,0.7c0.7,0.2,1.4,0.4,2.1,0.5l0,0c0.1,0.1,0.2,0.1,0.3,0c0,0,0,0,0-0.4c-0.1-0.4-0.1-0.8,0-1.2"/>
<path class="st0" d="M162.4,351.6c-0.4-0.4-0.7-0.9-1.1-1.3c0,0-0.3-0.3-0.4-0.3c-0.1,0-0.2,0-0.5,0.3c-0.6,0.4-1.1,1-1.4,1.7
	c-0.2,0.3-0.2,0.7,0,1c0.2,0.2,0.5,0.3,0.8,0.3c0.8-0.1,1.5-0.4,2.1-0.9c0.2-0.2,0.2-0.3,0-0.5"/>
<path class="st0" d="M158.6,348.2c-0.3-0.2-0.4-0.3-0.6-0.3c-0.1,0,0,0-0.4,0.3c-0.2,0.4-0.4,0.8-0.5,1.2c-0.1,0.3-0.1,0.7,0,1
	c0,0,0.3,0,0.7,0h0.4c0.6-0.2,1.1-0.6,1.5-1.1v-0.2c-0.1-0.2-0.2-0.3-0.3-0.4c-0.3-0.2-0.7-0.5-1-0.7"/>
<path class="st0" d="M165,347.1c-0.5,0-0.9,0.3-1,0.7c0,0.8-0.5,1.5-1.3,1.7c-0.3,0,0,0.7,0,0.7s0.4,0.8,0.8,0.8h0.3
	c0.4-0.5,1-0.8,1.7-0.8h0.8c0.4,0,0.7-0.2,0.8-0.6c0.2-0.6,0-1.3-0.5-1.8c-0.3-0.4-0.8-0.7-1.4-0.7"/>
<path class="st0" d="M93.8,360.9c0,0.5-0.3,0.8-1.1,1.1l0,0c0.3,0,0.5,0,0.8,0c0.7,0,1.3-0.3,1.8-0.7c0.6-0.5,1.4-0.8,2.2-0.8
	c0.6,0,1.2,0.2,1.7,0.4c0.7,0.3,1,0.6,1.1,1c0,0.3-0.1,0.7-0.3,0.9h0.7c1.1,0,1.8-0.6,2.3-1.9c0.5-0.7,1.3-1.3,2.2-1.5
	c0.4-0.5,0.7-1.1,0.8-1.8c0,0,0-0.4-0.3-0.6h-0.3c-1.9,1.1-4.1,1.7-6.4,1.7c-4.5-0.1-8.8-1.1-12.9-2.9c-1.1-0.5-1.8-1.8-1.4-3
	l1.7-4.9c0.6-1.5,2.1-2.4,3.7-2.4c4.2,0.6,8.1,2.2,11.4,4.9h0.2l0,0c0.2-0.4,0.2-0.8,0-1.2l-1.8-1.5c-0.5-0.4-0.8-1-0.8-1.6
	c0-1.7-0.8-2.1-1.5-2.4l0,0c0,0.1,0,0.2,0,0.3v1.3c-0.1,0.3-0.4,0.5-0.7,0.5h-1.1c-1.9-0.1-3.6-1.1-4.6-2.7
	c-0.6-0.8-1.1-1.4-2.1-1.4h-0.5l0.5,0.5c0.3,0.2,0.4,0.6,0.4,1c0,0.4-0.4,0.7-1.1,0.9c-0.3-0.1-0.7-0.1-1,0h-0.8
	c-0.4,0-0.8-0.2-1.2-0.4l0,0c-0.4-0.3-0.9-0.5-1.5-0.5c-0.3,0-0.5,0-0.8,0l0,0c1.1,0.6,1.6,2,1.1,3.1l-2,6.1c-0.4,1.5,0,3.2,1.2,4.2
	c1.5,0.5,2.1,1.1,2.1,1.7c0,0.6-0.3,0.8-1,1.2l0,0c0.4,0.2,0.8,0.3,1.2,0.3c0.6,0,1.3-0.3,1.7-0.8c0.4-0.3,1-0.5,1.5-0.6
	c0.3-0.1,0.7-0.1,1,0c2.2,0.6,3.3,1.2,3.4,1.8"/>
<path class="st0" d="M82.8,348.1c0.2,0,0.3-0.1,0.3-0.2c0.1-0.2,0.1-0.4,0-0.5c-0.7-1.2-1.7-2.2-2.9-2.9h-0.4
	c-0.1-0.1-0.2-0.1-0.3,0c-0.1,0.2-0.1,0.4,0,0.6c1.1,0.8,2.1,1.7,2.9,2.9L82.8,348.1z"/>
<path class="st0" d="M63.2,348c0,1.5,0,2.8-1.4,3l0,0c0.5,0.3,1,0.5,1.6,0.5c0.4,0,0.8-0.1,1.2-0.3c0.2-0.2,0.4-0.3,0.6-0.3
	c0.1,0,0.3,0,0.4,0l4,1.9c0.5,0.2,0.8,0.5,0.8,0.8c0,0.3,0,0.6-0.7,1c0.4,0.1,0.8,0.2,1.2,0.2c0.6-0.1,1.2-0.3,1.7-0.7
	c0.2-0.2,0.5-0.3,0.8-0.3h2.5c1.6,0,3.3-0.2,4.9-0.6c0.5-0.3,0.7-0.8,0.6-1.4c-0.1,0-0.1,0.1-0.1,0.1h-0.3c-1.4,0.5-3,0.7-4.5,0.7
	c-3.7,0-7.3-1.2-10.2-3.4c-0.8-0.3-1.1-1.1-0.8-2.6c0.5-1.8,1.4-3.4,2.5-4.9c0.2-0.3,0.6-0.5,1-0.5h1.2c1.2,0,1.4-0.5,1.4-0.9l0,0
	H71c-0.9-0.1-1.8-0.5-2.4-1.1c-0.3-0.5-0.8-0.7-1.4-0.8l0,0c0.6,0.5,0.7,1.4,0.2,2.1c-0.1,0.1-0.1,0.1-0.2,0.2c-2,2-3.2,4.7-3.4,7.6
	"/>
<path class="st0" d="M73.6,344.7L73.6,344.7c-0.6-1.3-0.6-2.8,0-4c0.3-0.4,0.8-0.7,1.4-0.7c0.5,0,1,0.2,1.4,0.6
	c0.5,0.7,0.5,1.6,0.2,2.4c-0.4,1.5-1,2.2-1.8,2.3c-0.5,0-0.9-0.2-1.3-0.6 M78.3,343.6c0.3-1.2,0.1-2.5-0.6-3.4
	c-0.6-0.8-1.6-1.2-2.6-1.2c-0.7,0-1.4,0.3-1.9,0.8c-0.8,0.9-1.2,2.1-1,3.3c0,1.4,0.6,2.8,1.7,3.7c0.4,0.1,0.8,0.1,1.2,0
	c1.4,0,2.5-1.1,3.3-3.4"/>
<path class="st0" d="M79.6,339.2c0.6-0.1,1.2-0.4,1.7-0.8c0.2-0.3,0.1-0.7-0.2-0.9c0,0,0,0,0,0l-1-0.7h-0.3c0,0-0.4,0-0.6,0.4
	c-0.3,0.4-0.5,0.9-0.5,1.5C78.8,339.1,79.1,339.3,79.6,339.2L79.6,339.2z"/>
<path class="st0" d="M77.9,335.6l-1.2-0.4h-0.5c0,0,0,0,0,0.5v1.6c0,0.3,0.4,0.5,0.6,0.5c0.3,0,0.5-0.1,0.7-0.3l0.7-0.9
	c0.1-0.2,0.1-0.5,0-0.7c0,0-0.2,0-0.5-0.3"/>
<path class="st0" d="M74.5,335.3h-1.3c-0.1,0-0.3,0-0.4,0c-0.1,0.3-0.1,0.6,0,0.9c0.2,0.6,0.8,1.6,1.4,1.6s0.4,0,0.6-0.6
	c0.1-0.2,0.1-0.5,0-0.7V336C74.9,335.7,74.8,335.4,74.5,335.3L74.5,335.3z"/>
<path class="st0" d="M57.7,345.7h0.4c0.9,0.3,1.8,0.5,2.8,0.5c0.3,0.1,0.6,0.1,0.9,0c0.3-0.1,0.4-0.3,0.4-0.6c0-0.3-0.3-0.3-0.5-0.3
	c-4.7-0.6-8.8-3.3-11.2-7.4c-0.6-0.9-0.6-2.1,0-3.1c1-1.4,2.4-2.5,3.9-3.2c0.5-0.3,1-0.4,1.5-0.4c0.6,0,1.2,0.2,1.7,0.6
	c2.6,2.4,4.5,5.4,5.5,8.8c0,0.6,0.3,0.9,0.6,0.9s0.5,0,0.6-0.7l-0.3-1.7c-0.2-0.5-0.2-1,0-1.5c1.2-1.5,1.3-2.7,0-3.7l0,0
	c-0.4,1-0.8,1.5-1.3,1.6c-0.5,0-0.8-0.3-1.1-1c-1-1.5-2.3-2.9-3.8-4c-0.6-0.4-0.9-0.8-0.7-1.2c-0.3-1.8-0.9-1.9-1.7-2.1l0,0
	c0.4,1.4,0,2.3-1.7,2.8c-2.4,0.8-4.4,2.6-5.6,4.9c0,0.4-0.2,0.9-0.6,1.1c-0.5-0.1-0.9-0.3-1.2-0.6l0,0v0.2c-0.1,0.9,0.4,1.9,1.2,2.3
	c0.5,0,1,0.3,1.2,0.8c0.3,0.7,0.8,1.4,1.4,1.9c0.4,0.4,0.5,0.7,0.4,1c-0.1,0.3-0.5,0.5-1.4,0.6l0,0c0.6,0.6,1.5,0.9,2.3,0.8h0.4
	c0.3,0,0.6,0.1,0.9,0.3l1.7,1.1c0.5,0.2,0.7,0.5,0.7,0.8s-0.3,0.7-1,1.1l0,0c0.4,0.3,0.9,0.4,1.4,0.4c0.7,0.1,1.3-0.1,1.7-0.6
	C57.2,345.9,57.5,345.7,57.7,345.7"/>
<path class="st0" d="M48.5,324.3c0.4,0,1.3,0,1.9,1.7c0.6,1.7,0.6,2.3,0.3,2.9c-0.2,0.3-0.6,0.5-1,0.5h-0.3
	c-1.3-0.6-2.3-1.9-2.4-3.4C46.9,325,47.6,324.3,48.5,324.3 M46.1,324.7c-0.4,1-0.4,2.1,0,3c0.7,1.4,2.1,2.5,3.6,2.9h0.4
	c0.9,0.1,1.7-0.4,2-1.2c0.6-1.5,0.3-3.2-0.6-4.5c-0.6-1.1-1.7-1.8-3-1.9C47.5,323.1,46.5,323.7,46.1,324.7"/>
<path class="st0" d="M49.1,322.1c0.3,0,0.6-0.2,0.8-0.5c0.2-0.5,0.4-1,0.4-1.5c0-0.5,0-0.6-0.4-0.7c-0.3-0.1-0.6-0.1-0.9,0
	c-0.2,0-0.5,0-0.7,0c0,0-0.3,0.4-0.3,0.9C48,320.7,48.5,322.1,49.1,322.1"/>
<path class="st0" d="M47,322.3c0.3-0.7,0.3-1.5,0-2.1c0-0.1,0-0.3,0-0.4c-0.2-0.1-0.4-0.1-0.6,0c-0.6,0-1.2,0.3-1.6,0.8
	c0,0,0,0.4,0,0.7c0.6,1.1,1.3,1.5,1.6,1.4c0.1,0.1,0.3,0.1,0.4,0"/>
<path class="st0" d="M44,321.4c-0.5,0-1.2,0.8-1.3,1.3c-0.1,0.1-0.1,0.3,0,0.4c0.5,0.5,1.1,0.8,1.8,0.8c0.3,0,0.5-0.1,0.7-0.3
	c0-0.4,0-1.2-1-2.1L44,321.4z"/>
<path class="st0" d="M43.5,317.5c0.5,0.1,0.9,0.5,0.9,1c0,0.4,0.3,0.6,0.7,0.5c0.3,0,0.5-0.2,0.6-0.4c0.2-0.3,0.2-0.7,0-1
	c-0.2-0.3-0.2-0.8,0-1.1c0.2-0.4,0.2-0.9,0-1.3c-0.2-0.3-0.6-0.4-1-0.4c-0.8,0-1.5,0.4-1.8,1.1c0,0.7,0.5,1.2,1,1.5"/>
<path class="st0" d="M80,359.9c-0.3,0.2-0.6,0.3-0.9,0.3c-0.6,0-1.1-0.3-1.3-0.8c-0.3-0.6-0.1-1.3,0.3-1.8c0.2-0.2,0.5-0.4,0.9-0.3
	c0.6,0,1.1,0.3,1.4,0.9C80.5,358.8,80.4,359.4,80,359.9 M81.6,359.9c0.4-1,0.1-2.1-0.6-2.9c-0.5-0.6-1.2-1-2-1c-1,0-1.8,0.5-2.3,1.4
	c-0.5,1.1-0.3,2.3,0.4,3.2c0.9,1.2,2.6,1.3,3.8,0.4C81.1,360.7,81.4,360.3,81.6,359.9"/>
<path class="st0" d="M67.1,369.6c-0.3,0.2-0.6,0.3-0.9,0.3c-0.5,0-1.1-0.3-1.3-0.8c-0.2-0.6-0.1-1.3,0.3-1.8
	c0.2-0.2,0.5-0.4,0.9-0.4c0.6,0,1.1,0.4,1.3,0.9C67.7,368.4,67.6,369.1,67.1,369.6 M66.1,365.8c-0.9,0-1.8,0.5-2.3,1.3
	c-0.5,1-0.3,2.3,0.4,3.2c0.5,0.6,1.2,1,2,1l0,0c1.1,0,2-0.7,2.4-1.7c0.4-1,0.2-2.1-0.6-2.9C67.6,366.1,66.9,365.7,66.1,365.8"/>
<path class="st0" d="M137.2,380.5c-0.3,0.2-0.6,0.3-1,0.3c-0.6,0-1.2-0.3-1.5-0.9c-0.3-0.6-0.2-1.3,0.3-1.8c0.7-0.5,1.7-0.4,2.3,0.3
	C137.9,379.1,137.8,380,137.2,380.5 M136,376.5c-1,0-2,0.5-2.5,1.4c-0.5,1.1-0.3,2.4,0.5,3.3c0.6,0.7,1.4,1.1,2.3,1.1
	c1.2,0,2.2-0.7,2.6-1.8c0.4-1.1,0.1-2.3-0.7-3C137.7,376.9,136.9,376.5,136,376.5"/>
<path class="st0" d="M87.5,367.6c-2.2-1.3-4.1-3-5.6-5.1c0-0.3-0.4-0.5-0.6-0.4c-0.1-0.1-0.2-0.1-0.3,0c-0.1,0.3-0.1,0.6,0,0.9
	c1.4,2.6,3.8,4.5,6.6,5.3c0,0,0.4,0,0.4-0.2s0-0.4-0.4-0.6"/>
<path class="st0" d="M87.2,378.2c-1.8-0.5-3.6-0.8-5.4-0.9c-0.2,0-0.4,0.1-0.4,0.3c0,0.3,0.2,0.5,0.4,0.6c1.9,0.4,3.7,1.1,5.4,2h0.3
	c0,0,0,0,0-0.3v-1.2c0-0.3,0-0.4-0.5-0.6"/>
<path class="st0" d="M77.5,375.5c-1.4,0.1-2.7,0.7-3.7,1.7c0,0,0,0.4,0,0.5c0,0.1,0,0,0.5,0c0.4,0,0.7-0.1,1.1-0.3
	c0.7-0.7,1.7-1.1,2.7-1.1h0.4c0.8,0,1,0.5,1,0.9c0,0.4-0.4,0.8-0.8,0.8c-0.1,0.1-0.3,0.1-0.4,0c-0.2-0.1-0.4-0.1-0.5,0h-0.4
	c-0.6,0.2-1.2,0.4-1.7,0.8l0,0H75h-0.2c0,0,0,0,0.2,0c0.9,0.3,1.8,0.5,2.8,0.5c1,0.1,1.9-0.3,2.4-1.1c0.3-0.7,0.3-1.4,0-2.1
	c-0.5-0.8-1.4-1.3-2.3-1.2"/>
<path class="st0" d="M57.1,354.3c0,0-0.5,0-0.5,0.3c0,0.3,0.6,0.8,1.7,1c1.3-0.1,2.7,0.3,3.7,1.2c0.6,0.5,0.5,1,0.5,1.2
	c-0.1,0.3-0.5,0.5-0.8,0.5c-0.4,0-0.7-0.2-0.8-0.6c0-0.3,0-0.6-0.8-0.8c-0.7-0.3-1.4-0.5-2.2-0.5H57h-0.4c0,0.1,0,0.2,0,0.3
	c2.2,2.8,3.8,3.2,4.9,3.2c0.7,0,1.4-0.4,1.7-1c0.4-0.7,0.4-1.6,0-2.4C61.7,354.8,59.4,353.9,57.1,354.3"/>
<path class="st0" d="M146.2,370c-1.3-0.6-2.7-0.9-4.1-0.9c-1-0.1-2,0.2-2.8,0.9c-0.5,0.5-0.8,1.2-0.8,1.9c0,1.2,0.9,2.4,3,2.4
	c1.6-0.1,3.1-0.6,4.4-1.5c0.2-0.2,0.2-0.3,0.2-0.4c-0.1,0-0.3,0-0.4,0h-0.9c-0.8-0.2-1.7-0.3-2.5-0.3c-0.4-0.1-0.9,0.1-1.1,0.5
	c-0.1,0.2-0.4,0.3-0.6,0.3c-0.5,0-0.9-0.3-1-0.8c0,0,0-0.8,0.9-1.1c0.5-0.2,0.9-0.2,1.4-0.2c0.9,0,1.8,0.2,2.6,0.5h0.9
	c0.8,0,1.2-0.2,1.2-0.4s0-0.4-0.4-0.6"/>
<path class="st0" d="M131.4,372.7c1.8,0,3.6-0.5,5.2-1.3c0,0,0.4-0.3,0.4-0.6c-0.2-0.3-0.5-0.5-0.8-0.4c-0.2,0-0.3,0-0.5,0
	c-1.7,0.5-3.5,0.7-5.3,0.8c-1.2,0.1-2.3,0.1-3.5,0c-0.5,0-0.8,0.3-0.8,0.5c0,0.2,0.3,0.6,1.1,0.8c1.7,0,3.1,0,4.3,0"/>
<path class="st0" d="M131.7,376.8c-0.2-0.2-0.3-0.4-0.3-0.6c0-0.3,0.4-0.5,1-0.7l4.9-1.4c0.2-0.1,0.3-0.3,0.3-0.5c0,0,0-0.6-1-0.6
	l0,0c-4.5,0.8-6.9,1.7-7.1,2.9s0.5,1.5,1.9,2.4c0.2,0.1,0.4,0.1,0.6,0c0.4,0,0.7,0,0.7-0.3s0-0.4,0-0.6L131.7,376.8z"/>
<path class="st0" d="M131.2,379.5l-4.4,1.1c-0.2,0.2-0.2,0.5,0,0.8c0,0.4,0.4,0.7,0.8,0.7h0.2l4.1-1c0.3-0.2,0.4-0.5,0.3-0.8
	c-0.1-0.4-0.4-0.7-0.8-0.7"/>
<path class="st0" d="M82.9,373.2c-0.8-2.3-5.5-4.3-12-4.9c-0.3,0-0.6,0.1-0.7,0.4c0,0.2,0,0.6,0.6,0.7c3.4,0.5,6.7,1.7,9.7,3.5
	c0.4,0.2,0.7,0.6,0.8,1.1c0,0.3-0.2,0.6-0.4,0.7c-0.2,0.1-0.4,0.4-0.4,0.7c0,0.6,0.2,0.8,0.7,0.8h0.6c0.8-0.7,1.2-1.7,1-2.7"/>
<path class="st0" d="M71.3,366c0-1-1-3.2-6.6-5.8h-0.3c0,0,0,0-0.3,0c0,0.2,0,0.5,0.2,0.6l1,0.7l0.5,0.4c1.2,0.7,2.3,1.5,3.3,2.5
	c0.2,0.2,0.4,0.4,0.4,0.7c0,0.2-0.1,0.4-0.3,0.5c0,0.3,0,0.4,0,0.4c0.4,0.3,0.8,0.4,1.2,0.4C70.8,366.4,71.2,366.2,71.3,366"/>
<path class="st0" d="M72.3,362.7l2.3,1c0.9,0.5,2,0.9,3,1.2h0.3c0.8,0,1.4-0.3,1.6-0.9c0.1-0.5-0.2-1-0.7-1.2h-0.4l0,0
	c-0.2,0.4-0.5,0.6-0.9,0.6h-0.8c-3.7-1.5-7.4-3.3-10.8-5.4h-0.5c-0.1-0.1-0.3-0.1-0.4,0v0.5C67.2,360.1,69.7,361.5,72.3,362.7"/>
<path class="st0" d="M32.1,306.7L32.1,306.7c0.7,0.3,1.3,0.8,1.7,1.5c0.2,0.7,0.2,1.5,0,2.2c0,0.5-0.1,1.1-0.3,1.6c0,0,0,0-0.5,0
	l-4.4-0.5V310c0-0.7,0.3-1,0.4-1.1c0.5-0.1,0.9-0.1,1.4,0l0,0v-0.7l-4.6-0.6v0.6l0,0c0.5,0.1,0.9,0.3,1.3,0.6c0,0,0,0.4,0,1.1v1.4
	l-3.9-0.5c-0.3,0-0.4,0-0.4,0s0,0,0-0.2l0.2-2c0-1,0.3-1.4,0.5-1.5c0.2-0.1,0.5-0.3,1.5-0.3l0,0v-0.7l-2.2-0.5l-1.1,8.2h0.7l0,0
	c0.4-0.7,0.4-0.7,0.4-1c0-0.3,0,0,0.5,0h0.6l8.5,1c0.8,0,1.1,0.2,1.2,0.3c0.1,0.3,0.1,0.7,0,1l0,0h0.7l1.1-8.3l-3.4-1.2L32.1,306.7z
	"/>
<path class="st0" d="M34.4,298c-0.7-0.2-1.4-0.2-2,0c-0.8,0.3-1.5,0.7-2.2,1.3l-1.3,1c-0.4,0.3-0.8,0.5-1.3,0.7
	c-0.4,0.1-0.8,0.1-1.2,0c-0.4-0.1-0.8-0.3-1-0.7c-0.1-0.3-0.1-0.7,0-1c0.2-0.5,0.5-1,1-1.3c0.8-0.4,1.7-0.6,2.6-0.5l0,0V297
	l-4.3-0.7v0.6l0,0c0,0,0.3,0,0.3,0s0,0,0,0.2c-0.1,0.2-0.3,0.5-0.5,0.7c-0.3,0.3-0.5,0.7-0.6,1.2c-0.2,0.8-0.1,1.6,0.4,2.3
	c0.6,0.7,1.3,1.2,2.2,1.4c0.7,0.2,1.4,0.2,2.1,0c0.4-0.2,0.8-0.4,1.1-0.7l1.3-1c0.5-0.3,1.1-0.6,1.7-0.8c0.5-0.2,1-0.2,1.5,0
	c0.5,0.1,1,0.4,1.3,0.8c0.2,0.4,0.2,0.8,0,1.2c-0.2,0.8-0.9,1.5-1.7,1.7c-0.7,0.2-1.4,0.3-2.1,0.3l0,0v0.6l4.2,0.6v-0.6l0,0h-0.3
	l0,0c0,0,0,0,0.5-0.7c0.3-0.4,0.6-0.9,0.7-1.4c0.3-0.9,0.1-1.8-0.4-2.5c-0.5-0.8-1.3-1.3-2.2-1.6"/>
<path class="st0" d="M39.5,291.7c-0.1,0.4-0.4,0.7-0.7,0.9c-0.4,0-0.8,0-1.2-0.2l-8.6-3.5v-0.6c0.2-0.5,0.5-1,1-1.3
	c0.6-0.1,1.3-0.1,1.9,0l0,0l0.3-0.6l-3.3-1.2l-2.9,8.5l3.3,1.4v-0.6l0,0c-0.6-0.4-1-0.9-1.4-1.5c-0.2-0.5-0.2-1.1,0-1.6v-0.6
	l8.5,3.3c0.5,0.2,0.9,0.4,1.3,0.7c0,0,0,0.4,0,1.1l0,0l0.6,0.2l1.7-4.3l-0.6-0.3L39.5,291.7z"/>
<path class="st0" d="M39,282.6l-1.4,2.6l-3.3-3.4L39,282.6z M44.8,281.1c-0.1,0.2-0.3,0.3-0.5,0.4c-0.4,0.1-0.9,0.1-1.4,0l-11.1-1.7
	l-0.3,0.5l6.7,7c0.6,0.6,1.2,1.3,1.7,2c0.1,0.3,0.1,0.6,0,0.9l0,0l0.6,0.3l1.5-2.9l-0.6-0.3l0,0l-0.4,0.5c0,0-0.3,0-0.6,0l-0.4-0.4
	l-1.6-1.6l1.7-3.2l1.7,0.2h0.7H43c0,0,0.3,0,0.3,0.2c0,0.3,0,0.5,0,0.8l0,0l0.6,0.3l1.9-3.6l-0.6-0.3L44.8,281.1z"/>
<path class="st0" d="M48,274.7c0,1-0.3,2-1,2.7c0,0.3-0.4,0.4-0.4,0.4c-0.1,0-0.3,0-0.4,0l-7.6-5.7c-0.3-0.2-0.3-0.3-0.3-0.4
	c0,0,0,0,0-0.5c0.7-1,1.8-1.7,3-1.8h0.6c1.3,0.1,2.6,0.6,3.6,1.4C46.9,271.6,47.9,273.1,48,274.7 M48.5,271.2
	c-0.5-0.7-1.2-1.3-1.9-1.8c-1.6-1.5-3.9-1.9-6-1.1c-1.1,0.5-2.1,1.3-2.8,2.3l-2.4,3.4l0.5,0.4l0,0c0.4-0.4,0.6-0.6,0.8-0.6
	c0.2,0,0.4,0,1.1,0.6l6.7,4.9c0.7,0.5,0.8,0.7,0.8,0.8c0,0.1,0,0.4-0.3,1l0,0l0.5,0.4l2.6-3.5c0.6-0.8,1-1.7,1.2-2.6
	c0.1-0.5,0.1-1,0-1.5c-0.1-0.9-0.4-1.7-0.9-2.4"/>
<path class="st0" d="M55,268.3c-0.6,0.6-1.6,0.9-2.4,0.6c-1.4-0.4-2.7-1.2-3.6-2.3c-1.1-1-2-2.2-2.4-3.6c-0.3-0.8,0-1.8,0.5-2.4
	c0.4-0.5,1.1-0.8,1.7-0.8h0.6c1.4,0.4,2.7,1.2,3.7,2.3c1.2,0.9,2,2.2,2.4,3.6c0.3,0.8,0.1,1.7-0.5,2.4 M54.5,260.6
	c-1.2-1.3-2.8-2.2-4.5-2.3c-1.4-0.2-2.7,0.4-3.6,1.4c-1,1-1.4,2.3-1.3,3.6c0.3,1.7,1.1,3.3,2.4,4.5c1.1,1.3,2.7,2.1,4.4,2.3h0.6
	c1.2,0,2.4-0.5,3.2-1.3c0.9-1,1.3-2.3,1.2-3.6C56.7,263.4,55.9,261.8,54.5,260.6"/>
<path class="st0" d="M61.6,256.5c-0.8-0.2-1.5-0.3-2.3-0.3h-1.9c-0.5,0.1-0.9,0.1-1.4,0c-0.4-0.1-0.7-0.4-1-0.7
	c-0.3-0.3-0.4-0.7-0.4-1.1c0-0.3,0.2-0.7,0.5-0.9c0.5-0.3,1-0.5,1.6-0.4c0.9,0.2,1.7,0.6,2.3,1.2l0,0l0.5-0.4l-2.9-3.1l-0.5,0.3l0,0
	c0,0.1,0,0.3,0,0.4l0,0c0,0,0,0-0.8,0.2c-0.4,0.1-0.8,0.3-1.2,0.5c-0.7,0.5-1,1.3-1,2.1c0,0.9,0.3,1.7,0.9,2.4
	c0.5,0.6,1.1,1,1.8,1.2c0.4,0.1,0.9,0.1,1.3,0h1.7c0.6-0.1,1.1-0.1,1.7,0c0.5,0.1,1,0.4,1.3,0.8c0.4,0.4,0.6,0.9,0.5,1.5
	c0,0.4-0.2,0.8-0.5,1.1c-0.7,0.5-1.6,0.7-2.4,0.3c-0.7-0.2-1.3-0.6-1.9-1l0,0l-0.5,0.4l3.1,3.1l0.5-0.4l0,0v-0.4l0,0
	c0.3,0,0.6,0,0.8,0c0.5-0.1,1-0.4,1.4-0.7c0.7-0.5,1.2-1.4,1.2-2.3c0-0.9-0.3-1.9-0.9-2.6C62.8,257.2,62.3,256.8,61.6,256.5"/>
<path class="st0" d="M75.4,243.6c-0.3-0.5-0.5-1.1-0.6-1.7c0.1-0.4,0.4-0.7,0.7-0.9l0,0l-0.1-0.7l-3.4,1.6l0.3,0.6l0,0
	c0.4-0.1,0.8-0.1,1.1,0c0.4,0.4,0.8,0.9,1,1.5l2.1,4.4c0.4,0.8,0.7,1.6,0.8,2.4c0.1,1-0.5,1.9-1.5,2.3c-0.8,0.5-1.8,0.3-2.5-0.3
	c-0.5-0.5-1-1.1-1.3-1.8l-2.6-5.3c-0.4-0.7-0.4-1-0.3-1.2c0-0.1,0-0.4,0.8-0.7l0,0l-0.3-0.6l-4.1,1.9v0.6l0,0c0.3-0.1,0.7-0.1,1,0
	c0,0,0.4,0.2,0.7,1l2.5,5.2c0.4,0.9,0.9,1.7,1.7,2.3c0.6,0.5,1.4,0.8,2.1,0.8c0.6,0,1.3-0.2,1.8-0.4c1.4-0.5,2.3-1.9,2.2-3.4
	c-0.1-1-0.4-2-0.9-3L75.4,243.6z"/>
<path class="st0" d="M86.5,237.9c0-0.3,0.4-0.5,0.9-0.7l0,0v-0.6l-3.7,1.1v0.6l0,0c0.3-0.1,0.7-0.1,1,0c0.5,0.5,0.8,1.1,0.9,1.7
	l2,5.2l-7.8-6.3l-2.7,0.8v0.6l0,0h0.6c0.2,0.1,0.4,0.2,0.6,0.4l0,0l3,7.8c0.2,0.6,0.3,1.2,0.3,1.7c-0.2,0.3-0.5,0.6-0.9,0.7l0,0v0.6
	l3.6-1.1v-0.6l0,0c-0.3,0.1-0.7,0.1-1,0c-0.5-0.5-0.8-1.1-0.9-1.7l-2-6.3l8.9,7.4H90l-3-9.4c-0.3-0.6-0.4-1.2-0.3-1.8"/>
<path class="st0" d="M95.9,247h-0.5c-0.2,0-0.4,0-0.6,0c0,0,0-0.3-0.4-1.2l-1.8-8.1c0-0.8,0-1.1,0-1.3s0.3-0.3,1-0.5l0,0v-0.6
	l-4.6,0.9v0.6l0,0c0.5,0,0.9,0,1.1,0s0.3,0.3,0.5,1.1l1.6,8.1c0,0.8,0,1.1,0,1.2c-0.3,0.2-0.6,0.4-1,0.5l0,0v0.6l4.9-0.9L95.9,247
	L95.9,247z"/>
<path class="st0" d="M99.8,246.1h-0.4c0,0,0,0,0-0.5l-0.9-9.4c0-0.3,0-0.4,0-0.5h0.6h0.5c1,0,1.9,0.3,2.7,0.9c1.1,1,1.8,2.5,1.7,4
	c0.3,1.6-0.2,3.3-1.3,4.5c-0.7,0.6-1.7,1-2.7,1.1L99.8,246.1z M102.9,235c-1.1-0.5-2.3-0.7-3.5-0.5l-4.2,0.3v0.7l0,0
	c0.6,0,0.9,0,1,0.2c0.2,0.4,0.3,0.8,0.3,1.2l1,8.2c0,0.8,0,1.1,0,1.2s-0.3,0.3-0.9,0.4l0,0v0.7l4.3-0.4c1-0.1,1.9-0.3,2.8-0.8
	c0.4-0.3,0.8-0.6,1.2-1c0.5-0.7,0.8-1.5,0.9-2.3c0.1-0.9,0.1-1.8,0-2.7c0.1-2.2-1.1-4.2-3.1-5.2"/>
<path class="st0" d="M115.3,240.6c0,1.5-0.4,2.9-1.1,4.2c-0.5,0.8-1.3,1.2-2.2,1.2c-0.9-0.1-1.7-0.6-2-1.5c-0.6-1.3-0.7-2.8-0.5-4.3
	c0-1.5,0.3-2.9,1-4.2c0.4-0.7,1.2-1.2,2.1-1.2l0,0c0.9,0.1,1.6,0.6,2,1.4C115.3,237.6,115.5,239.1,115.3,240.6 M112.6,233.9
	c-1.4-0.1-2.7,0.5-3.5,1.6c-1.2,1.3-1.8,3.1-1.8,4.9c-0.2,1.7,0.2,3.4,1.2,4.9c0.8,1.2,2.1,2,3.5,2h0.2c1.3,0,2.5-0.5,3.3-1.5
	c1.2-1.3,1.8-3.1,1.8-4.9c0.2-1.7-0.3-3.4-1.3-4.9c-0.8-1.1-2-1.8-3.4-1.9"/>
<path class="st0" d="M125.9,235.7c0,0,0,0.3,0,0.3l0,0l0,0l-0.9-0.3c-0.4-0.3-0.8-0.5-1.2-0.6c-0.8-0.2-1.6,0.1-2.3,0.6
	c-0.6,0.6-1.1,1.4-1.2,2.3c-0.3,0.7-0.4,1.5-0.2,2.3c0.2,0.4,0.5,0.7,0.8,1.1l1.1,1.2c0.4,0.4,0.8,0.9,1.1,1.5
	c0.5,1,0.3,2.2-0.5,2.9c-0.3,0.2-0.8,0.3-1.2,0.3c-0.8-0.2-1.5-0.8-1.8-1.6c-0.3-0.7-0.4-1.3-0.5-2l0,0h-0.6l-0.3,4.3h0.6l0,0v-0.4
	l0,0l0.7,0.4c0.4,0.3,0.9,0.5,1.4,0.6h0.7c0.7,0,1.3-0.2,1.8-0.6c1.3-1.1,1.7-2.8,1.2-4.4c-0.4-0.8-0.8-1.5-1.4-2.1l-1.1-1.2
	c-0.3-0.4-0.6-0.8-0.8-1.2c-0.1-0.4-0.1-0.8,0-1.2c0-0.4,0.3-0.8,0.6-1c0.3-0.1,0.7-0.1,1,0c0.5,0.1,1,0.5,1.3,0.9
	c0.5,0.8,0.7,1.7,0.7,2.6l0,0h0.7l0.4-4.3h-0.6L125.9,235.7z"/>
<path class="st0" d="M143.9,254.9c-0.3-0.1-0.6-0.4-0.7-0.6c0,0,0-0.4,0.3-1.2l3.3-7.5c0.1-0.4,0.4-0.7,0.7-1c0.3-0.1,0.7-0.1,1,0
	l0,0v-0.6l-3-1.3l-5.9,6.9l0.6-9.7l-3-1.3l-0.2,0.6l0,0c0.6,0.3,0.8,0.5,0.8,0.7c0,0.4-0.1,0.8-0.3,1.2l-3.1,6.9
	c-0.2,0.6-0.5,1.1-0.9,1.5c-0.4,0.2-0.8,0.2-1.2,0l0,0l-0.2,0.6l3.5,1.5l0.2-0.6l0,0c-0.5-0.3-0.7-0.5-0.7-0.7
	c0-0.7,0.1-1.3,0.5-1.8l2.6-5.9l-0.6,9.7h0.4l6.8-7l-3,6.8c-0.2,0.4-0.4,0.9-0.7,1.2c-0.3,0.1-0.7,0.1-1.1,0l0,0v0.6l4.1,1.8
	l0.3-0.6L143.9,254.9z"/>
<path class="st0" d="M152.8,257.2L152.8,257.2c-0.5,0.5-1.2,0.9-2,1l0,0c-0.7-0.1-1.4-0.4-2-0.8c-0.5-0.3-0.9-0.6-1.3-1
	c0,0,0-0.3,0-0.5l2.4-3.7l1.2,0.8c0.6,0.4,0.7,0.6,0.8,0.8c0,0.5-0.2,0.9-0.4,1.4l0,0l0.6,0.3l2.5-3.9l-0.6-0.3l0,0
	c-0.3,0.4-0.6,0.7-1,0.9c-0.2,0-0.6,0-1.1-0.3l-1.2-0.8l2.1-3.4c0,0,0-0.3,0.2-0.3h0.2l1.7,1.1c0.9,0.5,1.1,0.9,1.2,1.1
	c0,0.5-0.1,1.1-0.3,1.6l0,0l0.6,0.4l1.6-2.6l-7.3-3.8l-0.4,0.5l0,0c0.3,0.2,0.5,0.5,0.6,0.8c0,0.4-0.2,0.8-0.5,1.1l-4.4,6.9
	c-0.4,0.7-0.7,0.9-0.8,0.9c-0.3,0.1-0.7,0.1-1,0l0,0l-0.3,0.6l7,4.5l2.5-2.6L152.8,257.2z"/>
<path class="st0" d="M159.9,266.7c-0.2-0.2-0.3-0.5-0.4-0.8c-0.1-0.4-0.1-0.8,0-1.2l1.1-5.6l3.7-1.2c0.6-0.2,1.3-0.3,1.9-0.3
	c0.3,0.1,0.6,0.2,0.8,0.4l0,0l0.4-0.5l-2.9-2.5l-0.4,0.5l0,0l0.4,0.5c0.1,0.1,0.1,0.3,0,0.4h-0.2c-0.3,0.2-0.6,0.3-0.9,0.3l-2.6,0.8
	l0.5-2.8v-0.4c0-0.2,0-0.3,0-0.5c0,0,0.2,0,0.4,0c0.1,0,0.2,0,0.6,0.4l0,0l0.4-0.5l-3.7-3.1l-0.4,0.5l0,0c0.3,0.3,0.5,0.6,0.5,1
	c0,0.9-0.2,1.9-0.4,2.8l-0.7,3.3l-3.9,1.2l-2,0.5c-0.3,0-0.6-0.1-0.8-0.3l0,0l-0.4,0.5l2.9,2.4l0.4-0.5l0,0v-0.3
	c-0.1-0.1-0.1-0.3,0-0.5c0.2-0.1,0.3-0.3,0.5-0.3l1-0.3l2.8-0.9c-0.3,1.9-0.6,3.1-0.7,3.5c-0.1,0.3-0.2,0.6-0.3,0.9h-0.3
	c-0.3-0.1-0.5-0.3-0.7-0.4l0,0l-0.4,0.5l3.6,3L159.9,266.7L159.9,266.7z"/>
<path class="st0" d="M163.9,268.4l5.9-5.7c0.6-0.5,0.9-0.7,1.1-0.7c0.2,0,0.4,0,0.9,0.6l0,0l0.5-0.4l-3.5-3.4l-0.5,0.5l0,0
	c0.4,0.5,0.5,0.8,0.5,1c0,0.1,0,0.4-0.7,1l-6,5.7c-0.6,0.6-0.9,0.7-1,0.7s-0.4,0-0.9-0.5l0,0l-0.5,0.4l3.3,3.4l0.5-0.4l0,0
	c-0.5-0.5-0.6-0.8-0.6-1s0-0.4,0.8-1"/>
<path class="st0" d="M170.9,277.3L170.9,277.3v-0.7l0,0c-0.5,0.1-1.1,0.1-1.6,0c-0.7-0.2-1.3-0.6-1.7-1.2c-0.6-0.8-0.8-1.9-0.5-2.8
	c0.5-1.3,1.3-2.4,2.5-3.2c1.1-0.9,2.4-1.6,3.8-1.8c1-0.2,2,0.2,2.7,1c0.6,0.8,0.7,1.8,0.3,2.7c-0.3,0.6-0.6,1.2-1.1,1.7l0,0l0.4,0.5
	l3.4-2.9l-0.3-0.5l0,0c-0.1,0-0.3,0-0.4,0h-0.3l-0.3-0.9c-0.2-0.6-0.5-1.1-0.8-1.6c-0.9-1.2-2.3-1.9-3.8-1.8l0,0
	c-1.7,0.1-3.2,0.7-4.5,1.7c-1.3,1-2.2,2.3-2.7,3.8c-0.4,1.5-0.1,3.1,0.8,4.3c0.7,0.8,1.6,1.3,2.6,1.6h1.3h0.6"/>
<path class="st0" d="M179.9,278l-3.1,3.5l-1.5-2.5L179.9,278z M175.1,287.3c-0.1-0.2-0.1-0.5,0-0.7c0.2-0.4,0.5-0.8,0.8-1.1l7.5-8.5
	l-0.2-0.5l-9.7,1.9c-0.9,0.2-1.7,0.4-2.6,0.4c-0.3,0-0.6-0.2-0.8-0.4l0,0l-0.6,0.3l1.7,2.8l0.6-0.3l0,0c0-0.2,0-0.4,0-0.6
	c0-0.2,0.2-0.4,0.3-0.5h0.6l2.1-0.5l1.8,3.2l-1.2,1.3c-0.2,0.2-0.3,0.4-0.5,0.5c-0.1,0.1-0.2,0.2-0.3,0.3c0,0-0.3,0-0.3,0
	c-0.2-0.2-0.4-0.4-0.5-0.6l0,0l-0.5,0.3l2,3.5l0.6-0.3L175.1,287.3z"/>
<path class="st0" d="M188.8,292.3c0.4,0.2,0.6,0.4,0.8,0.8l0,0l0.6-0.2l-1.4-3.5l-0.6,0.2l0,0c0,0.6,0,0.9,0,1s-0.5,0.5-1.6,1
	l-5.2,2.1l5.8-8.2l-1-2.6l-0.7,0.3l0,0c0.1,0.2,0.1,0.4,0,0.6c-0.1,0.2-0.2,0.4-0.3,0.6l0,0l-7.5,3.1c-0.5,0.3-1.1,0.4-1.7,0.4
	c-0.3,0-0.6-0.3-0.8-0.8l0,0l-0.6,0.2l1.4,3.5l0.6-0.2l0,0c-0.1-0.3-0.1-0.7,0-1c0.5-0.4,1.1-0.7,1.8-0.8l6.2-2.5l-6.7,9.4l0,0v0.4
	l9.2-3.7c0.5-0.3,1.1-0.4,1.7-0.4"/>
<path class="st0" d="M182.3,304.5c-0.9-0.2-1.5-0.9-1.7-1.7c-0.2-0.9,0.1-1.8,0.8-2.4c1.1-1,2.4-1.6,3.9-1.8
	c0.9-0.2,1.8-0.4,2.7-0.4c0.6,0,1.1,0.1,1.7,0.2c1.3,0.3,2.1,1.5,1.8,2.8c-0.1,0.5-0.4,1-0.8,1.3c-1.1,1-2.5,1.6-4,1.9
	C185.3,304.8,183.7,304.8,182.3,304.5 M184.9,306.5c0.8,0,1.5-0.1,2.2-0.3c1.7-0.3,3.3-1.3,4.4-2.6c0.8-1.1,1.1-2.5,0.8-3.8
	c-0.3-1.3-1.2-2.4-2.5-3c-1.6-0.7-3.4-0.9-5.1-0.3c-1.6,0.3-3.1,1.2-4.2,2.5c-0.9,1.1-1.3,2.5-1,3.9c0.4,1.3,1.2,2.3,2.4,3
	C182.9,306.3,183.9,306.5,184.9,306.5"/>
<path class="st0" d="M194.5,312.8L194.5,312.8h-0.4c0,0,0,0,0-0.2c0-0.3,0-0.5,0-0.8c0.1-0.4,0.1-0.9,0-1.3c0.1-0.9-0.3-1.7-1-2.2
	c-0.7-0.5-1.7-0.7-2.5-0.5c-0.7,0.1-1.4,0.4-1.9,0.9c-0.3,0.3-0.6,0.7-0.8,1.1l-0.8,1.4c-0.3,0.5-0.7,1.1-1.1,1.6
	c-0.4,0.4-0.9,0.6-1.4,0.6c-0.5,0.1-1.1,0-1.5-0.3c-0.3-0.2-0.6-0.6-0.6-1c-0.1-0.9,0.3-1.7,1-2.2c0.6-0.4,1.2-0.8,1.8-1.1l0,0V308
	l-4.2,1v0.6l0,0h0.4l0,0c0,0.3,0,0.6,0,0.9c-0.1,0.5-0.1,1,0,1.5c0.1,0.9,0.5,1.7,1.3,2.2c0.6,0.4,1.4,0.7,2.1,0.6h0.5
	c0.7,0,1.4-0.3,1.9-0.7c0.6-0.6,1.1-1.3,1.6-2l0.8-1.4c0.2-0.4,0.5-0.8,0.9-1.1c0.3-0.3,0.7-0.5,1.1-0.5c0.4-0.1,0.8,0,1.2,0.3
	c0.3,0.2,0.5,0.5,0.5,0.9c0,0.6-0.2,1.1-0.5,1.6c-0.6,0.7-1.4,1.2-2.2,1.4l0,0v0.7l4.2-0.9L194.5,312.8z"/>
<path class="st0" d="M105.6,400.1c-0.5,0-1-0.3-1.1-0.7c-0.5-1.7-0.5-3.6,0-5.3c0.1-0.5,0.5-0.9,1-1c0.6,0,1.1,0.3,1.2,0.9
	c0.2,1.7,0.2,3.4,0,5.1c-0.2,0.6-0.7,1-1.3,1"/>
<path class="st0" d="M110.5,399.9c-0.5,0.2-1.1-0.1-1.2-0.6c0-0.1,0-0.1,0-0.2v-4.3c-0.1-0.5,0.1-1.1,0.4-1.5
	c0.2-0.3,0.5-0.4,0.8-0.4c0.8,0,1.4,0.6,1.4,1.4c0,0,0,0.1,0,0.1v4.1c0.1,0.4,0,0.7-0.3,1C111.3,399.7,111,399.9,110.5,399.9"/>
<path class="st0" d="M95,403.3h-0.7c-0.4-0.1-0.8-0.5-0.8-1c0-0.4,0.2-0.8,0.6-0.9h0.6c0.5-0.2,1.1,0.2,1.3,0.7
	c0.1,0.3,0,0.6-0.1,0.8C95.7,403.3,95.3,403.4,95,403.3"/>
<path class="st0" d="M120.2,403.6c-0.3,0.1-0.7,0-0.9-0.3c-0.1-0.3-0.1-0.6,0-0.9c0.2-0.5,0.7-0.9,1.2-1h0.4c0.5,0,0.8,0.4,0.8,0.8
	c0,0.5-0.3,1-0.8,1.2c-0.2,0.1-0.4,0.1-0.6,0"/>
<path class="st0" d="M97.6,401.3h-0.5l-1.2-0.8c-0.1-0.1-0.1-0.3,0-0.4c1.6-1.5,3.7-2.5,5.9-2.7l0,0c0.5,0,0.7,0.3,0.8,0.6
	c0.1,0.6-0.2,1.1-0.7,1.4c-1.3,0.1-2.5,0.7-3.5,1.5c-0.2,0.3-0.6,0.5-1,0.6"/>
<path class="st0" d="M117.9,401.6c0,0,0,0-0.3,0c-1.1-1-2.5-1.8-4-2.1c0,0-0.4,0-0.4-0.5c0-0.5,0-1.3,0-1.4c2.3,0.1,4.5,1.1,6.2,2.7
	v0.3v0.2l-1.2,0.8L117.9,401.6z"/>
<path class="st0" d="M114,410.5c-0.3,0-0.5-0.1-0.7-0.3c-1.6-0.9-3.2-1.6-4.9-2.3c-0.4-0.2-0.5-0.7-0.4-1.1c0.2-0.6,0.7-1.1,1.4-1.2
	h0.4c0.8,0.5,1.6,0.9,2.5,1.2c1,0.3,1.9,0.8,2.7,1.4c0.2,0.1,0.4,0.3,0.4,0.5c0,0.1,0,0.3,0,0.4l-0.7,1
	C114.5,410.3,114.3,410.4,114,410.5"/>
<path class="st0" d="M95.5,409h-0.2c0,0,0-0.3,0-0.7c0-2.6,2.5-4.1,4.9-5.8l2.4-1.7c0.2-0.2,0.5-0.3,0.8-0.3c0,0,0.2,0,0.3,0
	l1.3,0.7c0,0,0.3,0,0.3,0.3c0,0.2-0.1,0.3-0.2,0.4c-0.8,0.7-1.7,1.3-2.6,1.8c-1.6,0.8-3,2-4,3.5C97.7,408.2,96.7,408.8,95.5,409
	L95.5,409z"/>
<path class="st0" d="M102.5,410.3H102l-1.2-1c-0.4-0.5-0.4-1.1,0.3-1.8c1-1,2.1-1.8,3.3-2.5c1.2-0.8,2.4-1.7,3.4-2.7
	c0.3-0.4,0.7-0.7,1.3-0.8h0.3h0.9c0.4,0,0.9,0,1,0c0.1,0-0.4,1.1-0.5,1.4c-1.2,1.4-2.6,2.7-4.2,3.6c-1.4,0.8-2.6,1.9-3.5,3.2
	c0,0.5-0.4,0.6-0.6,0.6"/>
<path class="st0" d="M120.2,408.2h-0.8c-0.6-0.1-1.1-0.5-1.5-0.9c-0.6-0.6-1.2-1.1-2-1.4l-1.7-0.5c-0.7-0.3-1.4-0.6-2.1-0.9
	c-0.3-0.1-0.5-0.3-0.5-0.6c0-0.4,0.3-1,0.7-1.5c0.4-0.5,0.3-0.4,0.5-0.4c0.2,0,0.4,0,0.6,0c0.7,0.5,1.5,0.9,2.4,1.3
	c2.3,0.8,4.3,2.2,5.7,4.2c0,0.1,0,0.3,0,0.4c-0.1,0.1-0.2,0.2-0.3,0.2H120"/>
<path class="st0" d="M86.2,398.5c1.2,0,1.9,0,2.2,0.7c0.1,0.4,0,0.9-0.2,1.3c-0.3,0.5,0,0.8,0,0.9c0.1,0.1,0.3,0.1,0.4,0
	c0.6,0,1.4-0.7,1.8-2c0-0.5,0.6-0.9,1.6-1.1c0.5-0.3,0.8-0.8,0.7-1.4c0-0.4-0.3-0.7-0.6-0.7c-0.2,0-0.3,0.1-0.4,0.2
	c-0.4,0.4-0.9,0.7-1.5,0.8h-0.6c-1,0.2-2-0.3-2.6-1.2l-1.6-2.6c-0.2-0.3-0.4-0.5-0.6-0.5l0,0l0,0c-0.1,0.3-0.1,0.7,0,1l0.8,1.6
	c0.1,0.2,0.1,0.4,0,0.6c0,0-0.4,0.3-0.7,0.3l0,0c-2.5,0-4.8-1.3-6-3.4c0-0.3-0.5-0.5-0.7-0.5l0,0l0,0c-0.1,0.2-0.1,0.5,0,0.8
	l0.8,1.2c0.3,0.3,0.3,0.5,0.2,0.6c-0.1,0-0.3,0-0.4,0c-2.2,0-4.3-0.8-6-2.3c-0.2-0.1-0.5-0.1-0.7,0c-0.3,0.3-0.3,0.4,0,0.7l0.3,0.7
	c0,0.2,0,0.3,0,0.5c0,0-0.2,0-0.5,0l-3.3,0.4c-0.5,0-0.8,0-0.8,0.4c0,0.4,0.4,0.5,1.2,0.4c2.5-0.3,5-0.2,7.5,0.4c0,0,0.3,0,0.4,0
	c0.1,0.2,0.1,0.3,0,0.5l-1.2,1.3c-0.3,0.3-0.5,0.6-0.4,0.8c0.1,0.1,0.3,0.1,0.5,0h0.4c1.3-1,2.9-1.7,4.6-1.9c0.4-0.1,0.8-0.1,1.2,0
	c0.3,0,0.5,0.2,0.6,0.4c0.1,0.3,0.1,0.6,0,0.8l-1.2,2.4c0,0.4,0,0.7,0,0.8l0,0c0.3,0,0.5-0.2,0.7-0.3c1.1-1.3,2.4-2.7,3.8-2.8
	L86.2,398.5z M85.5,405c-0.4,0.1-0.7-0.1-0.9-0.4c-0.1-0.2-0.1-0.5,0-0.7l1.2-2c0.1-0.2,0.1-0.5,0-0.7c-0.2-0.1-0.3-0.1-0.5,0
	c-0.5,0.1-0.9,0.3-1.2,0.7c-1.2,1.5-3,2.4-4.9,2.7c-0.5,0-0.9,0-1.4,0c-0.5,0-0.8-0.2-0.9-0.6c0-0.3,0-0.6,0.3-1l1.5-1.8
	c0-0.4,0-0.7,0-0.8l0,0h-0.3h-0.5l-3.6,1.7c-0.4,0.2-0.7,0.3-1.1,0.3c-0.7,0.1-1.5-0.2-1.9-0.8c-0.2-0.1-0.3-0.3-0.3-0.5h0.2
	c0.6-0.4,1.2-1,1.6-1.6c0.1-0.2,0.1-0.5,0-0.7c0,0-0.3-0.3-0.8-0.3l-3.5,0.4c-1.4,0.3-2.9,0.1-4.2-0.4c-0.3-0.2-0.5-0.5-0.5-0.9
	c0-0.4,0.4-0.8,1.2-1.3l3.6-1.4c0.3-0.1,0.5-0.3,0.7-0.6c0-0.3-0.1-0.5-0.3-0.7c0,0,0-0.4,0-0.6c0.1-0.2,0.3-0.4,0.5-0.5
	c0.4-0.3,0.9-0.4,1.4-0.5c1.5,0.1,2.9,0.7,4,1.7c0.2,0.1,0.4,0.2,0.6,0.2c0.2-0.2,0.2-0.6,0-0.9l-0.4-1.5c0-0.3,0-0.6,0-0.8
	c0.2-0.2,0.4-0.3,0.6-0.3c1.9,0,3.6,0.9,5.6,3.3c0.2,0.3,0.6,0.5,1,0.6l0,0h0.2c0.1-0.4,0-0.8-0.2-1.1l-0.6-1.4
	c-0.1-0.3-0.1-0.6,0-0.9c0.2-0.3,0.6-0.5,1-0.5h0.8c1.3,0,2.1,0.2,2.3,1.1l1.8,3.1c0.2,0.4,0.6,0.6,1,0.6c0.4,0,0.7-0.3,1.1-0.9
	c0.4-0.6,0.4-0.6,0.6-0.6s1.6,0.5,2.9,1.7c0.5,0.5,1.1,0.7,1.7,0.7c0.4,0,0.8-0.1,1.1-0.3c1.4-0.7,3-1.1,4.5-1.2
	c0.6-0.1,1.3-0.1,1.9,0c0.5,0.1,0.8,0.5,0.7,0.9c0,0,0,0,0,0c0,0.5-0.7,1.1-1.9,1.2h-1.3c-1.9,0.5-3.7,1.4-5.1,2.6
	c-0.4,0.4-1,0.6-1.6,0.6c-0.3,0-0.6,0.1-0.9,0.3c-0.6,0-1.2,0.8-1.9,1.7c-1.1,1.7-2.9,3-4.9,3.5"/>
<path class="st0" d="M56.2,386c0.8,0,1.4,0,1.6,0.5c0,0.2,0,0.3,0,0.5c0,0.4,0,1,0.7,1h2.8c0.3,0,0.4,0,0.5-0.2s0-0.3,0-0.6
	c-0.5-1.1-0.9-1.3-1.4-1.3h-0.3c-0.3,0.1-0.6,0.1-0.8,0c-1.2-0.6-1.7-2.6-1.6-6c0.1-0.3,0.1-0.6,0-0.8l0,0c-0.3,0-0.4,0-0.5,0.8
	l-0.6,1.3c0,0.7-0.3,0.7-0.4,0.8h-0.5c-1.5-0.9-2.5-2.4-2.8-4.2c0-0.7,0-4.2-1.1-2c-0.4,0.3-1.2-1.1-1.7-2.1c-0.5-1-0.3-0.6-0.5-0.6
	c-0.2,0.2-0.4,0.5-0.3,0.8c0.1,0.4-0.1,0.7-0.3,1c-0.3,0-0.6,0.3-0.6,0.5c0,0.2,0,0.3,0.7,0.4c0.7,0.1,2.1,1.5,3.1,3.9
	c0.1,0.1,0.1,0.3,0,0.4h-3.4h-0.3c-0.4,0-0.5,0-0.5,0.3c0,0.3,0.4,0.6,0.9,0.7l3.4,0.5c1.1,0,2.2,0.7,2.7,1.7c0.2,0.4,0.3,0.8,0.2,1
	c-0.1,0.2-0.2,0.3-0.3,0.3c-1.2,0.4-2.5,0.7-3.8,1c-0.5,0-0.8,0-0.8,0.4c0,0.4,0,0.4,0.9,0.7c0.5,0.1,0.9,0.1,1.4,0
	c0.7-0.1,1.3-0.2,1.9-0.3C55,386.1,55.6,386,56.2,386 M67.5,391.9c-0.2,0.1-0.5,0.1-0.7,0c-2-1.8-4.7-2.6-7.4-2.3
	c-1.1,0.1-2.1,0.3-3.2,0.6c-0.2,0-0.4-0.1-0.5-0.3c-0.1-0.3-0.1-0.7,0-1c0-0.6-0.2-0.9-0.8-0.9h-0.5H53c-2.5,0.6-5.1-0.5-6.4-2.7
	c-0.1-0.2-0.1-0.4,0-0.6c0,0,0,0,0.5,0l4.4-0.5c0.4,0,0.7-0.3,0.7-0.7c0,0,0-0.1,0-0.1c0,0,0-0.6-0.6-0.7c-4.4-0.7-7-2-7.8-3.9
	c-0.1-0.2-0.1-0.5,0-0.7c0,0,0.3,0,0.7,0l3.4,0.3c0.5,0,0.8,0,0.8-0.3c0-0.3,0-0.4-0.6-0.7l-3.4-1.8c-0.3-0.2-0.4-0.5-0.3-0.9
	c0-0.3,0.5-0.5,1.1-0.6h1.3c0.4,0,0.8-0.1,1-0.4c0.4-0.4,0.4-1.1,0.3-2.1v-1c0-0.7,0-1.2,0.4-1.2s0.7,0,1.7,1.7
	c0.5,0.6,0.9,1,1.2,0.9s0.6-0.7,0.9-1.8s0.4-0.6,0.4-0.6c0.3,0,0.6,0.1,0.8,0.3c1.4,0.8,1.4,4.2,1.2,7.4c-0.1,0.2-0.1,0.5,0,0.7
	c0.2,0.1,0.3,0.1,0.5,0c0,0,0.6,0,0.7-1l0.5-2.1c0-0.6,0.4-0.9,0.8-0.9c0.5,0,0.9,0.2,1.2,0.5c1.3,1.1,1.6,3,1.5,7.4
	c0,0.3,0.1,0.6,0.3,0.8c0.1,0,0.3,0,0.4,0c0.3,0,0.7-0.3,1-1c0.2-0.7,0.3-0.4,0.3-0.4s0.3,0,0.5,0.7c0.3,3.4,2,6.5,4.9,8.5
	c0.3,0.2,0.4,0.6,0.2,0.9c-0.1,0.2-0.2,0.3-0.4,0.4"/>
<path class="st0" d="M66.5,383.9c-0.4,0-0.8-0.3-0.9-0.7c-0.1-0.3,0-0.7,0.2-0.9c0.4-0.3,0.9-0.5,1.4-0.6c0.4-0.1,0.7,0.1,1,0.3
	c0.3,0.2,0.4,0.6,0.3,0.9C68,383.6,67.3,384,66.5,383.9L66.5,383.9z"/>
<path class="st0" d="M58.2,394.5h-0.5c-0.5-0.2-0.8-0.7-0.9-1.3c0-0.5,0.2-0.9,0.5-1.2h0.8c0.7,0,1.1,0.5,1.3,1.6
	c0,0.3-0.1,0.5-0.2,0.7c-0.3,0.2-0.6,0.4-1,0.4"/>
<path class="st0" d="M69.4,390.2c-0.3,0-0.9-0.4-1.6-1.5c-0.4-0.8-1.1-1.4-1.9-1.7c-0.5-0.2-0.8-0.7-0.7-1.3
	c0.1-0.4,0.5-0.8,0.9-0.8h0.4c0.7-0.1,1.3-0.2,1.9-0.5H69c0.4-0.1,0.9,0.2,1,0.6c0.1,0.4,0,0.8-0.2,1.1c-0.6,0.4-0.9,1.1-0.7,1.8
	c0.4,0.7,0.6,1.4,0.5,2.2L69.4,390.2z"/>
<path class="st0" d="M61.3,395.1c-0.4,0.1-0.8-0.2-0.9-0.6c0-0.7-0.1-1.4-0.4-2.1c-0.3-0.5-0.3-1,0-1.5c0.1-0.3,0.4-0.5,0.8-0.5
	c0.3,0,0.7,0.1,0.9,0.2c0.6,0.6,1.4,0.9,2.2,0.8c0.7-0.1,1.4,0,1.9,0.4c0.3,0,0.3,0.4,0.3,0.5h-0.7l0,0c-1.1,0-2.2,0.6-2.7,1.7
	c-0.2,0.5-0.7,0.9-1.2,0.9"/>
<path class="st0" d="M36.1,364.1c-0.3,0-0.5,0-0.5,0.4c0,0.4,0,0.4,0.5,0.4c1.3,0,2.5,0,3,0.6c0.1,0.2,0.3,0.3,0.5,0.3l0,0v-0.2
	c0.1-0.2,0.1-0.5,0-0.7c-0.6-0.7-0.4-1.6,0.6-2.9c0.2-0.2,0.3-0.5,0.3-0.8l0,0h-0.3h-0.4c-0.2,0-0.5,0-0.7,0c-0.5,0.1-1-0.1-1.3-0.5
	c-0.5-1-0.5-2.1,0-3.1c0.5-1.5,1.1-3.1,1.6-4.9c0-0.3,0-0.6,0-0.8l0,0c-0.3,0-0.5,0.3-0.6,0.5c-0.4,0.9-0.7,1.7-1,2.4
	c-0.2,0.7-0.8,2.1-1.2,2.1c-0.4,0-1.4-1.2-2-2.1c-0.6-1.2-0.6-2.6,0-3.8c0.1-0.2,0.1-0.5,0-0.7h-0.3c0,0-0.3,0-0.4,0.4
	c-0.1,0.4-0.7,1-0.9,1.1c-0.2,0-0.8-0.5-1.4-1.2c-0.1-0.1-0.3-0.2-0.5-0.2c-0.3,0-0.5,0.2-0.6,0.4c-0.2,0.3-0.2,0.6,0,0.9l0.3,0.2
	c0.5,0.5,1.5,1.5,1.4,1.7l0,0c-0.5,0.1-1,0.1-1.5,0h-0.5c-0.3,0-0.4,0.2-0.4,0.4s0,0.4,0.6,0.5c2.9,0.2,5.1,2.5,4.9,3.8
	c0,0.5-0.4,0.7-1,0.8c-0.7,0-1.4-0.1-2-0.3h-0.2c-0.2,0-0.4,0.2-0.5,0.4c0,0,0,0.5,0.7,0.6c3.1,0,5.3,1.9,5.2,3.1
	C37.6,364,36.8,363.9,36.1,364.1L36.1,364.1z M46.1,372.6h-0.6c-1.8-0.9-3.5-2.2-4.9-3.7c-0.7-1.3-2-2.2-3.4-2.3c-2-0.1-4-1-5.3-2.5
	c-0.2-0.3,0-0.5,0-0.5s0,0,0.5,0h1.5c0.5,0,0.6-0.2,0.6-0.3c0-0.1-0.3-0.7-0.9-0.8c-4-0.7-6-1.8-6.2-3.5c0-0.4,0-0.7,0-0.8
	s0.3,0,0.7-0.3h1.2c0.3-0.1,0.5-0.4,0.4-0.7c0-0.1,0-0.1-0.1-0.2c0,0,0-0.3-0.8-0.6c-1.3-0.4-2.5-1.2-3.4-2.2
	c-0.2-0.4-0.2-0.9,0-1.3c0.1-0.3,0.4-0.4,0.7-0.4c0.2,0,0.4,0,0.6,0c0.3,0.1,0.6,0.1,0.9,0c0.2,0,0.4-0.1,0.5-0.3
	c0-0.3,0-0.9-0.6-1.5c-0.1-0.3-0.1-0.6,0-0.9c0.2-0.3,0.6-0.4,0.9-0.4c0.3,0,0.5,0,0.8,0c0.6-0.1,1.1-0.4,1.5-0.8
	c0.2-0.1,0.3-0.2,0.5-0.2c0.3,0,0.7,0,1,0.7c0.3,0.7,0.6,1.3,1.2,1.2c0.5,0,0.6,0,0.8-1s0.5-1.5,1-1.5c0.2,0,0.5,0.1,0.7,0.2
	c0.9,0.5,0.9,1.9,0,4.4c-0.1,0.3-0.1,0.6,0,0.9l0,0h0.3c0.4,0,0.9-0.6,1.2-1.4c0-1.8,0.8-2.8,1.7-2.9h0.6c0.6,0.1,1.1,0.4,1.4,0.9
	c0.7,2.3,0.5,4.7-0.5,6.8c-0.2,0.4-0.2,0.8,0,1.2c0.2,0.1,0.4,0.1,0.5,0c0.3-0.1,0.6-0.2,0.8-0.5c0.3-0.3,0.7-0.6,1.1-0.7
	c0.2-0.1,0.3-0.1,0.5,0c0.4,0.8,0.4,1.8,0,2.6c-2.7,3.3-2.2,8.2,1.2,10.9c0.5,0.4,1.1,0.8,1.7,1c0.3,0.2,0.4,0.6,0.4,1
	C46.5,372.6,46.3,372.7,46.1,372.6"/>
<path class="st0" d="M45.2,369.9c0,0-0.4,0-0.5-0.5c0-2.2-0.5-3.5-1.2-4c-0.2-0.4-0.2-1,0-1.4c0.1-0.2,0.4-0.4,0.7-0.4h0.4
	c0.9,0.4,1.8,0.6,2.7,0.6c0.5,0,0.9,0.4,1,0.8c0.1,0.4-0.1,0.7-0.4,0.9c-1.2,0.2-2.1,1.3-1.9,2.5c0,0,0,0.1,0,0.1
	C46,369.4,45.6,369.8,45.2,369.9"/>
<path class="st0" d="M46.8,362.8h-0.6c-0.7,0-1.1-0.4-1.2-1c0-0.5,0.4-1,0.9-1.2h0.7c0.4-0.1,0.8,0,1.1,0.3c0.3,0.3,0.4,0.8,0.3,1.2
	C47.8,362.6,47.3,362.9,46.8,362.8"/>
<path class="st0" d="M35.9,372.2c-0.5,0.1-1-0.3-1.1-0.8c-0.3-0.5-0.3-1.2,0-1.7c0.2-0.3,0.5-0.6,0.9-0.6c0.6,0,1.1,0.4,1.2,1
	c0.2,0.4,0.2,0.9,0,1.4c-0.2,0.3-0.5,0.5-0.9,0.6"/>
<path class="st0" d="M38.4,373.8c-0.3,0-0.6-0.1-0.8-0.3c-0.1-0.2-0.1-0.5,0-0.7c0.2-0.9,0.2-1.8,0-2.7c0-0.6,0.5-1.2,1.1-1.3
	c0.4,0,0.8,0.2,1,0.6c0.3,0.8,0.9,1.4,1.7,1.7c1.4,0.7,1.7,1.3,1.7,1.6c-0.2,0.1-0.4,0.1-0.5,0c-0.2,0-0.3,0-0.5,0
	c-0.5-0.3-1.1-0.4-1.7-0.4c-0.4,0-0.8,0.2-1,0.6c-0.3,0.4-0.8,0.6-1.3,0.7"/>
<path class="st0" d="M24.5,329.4c0,0,0,0.3,0,0.8c1,1.6,2,3.4,1.7,4.4c-0.1,0.3-0.4,0.5-0.7,0.6c0,0-0.6,0-0.7,0.3
	c0,0.2,0,0.5,0.2,0.6c0.3,0.3,0.6,0.5,1,0.6c0.7,0.3,1.2,0.6,0.8,1.6v1.1c0.3,0.5,0.8,0.7,1.4,0.8c0.3,0,0.5-0.2,0.6-0.5
	c0.1-0.6-0.2-1.2-0.7-1.6c-0.4,0-0.6-0.2-0.6-0.4c0-0.2,0-0.5,0.7-1.1c1.4-1.6,1.5-1.8,1.4-2l0,0l0,0l-0.6,0.2h-0.5
	c-0.7,0-1-0.3-1-1.5c0-1.2,0-1.7,0.9-2.2c1.6-1,1.8-1.3,1.7-1.6c0-0.3-0.3-0.3-1.1-0.2h-0.5l0,0c0,0,0-0.3,0-0.6
	c0.1-1.3,0.7-2.4,1.7-3.3c0.2-0.3,0.5-0.7,0.4-1c-0.1-0.3-0.5-0.2-0.8,0c-0.7,0-1.4,0.3-1.8,0.9c-0.3,0.5-0.5,1.1-0.4,1.7l-0.4,2.6
	c0,0.4,0,0.8-0.5,0.9c-0.2,0-0.4,0-0.5,0c-0.9-0.8-1.2-0.9-1.3-0.9l0,0L24.5,329.4z M31.2,347.8h-0.4c-0.8-0.4-1.3-1.2-1.5-2.1
	c-0.7-3.4-1.5-4.4-2.5-4.9s-1.8-1.5-1.8-1.9c0-1.4-0.6-1.8-1.3-2c-1.4-0.2-2.5-1.2-2.9-2.5c-0.2-0.6-0.2-1.2,0-1.8
	c0.1-0.1,0.3-0.2,0.4-0.2c0.6,0.1,1.1,0.3,1.7,0.6h0.4c0.1,0,0.3-0.1,0.3-0.2c0.2-0.4,0.2-0.8,0-1.2l-1.1-2
	c-0.6-0.9-0.4-2.1,0.3-2.9c0.6-0.8,1-1,1.2-1c0.1-0.1,0.2-0.1,0.3,0c0.8,1.3,1.2,1.4,1.4,1.4c0.2,0,0.5-0.9,0.5-1.2
	c0-2,0.6-4.5,1.9-4.6c0.2-0.1,0.5-0.1,0.7,0c0.3,0.3,0.7,0.4,1.2,0.4c0.8-0.2,1.5-0.6,2-1.3h0.5c0,0,0.5,0,0.7,0.8
	c0.4,1.5-0.1,3.1-1.3,4.2c-0.4,0.6-0.5,1-0.4,1.2c0.1,0.3,0,0,0.4,0c0.6-0.2,1.2-0.4,1.8-0.8c0.2-0.1,0.3-0.2,0.5-0.2
	c0,0,0.4,0.2,0.5,0.9c0.3,1.7-1,3.2-4.1,4.9c-0.4,0.1-0.6,0.5-0.6,0.9c0,0.3,0.3,0.5,0.6,0.5c0,0,0,0,0.1,0c0.2,0.1,0.4,0.1,0.6,0
	c0.5-0.4,1.1-0.7,1.7-0.8c0.4-0.1,0.8,0.1,1,0.5c0,0.5,0,1.5-1.2,2.6c-1.2,1.1-1.1,1.6-1.7,1.8c-0.6,0.2-0.6,0.3-0.6,0.6
	s0,0.4,0,0.7s0.4,0.9,0,1.6c-1.2,1-1.1,3.3,0.3,6.8C31.3,346.6,31.4,347.2,31.2,347.8c0,0.1-0.1,0.2-0.3,0.2"/>
<path class="st0" d="M36.1,339.8c-0.4,0.1-0.8,0.1-1.2,0c-0.4-0.2-0.5-0.7-0.4-1.1c0-0.6,0.4-1.2,1.1-1.3c0.9,0,1.4,0,1.6,0.5
	c0.2,0.4,0.2,0.9,0,1.3c-0.3,0.2-0.7,0.4-1,0.4"/>
<path class="st0" d="M22.2,343.9c-0.3,0.1-0.6,0.1-0.9,0c-0.5-0.4-0.7-1.1-0.3-1.7c0.1-0.5,0.4-0.9,0.9-1.1h0.4
	c0.3-0.1,0.6,0,0.8,0.3c0.2,0.5,0.2,1.1,0,1.6C23.1,343.5,22.6,343.8,22.2,343.9"/>
<path class="st0" d="M28.4,347.1H28c-0.9-0.8-1.7-1.3-2.3-1.2c-0.3,0-0.6,0.1-0.8,0.4h-0.7c-0.4,0.1-0.9-0.1-1.1-0.5
	c-0.2-0.3-0.2-0.7,0-1c0.5-0.8,1-1.7,1.5-2.6c0.2-0.3,0.5-0.6,0.9-0.6c0.6,0,1.2,0.5,1.2,1.1c0,0,0,0,0,0l0.3,1.1l1.5,1.9
	c0.2,0.3,0.2,0.7,0,1L28.4,347.1z"/>
<path class="st0" d="M33,345.9c0,0,0,0-0.5-0.6c-0.1-0.6-0.1-1.3,0-1.9c0.3-0.6,0.3-1.4,0-2c-0.2-0.4-0.2-0.8,0-1.2
	c0.1-0.3,0.4-0.5,0.7-0.6h0.3c0.8,0.5,1.6,0.9,2.4,1.3c0.6,0.1,1,0.6,0.9,1.1c-0.2,0.5-0.6,0.8-1.2,0.8c-1,0-1.7,0.9-2.1,2.3
	C33.4,345.8,33.2,345.9,33,345.9"/>
<path class="st0" d="M148.9,386.3c-0.4,0.1-0.7-0.1-1-0.3c-0.2-0.3-0.2-0.6,0-0.9c0-0.6,0-1.2-0.8-1.7c-0.5-0.6-0.7-1.4-0.4-2.1
	c0.4-0.7,1.1-1.2,1.9-1.2c0.7-0.1,1.3,0.2,1.7,0.7c0.4,0.7,0.4,1.6,0,2.4c-0.5,0.4-0.7,1.1-0.4,1.7c0.2,0.6,0,1.2-0.6,1.5
	C149.3,386.2,149.2,386.3,148.9,386.3"/>
<path class="st0" d="M170.9,366.8c-0.4,0-0.8-0.3-0.9-0.7c0-0.6-0.5-1-1.5-1.1s-1.5-1.1-1.4-1.9c0.3-1.1,1.2-1.9,2.3-2
	c1,0,1.7,0.6,1.8,2.1c-0.3,0.6-0.1,1.3,0.5,1.6c0.3,0.3,0.5,0.7,0.3,1.1C171.9,366.4,171.4,366.7,170.9,366.8"/>
<path class="st0" d="M182.6,341.2c-0.4,0-0.7-0.2-0.9-0.5c-0.2-0.5-0.7-0.8-1.3-0.7H180c-1.5-0.2-1.5-1.2-1.5-1.7
	c0.1-1.1,0.9-2.1,2-2.3c0.8,0,1.4,0.5,1.8,1.6v0.2c0,0.5,0,1,0.8,1.1c0.5,0.2,0.8,0.7,0.7,1.2c-0.1,0.5-0.6,1-1.1,1.1"/>
<path class="st0" d="M154.2,394.7c-0.8,0-1.6-0.5-2-1.3c0.1-0.6-0.4-1.2-1-1.3c-0.5-0.1-0.8-0.6-0.8-1.1c0.1-0.6,0.6-1.1,1.2-1.2
	c0.3,0,0.6,0.1,0.8,0.4c0.2,0.4,0.7,0.6,1.1,0.5l0.7,0c1.3,0,2,0.5,2,1.5c0,1.3-0.9,2.3-2.1,2.6"/>
<path class="st0" d="M179.1,371.4c-0.5,0-1.1-0.1-1.6-0.4c-0.3-0.4-0.7-0.6-1.2-0.6H176h-0.3c-0.3,0-0.6-0.1-0.8-0.3
	c-0.2-0.2-0.3-0.4-0.3-0.6c-0.1-0.6,0.4-1.2,1-1.3c0,0,0.1,0,0.1,0h0.4c0.2,0,0.4,0,0.5,0c0.5-0.1,0.9-0.4,1.2-0.7
	c0.3-0.2,0.7-0.3,1.1-0.4c0.5-0.1,1,0.2,1.3,0.7c0.4,0.8,0.4,1.7,0,2.5c-0.2,0.5-0.7,0.9-1.3,0.9"/>
<path class="st0" d="M191.6,343.1c-0.4,0.1-0.7,0.1-1.1,0c-0.6-0.4-1.3-0.4-1.8,0h-0.4c-0.6,0.1-1.1-0.3-1.2-0.9c0,0,0-0.1,0-0.1
	c-0.1-0.3-0.1-0.6,0-0.8c0.2-0.2,0.5-0.4,0.8-0.4h0.7c0.5-0.1,1-0.5,1.2-1c0.4-0.4,0.9-0.7,1.4-0.8c0.5,0,1.1,0.2,1.3,0.7
	c0.6,0.6,0.8,1.5,0.6,2.4c-0.2,0.5-0.7,0.8-1.3,0.8"/>
<path class="st0" d="M128.9,401.3c-0.6,0.1-1.3,0.1-1.9,0c-2-0.7-3.9-1.6-5.7-2.8c-2.4-1.3-5-2.1-7.8-2.3c-0.5-0.1-0.8-0.5-0.7-1
	c0,0,0-0.1,0-0.1c0-0.5,0.3-0.9,0.8-1c3.1,0.5,6.1,1.4,9,2.7c0.5,0.2,1.1,0.3,1.7,0.3c0.7-0.1,1.5-0.3,2.1-0.7l1.2-0.5
	c5.1-2.6,10.5-4.4,16.2-5.2h1.8c0.5,0,0.8,0,0.8,0s0,0.4-1.5,0.5h-0.5c-1.1,0.1-2.2,0.5-3.2,1l-4.2,2.1c-2,1.2-4.2,2.1-6.5,2.6
	c-0.2,0-0.4,0-0.5,0c-1.9,0.3-3,0.8-3,1.4c0,0.6,0.4,0.6,1.1,0.6h1.5c2.2-0.3,4.4-1,6.4-2.1c3.2-2.3,6.9-4,10.8-4.9h0.4
	c0,0,0.4,0,0.4,0c-0.1,0.3-0.2,0.6-0.4,0.8c-3.3,2.8-7.1,5-11.2,6.3c-1.1,0.3-2,0.8-3,1.1C131.8,400.7,130.4,401.2,128.9,401.3"/>
<path class="st0" d="M133.9,404.6c-3.7,0.3-6-0.4-7.1-2.4c0.9,0.2,1.9,0.2,2.8,0c3.4-0.5,6.7-1.6,9.7-3.3c1.8-1,3.8-1.8,5.9-2.2
	c0.9,0,1.3,0,1.3,0.3s0,0.3-0.3,0.5l-10.2,4.2c-0.6,0-0.9,0.5-0.9,0.8s0.3,0.4,0.7,0.3c2.4-0.7,4.7-1.6,6.8-2.9c1.6-1,3.3-1.7,5.1-2
	h0.7c0.4,0,0.5,0,0.5,0s0,0.3-0.6,0.5c-4.3,2.5-8.8,4.5-13.5,6L133.9,404.6"/>
<path class="st0" d="M125.1,395.9c-1.1,0-2.4-0.3-2.7-1.1l0,0c2.1-0.4,4.1-1.5,5.5-3.2c1.1-0.9,2.2-1.8,3.3-2.6
	c0.5-0.3,1-0.5,1.6-0.6c0.8-0.1,1.6-0.4,2.3-0.7c1.2-0.8,2.5-1.3,3.9-1.5c0.8-0.1,1.5,0.1,2.2,0.4c0.5,0.4,0.6,0.5,0.6,0.6h-1.4
	c-1.6,0.2-3.1,0.8-4.4,1.8l-3.8,1.1c-1,0.3-2.1,0.9-2,1.4s0,0.3,0.6,0h0.4l1.9-0.5c0.7-0.2,1.3-0.5,1.9-0.8c0.8-0.5,1.7-0.9,2.6-1
	c0.9-0.2,1.8-0.4,2.7-0.8l1.5-0.5l0,0c0.3-0.1,0.6,0.2,0.7,0.5c0,0,0,0,0,0.1c0.1,0.4-0.1,0.7-0.5,0.8c0,0,0,0-0.1,0
	c-0.7,0.2-1.5,0.4-2.2,0.5c-1.2,0.3-2.5,0.6-3.7,1c-3.3,1.3-6.6,2.7-9.7,4.4c-0.3,0.3-0.8,0.4-1.2,0.4"/>
<path class="st0" d="M149.3,389.6c-0.4,0-0.8-0.2-1.1-0.5c-0.1-0.3,0-0.7,0.3-0.9c0-0.7,1.1-1.3,2.3-2.1c2.6-1.6,4.9-3.7,6.8-6.2
	c2.2-2.7,4.7-5.1,7.5-7.1c1.3-1.1,2.8-2.2,4.2-3.5c0.5-0.5,0.7-0.6,0.7-0.6c0,0,0,0,0,0.6c-1,2.5-2.8,4.7-5.1,6
	c-3.2,2-5.9,4.6-8.2,7.7c-0.3,0.5-0.4,0.8,0,1l0,0c0,0,0.5,0,1.6-0.9c1.9-2.5,4.1-4.6,6.8-6.3c2.3-1.5,4.2-3.7,5.5-6.2
	c0.2-0.4,0.3-0.5,0.3-0.5c0.1,0.5,0.1,0.9,0,1.4c-0.3,2.7-1.8,5.1-4,6.7c-2.8,3-6.1,5.4-9.7,7.3c-2.7,0.3-5.2,1.6-6.9,3.7
	C150.2,389.3,149.8,389.5,149.3,389.6"/>
<path class="st0" d="M161.4,387.1H159h-2.4c-0.5,0-0.7,0-0.7,0s0-0.4,0.6-0.6c6-2,11.1-5.9,14.6-11.1c0.3-0.2,0.6-0.4,0.9-0.5h0.3
	c0.1,0.2,0.1,0.3,0,0.5c-1.8,3.2-4.5,5.9-7.6,7.9l-0.8,0.6c-0.5,0.4-0.8,0.8-0.7,1.2c0.1,0.1,0.3,0.1,0.4,0h0.5
	c3.9-2.6,7.2-5.9,9.7-9.7c0-0.3,0.3-0.3,0.3-0.3c0,0,0,0,0,0.5c0.3,1.1-0.6,2.6-2.5,4.5c-1.9,2.3-4.1,4.3-6.7,6
	c-1.2,0.3-2.5,0.6-3.7,0.7"/>
<path class="st0" d="M153.2,383.2h-0.3c-0.1-0.2-0.1-0.5,0-0.7c0.4-1.4,0.7-2.8,0.8-4.2c0.4-1.8,1.4-3.3,2.9-4.4
	c2.4-2,4.7-4.3,6.8-6.7h0.2c0,0,0,0,0,0.6s-0.9,2-2.4,3.4c-1.5,1.4-1.9,1.7-3,3l-2.5,2.9c-0.2,0.5-0.3,0.8,0,1l0,0h0.3
	c0.5-0.1,0.9-0.4,1.2-0.8c1.5-2.2,3.2-4.1,5.2-5.9c0.4-0.4,0.6-0.5,0.7-0.5s0,0.2,0,0.9c-0.5,1.4-1.4,2.6-2.6,3.4
	c-1.8,1.5-3.3,3.3-4.5,5.3c-0.7,1.2-1.6,2.2-2.8,2.8"/>
<path class="st0" d="M172.8,369.3c-0.2,0-0.4-0.1-0.5-0.3c-0.2-0.3-0.2-0.7,0-1c2-2.4,3.2-5.4,3.5-8.5l0.7-1.7c1.4-4.3,3.4-8.3,6-12
	c0.5-0.5,0.7-0.5,0.7-0.5s0,0,0,0.8c-0.9,2.8-2.1,5.5-3.4,8.1c-1,1.9-1.8,3.9-2.5,5.9c0,0.5,0,0.8,0,1l0,0h0.2
	c0.3-0.1,0.5-0.2,0.7-0.4c1.8-2.9,3.2-6,4.1-9.3c0.7-2.4,1.6-4.7,2.7-6.9c0.4-0.8,0.6-0.8,0.7-0.8s0,0,0,1.1
	c-0.4,5.3-2.1,10.4-4.9,15c-0.6,0.8-1.3,1.4-2,2c-0.8,0.6-1.5,1.4-2,2.3c-0.8,1.8-2,3.4-3.4,4.9c-0.2,0.2-0.5,0.4-0.8,0.5"/>
<path class="st0" d="M174,362.2c0,0-0.3,0-0.5-0.3c-3.6-5.5,0-11.9,3.7-16.3c0.4-0.4,0.7-0.5,0.8-0.5c0.2,0.1,0.2,0.4,0,0.5
	c0,0,0,0,0,0c-0.9,1.1-1.5,2.5-1.7,3.9c-0.2,1.3-0.8,2.5-1.6,3.6c-0.3,0.4-0.6,0.9-0.8,1.4c-0.5,1.1-0.6,1.8-0.4,2.2h0.2
	c0.2,0,0.5-0.3,0.6-0.5c1-1.9,1.9-3.9,2.6-5.9c0.5-1.7,1.2-3.4,2.1-4.9c0.1-0.2,0.4-0.4,0.6-0.4h0.3c0.1,0.3,0.1,0.6,0,0.8
	c-1,3.1-2.3,6.1-4,8.8c-0.9,1.3-1.4,2.9-1.6,4.5c0,1.5-0.4,2.7-0.8,2.7"/>
<path class="st0" d="M178.8,364.5h-0.3c0,0,0-0.2,0.3-0.8c2.4-2.1,4.3-4.8,5.5-7.7c0.2-2.8,1.6-5.3,3.9-6.8l1-0.4c0,0,0,0.3-0.6,1.1
	c-1.2,1.6-2,3.3-2.6,5.1c-0.6,1.7-1.4,3.4-2.5,4.9c-0.4,0.5-0.5,0.9-0.4,1.1h0.3c0.2,0,0.4,0,0.6,0c1.2-1.4,2-3.1,2.5-4.9
	c0.7-2.4,1.9-4.7,3.4-6.8c0.4-0.3,0.6-0.4,0.7-0.4c0.1,0,0,0-0.2,1c-0.6,1.3-1.1,2.7-1.5,4.1c-0.7,2.8-1.8,5.4-3.4,7.9
	c-0.7,0.6-1.4,1.1-2.3,1.5l-1.5,0.5l-1.6,0.6c-0.4,0.2-0.8,0.4-1.3,0.4"/>
<path class="st0" d="M184.1,335.8c-0.3,0-0.6-0.1-0.8-0.3c-3.3-2.6-4.1-6.8-2.6-13.5c0-0.3,0-0.5,0-0.7h0.2c0.8,0.8,1.1,2.1,0.6,3.2
	c-0.6,2.4-0.5,4.9,0.4,7.1c0,0.4,0.5,0.6,0.7,0.5l0,0l0,0c0.1-0.2,0.1-0.4,0-0.6c-0.7-1.7-0.8-3.6-0.4-5.4c0.1-0.5,0.1-1.1,0-1.7
	c-0.1-0.2-0.1-0.4,0-0.5l0,0h0.5c0.4,0.5,0.9,1.4,0.5,4.2c-0.3,1.4-0.3,2.8,0,4.2c0.4,0.9,0.5,1.9,0.2,2.9c0,0.3-0.2,0.4-0.4,0.4"/>
<path class="st0" d="M184.9,342.8c-0.2,0-0.4-0.1-0.6-0.2c-0.1-0.2-0.1-0.5,0-0.8c0.1-1.5,0.3-2.9,0.6-4.3c0.4-1.6,0.5-3.3,0.4-4.9
	c-0.7-4.1,0-8.2,2-11.8c0.2-0.2,0.4-0.3,0.6-0.4c0,0,0.3,0,0.4,0.7c0.3,1.7-0.1,3.4-1,4.9c-0.7,2.2-0.9,4.4-0.7,6.7
	c-0.1,0.2-0.1,0.5,0,0.7c0.2,0.1,0.3,0.1,0.5,0c0.3,0,0.7-0.3,0.7-1.1c-0.3-2.3-0.1-4.6,0.7-6.7c0.7-1.4,0.9-3.1,0.5-4.6
	c0-0.4,0-0.5,0-0.5s0,0,0.4,0.3c0.4,0.3,1,1,1.1,3.4c0.1,2.7-0.3,5.4-1.1,7.9c-0.6,1.1-1.2,2.2-1.9,3.3c-0.8,1.1-1.4,2.2-1.9,3.5
	c-0.5,1-0.6,2.1-0.4,3.1c0.1,0.5-0.3,0.9-0.8,1c0,0,0,0,0,0"/>
<path class="st0" d="M187.7,338.9L187.7,338.9c0,0,0-0.3,0-1l3.3-5.4c1-2.8,1.4-5.9,1.1-8.9c-0.1-0.3-0.1-0.5,0-0.8l0,0h0.3
	c0.5,0.3,1.1,0.8,0.7,2.1l-0.8,4.4l-0.5,3c-0.1,0.2-0.1,0.5,0,0.7l0,0h0.3c0.2,0,0.5-0.3,0.5-0.8c0-1.3,0.3-2.7,0.9-3.9
	c0.6-1.9,0.6-4,0-5.9c0-0.1,0-0.3,0-0.4c0,0,0,0,0.5,0.5c1,1.1,1.4,2.6,1,4c-0.3,0.9-0.4,1.9-0.3,2.8c0.1,1.4-0.3,2.8-1.1,3.8
	l-4.9,4.5c-0.4,0.4-1,0.7-1.5,0.8"/>
<path class="st1" d="M253.7,269c-3.5-2.2-7.9-2.3-11.6-0.4c-2.6,3.4-4,7.6-3.9,11.9c0,8.2,4.2,13.1,10.8,13.1c1.6,0,3.1-0.2,4.6-0.7
	c0.1-2.3-0.2-4.6-0.8-6.9c-1.2-0.9-2.6-1.6-4.1-2l0.6-3h16.5l0.6,3l-3.8,1.5c-0.4,2.8-0.6,5.6-0.6,8.4v0.9
	c-4.3,2.7-9.2,4.1-14.2,4.1c-11.8,0-19-6.7-19-17.5c0.5-10.7,9.5-19,20.3-18.6c0,0,0.1,0,0.1,0c4.5,0,8.9,1,12.9,3l0.9,1.5
	c-0.5,2.6-1.6,7.2-1.9,8.9c-1.8,0-3.6-0.1-5.4-0.3C255.3,273.4,254.6,271.1,253.7,269z"/>
<path class="st1" d="M271.1,281.7c-0.2-10.4,8.1-18.9,18.4-19c0.2,0,0.4,0,0.6,0c8.9-0.7,16.6,5.9,17.4,14.8c0.1,0.7,0.1,1.5,0,2.2
	c0.3,10.2-7.8,18.7-18,18.9c-0.2,0-0.5,0-0.7,0c-9,0.8-16.9-5.8-17.7-14.8C271.1,283.1,271.1,282.4,271.1,281.7z M296,291.6
	c1.5-3.1,2.2-6.6,2.1-10c0-8.5-2.6-13.7-9.1-13.7c-1.9,0-3.9,0.5-5.5,1.6c-2.1,3.4-3.2,7.3-3.1,11.2c0,8.2,3.6,13.1,9.7,13.1
	C292.3,293.7,294.4,293,296,291.6z"/>
<path class="st1" d="M315.1,293.3c0.3-2.8,0.5-5.6,0.4-8.4v-8.6c0.1-2.6-0.1-5.2-0.7-7.8c-1.2-1-2.5-1.7-4-2.1l0.7-3h7.9
	c1.8,0,7.2-0.3,9.7-0.3c8.5,0,13.7,3,13.7,8.8c-0.2,3.5-2.5,6.6-5.8,7.9c4.2,0.6,7.3,4.1,7.4,8.3c0,6.8-6.5,10.1-13.6,10.1
	c-3.2,0-7.8-0.4-11-0.4h-8.3l-0.7-3L315.1,293.3z M324.2,278.3l6.8,0.3c3-2.5,3.6-6.8,1.6-10.1c-1.3-0.8-2.8-1.2-4.3-1.1
	c-1.1,0-2.2,0.1-3.3,0.4h-0.4c-0.3,2.8-0.5,5.7-0.4,8.5V278.3z M325.1,292.9c1.5,0.8,3.2,1.2,4.9,1c1.2,0,2.4-0.2,3.5-0.6
	c1.4-1.4,2.2-3.2,2.1-5.2c0-3-1.8-4.9-5.5-4.9h-5.8v1.7c-0.1,2.6,0.1,5.2,0.7,7.8L325.1,292.9z"/>
<path class="st1" d="M353.3,293.3c0.3-2.8,0.4-5.6,0.4-8.4v-8.6c0.2-2.6-0.1-5.2-0.7-7.8c-1.1-1-2.5-1.8-4-2.1l0.6-3h16.8l0.7,3
	l-4.3,1.5c-0.3,2.8-0.5,5.6-0.4,8.4v8.6c-0.1,2.6,0.1,5.2,0.7,7.8c1.2,1,2.5,1.7,4,2.1l-0.7,3h-16.9l-0.6-3L353.3,293.3z"/>
<path class="st1" d="M377.6,293.3c0.3-2.8,0.5-5.6,0.4-8.4v-8.6c0.1-2.6-0.1-5.2-0.7-7.8c-1.2-1-2.5-1.7-4-2.1l0.7-3h13.7
	c6.2,0,11.2,0,15.2-0.4c0.6,0.7,1.1,1.5,1.6,2.3c-0.4,2.4-1.3,6.8-1.7,8.5c-1.7,0.1-3.4,0-5.1-0.2l-1.3-5.7
	c-1.7-0.3-3.5-0.4-5.2-0.4H387c0,1.6-0.4,4.9-0.4,8.8v2.8l10.4-0.9l1,1.3c0,1.3-0.5,2.8-0.7,4.1l-10.7-0.4v1.7
	c-0.2,2.6,0.1,5.2,0.7,7.8l0.3,0.3c1.4,0.6,3,0.8,4.5,0.6c1.6,0,3.3-0.1,4.9-0.4l1.7-6c1.9-0.1,3.7,0,5.6,0.2c0,3.3,0,6.7,0,10.2
	H374l-0.7-3L377.6,293.3z"/>
<path class="st1" d="M415.1,293.3c0.3-2.8,0.5-5.6,0.4-8.4v-8.6c0.1-2.6-0.1-5.2-0.7-7.8c-1.1-1-2.5-1.7-4-2.1l0.6-3h8.3
	c1.8,0,7.2-0.3,9.7-0.3c8.3,0,13.4,2.9,13.4,9c-0.3,4.1-2.9,7.6-6.7,9.1c2.1,4.1,4.4,8,6.9,11.8l3.3,1.7l-0.6,3c-3.3,0-6.3,0-10.2,0
	c-1.7-3.9-3.9-8.6-6.6-13.9H424v0.9c-0.2,2.6,0.1,5.2,0.7,7.8c1.1,1,2.5,1.7,4,2.1l-0.6,3h-16.5l-0.6-3L415.1,293.3z M424.1,279.1
	l6.9,0.3c1.8-1.6,2.9-4,2.8-6.4c0.1-1.6-0.3-3.1-1.1-4.5c-1.3-0.8-2.7-1.2-4.2-1.1c-1.3,0-2.7,0.1-3.9,0.5c-0.3,2.8-0.5,5.6-0.4,8.4
	V279.1z"/>
<path class="st1" d="M454.2,268.6c-1.2-0.9-2.6-1.6-4-2.1l0.6-3c3.5,0,7.9,0,11.2,0c4.8,7.6,10.2,14.9,16,21.7
	c0.2-5.5-0.2-11-1.1-16.4c-1.5-1-3.1-1.7-4.9-2.1l0.6-3h15.2l0.6,3l-4.3,1.6c-0.8,9.8-1.1,19.6-0.9,29.4l-6.7,0.6l-4.4-6.4
	c-3.4-4.9-7.9-10.4-11.6-15.1c-0.1,5.4,0.2,10.8,0.9,16.2c1.8,1,3.7,1.7,5.7,2.1l-0.6,3h-15.9l-0.4-3.2l4.3-1.5
	c0.4-4.3,0.5-8.6,0.4-12.9C455.4,276.4,455.1,272.5,454.2,268.6z"/>
<path class="st1" d="M491.5,281.7c-0.1-10.4,8.2-18.9,18.5-19c0.2,0,0.4,0,0.6,0c8.9-0.8,16.7,5.8,17.5,14.7c0.1,0.8,0.1,1.5,0,2.3
	c0.3,10.2-7.8,18.7-18,18.9c-0.3,0-0.6,0-0.9,0c-9,0.8-16.9-5.9-17.7-14.9C491.5,283,491.5,282.3,491.5,281.7z M516.4,291.6
	c1.5-3.1,2.2-6.5,2.1-10c0-8.5-2.6-13.7-9.1-13.7c-2-0.1-4,0.5-5.6,1.6c-2.1,3.4-3.1,7.3-3,11.2c0,8,3.5,12.9,9.4,12.9
	C512.5,293.7,514.7,293,516.4,291.6z"/>
<path class="st1" d="M551,293.3c0.3-2.8,0.4-5.6,0.4-8.4v-8.6c0.2-2.6-0.1-5.2-0.7-7.8c-1.1-1-2.5-1.8-4-2.1l0.6-3h7.7
	c1.8,0,7.3-0.3,9.7-0.3c14.2,0,19,7.9,19,17.2c0.7,9.2-6.2,17.2-15.4,17.9c-0.7,0.1-1.4,0.1-2.1,0c-3.1,0-7.8-0.4-11-0.4h-8.1
	l-0.6-3L551,293.3z M561,293.1c2.5,1.1,5.4,1.2,8,0.2c4.2-2.9,6.4-7.9,5.8-13c0.3-4.1-1.1-8.1-3.9-11.1c-2-1.1-4.2-1.6-6.5-1.5
	c-1.3,0-2.7,0.1-4,0.2c-0.3,2.8-0.5,5.6-0.4,8.4v8.6c-0.1,2.6,0.1,5.2,0.7,7.8C560.8,292.8,560.9,292.9,561,293.1z"/>
<path class="st1" d="M591.8,293.3c0.3-2.8,0.5-5.6,0.4-8.4v-8.6c0.1-2.6-0.1-5.2-0.7-7.8c-1.2-1-2.5-1.7-4-2.1l0.7-3h13.7
	c6.2,0,11.2,0,15.2-0.4c0.6,0.7,1.1,1.5,1.6,2.3c-0.4,2.4-1.3,6.8-1.7,8.5c-1.7,0.1-3.4,0-5.1-0.2l-1.1-5.7
	c-1.7-0.3-3.5-0.4-5.2-0.4H601c0,1.6-0.4,4.9-0.4,8.8v2.8l10.4-0.6l1,1.3c0,1.3-0.5,2.8-0.7,4.1l-10.7-0.4v1.7
	c-0.2,2.6,0.1,5.2,0.8,7.8l0.3,0.3c1.4,0.6,3,0.9,4.5,0.8c1.6,0,3.3-0.1,4.9-0.4l1.7-6c1.9-0.1,3.7,0,5.6,0.2c0,3.3,0,6.7,0,10.2
	H588l-0.7-3L591.8,293.3z"/>
<path class="st1" d="M254.1,381.1h-24.3l-1-4.9l7.3-2.4c0.6-4.5,1.3-14.3,1.7-23c0.7-5.8,0.7-11.6,0-17.3c-1.9-1.6-4.1-2.8-6.5-3.5
	l1.1-4.9h26.8c2.3,7.9,7.9,23.6,12.2,33.7c4.2-11.4,10.2-26.2,12.2-33.7h25.2l1,4.9l-7.3,3.2l1.5,26.3c-0.2,4.5,0.5,9,1.9,13.3
	c1.9,1.6,4.1,2.8,6.5,3.4l-1,4.9H284l-1-4.9l7.7-2.4c0-4.9-1.1-23.6-1.3-37.2l-15,38.3c-3.7,0.3-7.5,0.3-11.3,0
	c-3.4-8-10.5-26.9-15.8-38.3l-0.5,17.1c-0.7,6.3-0.7,12.6,0,18.8c0.7,1.9,4.9,2.7,8.3,3.7L254.1,381.1z"/>
<path class="st1" d="M330.5,373.8c0.6-4.5,0.8-9.1,0.7-13.6v-14c0.2-4.3-0.2-8.5-1.2-12.7c-1.9-1.6-4.1-2.8-6.5-3.4l1.1-4.9H347
	c10.2,0,18.3,0,25-0.7c0.8,1.1,1.9,2.8,2.5,3.8c-0.6,3.9-2.2,11-2.8,13.8c-2.8,0.1-5.6-0.1-8.4-0.4l-2.1-9.2
	c-2.8-0.5-5.7-0.7-8.5-0.7c-2.5,0-4.9,0-6.8,0c0,2.5-0.6,8.1-0.6,14.3v4.1l16.9-1l1.6,2.1c-0.3,2.1-0.7,4.6-1.2,6.7l-17.4-0.6v2.8
	c-0.2,4.3,0.2,8.5,1.2,12.7c0.2,0.2,0.3,0.4,0.5,0.5c2.3,1,4.9,1.5,7.4,1.3c2.6,0,5.2-0.2,7.8-0.7l2.8-9.7c3.1-0.1,6.1,0,9.1,0.4
	c0,5.3,0,10.9,0,16.5h-49.5l-1.1-4.9L330.5,373.8z M360,301.8c2.3,2.9,4.1,6.2,5.4,9.7l-1.4,2.9l-22.9,5.8l-1.4-0.7l-1.4-4.3
	C344.6,310.8,352.8,305.8,360,301.8z"/>
<path class="st1" d="M390.7,373.5c6.1-6.5,11.5-13.6,16.3-21.1c-4.8-6.7-9.9-13.2-15.3-19.4c-2.2-1.2-4.4-2.2-6.7-3l1.1-4.9
	c6.3,0,14.1,0,19.4-0.3c4.1,7.5,8.6,14.7,13.5,21.6c2.6-4.9,5.1-9.2,7.2-13.1c-2.5-1.3-5.2-2.4-7.9-3.3l1.1-4.9h25.2l1.1,4.9
	c-1.7,0.8-4.2,2-5.9,2.9c-6.1,6.1-11.4,12.9-16,20.2c6.3,8.7,12.5,16.6,15.7,20.1c2.1,1.1,4.3,2.1,6.5,3l-1.1,4.9
	c-6.2,0-13.9,0-19,0.4c-4.2-7.7-8.9-15.2-14.1-22.3c-2.7,4.9-5.5,9.7-7.6,13.9c2.4,1,5.9,2.1,9.1,3.1l-1,4.9h-26.7l-1-4.9
	C386.3,375.6,388.9,374.5,390.7,373.5z"/>
<path class="st1" d="M463.6,373.8c0.6-4.5,0.8-9.1,0.7-13.6v-14c0.2-4.3-0.2-8.5-1.2-12.7c-1.9-1.6-4.1-2.8-6.5-3.4l1.1-4.9h27.3
	l1.1,4.9l-7,2.5c-0.6,4.5-0.8,9.1-0.7,13.6v14c-0.2,4.3,0.2,8.5,1.3,12.6c1.9,1.6,4.1,2.8,6.5,3.4l-1.1,4.9h-27.4l-1.1-4.9
	L463.6,373.8z"/>
<path class="st1" d="M536.2,371.9c1.2-3.2,2.3-6.4,3.2-9.7c3.2,0,6.5,0.1,9.7,0.4c0,3.4,0.3,8.9,0.3,12l-1.3,2.5
	c-6.5,3.8-13.8,5.7-21.3,5.6c-18.6,0-30.1-10.8-30.1-28.4c0.2-17,14.1-30.6,31.1-30.4c0.3,0,0.6,0,0.8,0c7.2,0,14.2,1.6,20.6,4.9
	l1.4,2.4c-0.8,4.3-2.2,10.4-3.2,14.6c-2.9,0-5.8-0.1-8.7-0.4c-0.5-3.5-1.4-7-2.8-10.3c-5.5-3.1-12.2-3.3-17.9-0.6
	c-4,5.5-6.1,12.1-5.9,18.9c0,12.2,6.2,20.3,16.5,20.3C531.3,373.7,533.9,373.1,536.2,371.9z"/>
<path class="st1" d="M561.3,354.8c-0.2-16.9,13.3-30.8,30.2-31.1c0.3,0,0.7,0,1,0c16.8,0,28.3,10.5,28.3,27.7
	c0.6,16.6-12.4,30.5-29,31.1c-0.5,0-1,0-1.4,0C573.1,382.6,561.3,372.1,561.3,354.8z M601.9,371c2.4-5.1,3.6-10.7,3.4-16.3
	c0-13.9-4.2-22.3-14.8-22.3c-3.2-0.1-6.3,0.8-8.9,2.5c-3.4,5.5-5.1,11.8-4.9,18.3c0,13,5.7,21,15.4,21
	C595.7,374.4,599.2,373.2,601.9,371z"/>
</svg>
