<svg xmlns="http://www.w3.org/2000/svg" viewBox="0 0 336.5 89.5"><defs><style>.cls-1{fill:#a21d3f;}.cls-2{fill:#bd964f;}</style></defs><title>usicamm</title><g id="Capa_2" data-name="Capa 2"><g id="Capa_1-2" data-name="Capa 1"><path class="cls-1" d="M16.4,6.7a100.3,100.3,0,0,0-.5,10.4v7.2c0,8.4,2.3,13.7,9.9,13.7a11.7,11.7,0,0,0,7.5-2.4c1.5-4.7,1.3-11.4,1.3-16.5s-.1-10.9-.5-12-3.7-1.6-5.8-2.3L29,1.1H46.7l.7,3.7L42,6.7c-.3,4.1-.4,9.4-.4,19.1,0,12.7-6.9,19.2-18,19.2s-18-7.2-18-21.2V17.1c0-3.3-.1-8.8-.7-9.7S1.8,5.5,0,4.8L.8,1.1H20.7l.8,3.7Z"/><path class="cls-1" d="M52.5,13.4C52.5,5.5,60.5,0,69.7,0A25,25,0,0,1,82.6,3.5l1,1.9c-.5,2.7-1.6,7.7-2,9.2-1.4,0-4.9-.2-6.4-.4a41.8,41.8,0,0,0-1.4-7.1,8,8,0,0,0-5.3-1.6,10.8,10.8,0,0,0-4.4.9,8.4,8.4,0,0,0-1,4.2c0,10.3,21,7,21,22C84.1,40,77.4,45,67.8,45c-6.9,0-12-1.5-15.3-3.8-.1-3.4,0-6.7.2-9.9a31.1,31.1,0,0,1,6.8-.4A42.5,42.5,0,0,0,61.4,38c1.3,1,3.5,1.4,6.2,1.4a11.2,11.2,0,0,0,4.6-.8,7.3,7.3,0,0,0,1.3-4.5C73.5,26,52.5,28.4,52.5,13.4Z"/><path class="cls-1" d="M96.2,38.3a78.5,78.5,0,0,0,.5-10.5V17.1c0-3.3-.1-8.6-.8-9.7s-3-2-4.7-2.6l.7-3.7h19.8l.7,3.7-5,1.9a77.8,77.8,0,0,0-.5,10.4V27.8c0,3.3.1,8.7.8,9.7s3,2,4.7,2.6l-.7,3.8H91.9l-.7-3.8Z"/><path class="cls-1" d="M145.7,36.8c.5-1.2,1.3-4.1,2.2-7.5a53.1,53.1,0,0,1,6.9.3c.1,2.6.2,6.8.2,9.1l-.9,2A28.5,28.5,0,0,1,138.7,45C125.3,45,117,36.7,117,23.2A22.8,22.8,0,0,1,140,0a32.5,32.5,0,0,1,14.9,3.7l1,1.9c-.5,3.3-1.5,8-2.2,11.1-1.4,0-4.8-.1-6.4-.3a34.7,34.7,0,0,0-1.9-7.9,12.1,12.1,0,0,0-6.9-1.9A12.5,12.5,0,0,0,132.4,8c-2.5,3.3-4.3,8.6-4.3,14.5,0,9.3,4.5,15.5,12,15.5A11.4,11.4,0,0,0,145.7,36.8Z"/><path class="cls-1" d="M179,43.9H160.8l-.8-3.8,4.8-2.4c3.4-7.4,7.8-19,11.9-30.2l1.9-5.9A57.8,57.8,0,0,1,189.3.5c.5,2,1.2,4.5,2.1,7,4.3,11.4,9,24.8,11.4,30.5l5.4,2.1-.7,3.8h-20l-.7-3.8,5-1.8-2.4-7.5-14.4.3c-.6,2.3-1.3,4.6-1.9,6.6l6.6,2.4Zm8.6-18.5c-1.7-5-3.5-10.5-5.5-15.8-1.8,4.8-3.6,10.3-5.3,15.6Z"/><path class="cls-1" d="M230.1,43.9H212.5l-.7-3.8,5.3-1.8c.4-3.4.9-11,1.2-17.5.4-8.4.4-11.9,0-13.3s-3-2-4.7-2.7l.8-3.7h19.3c1.7,6,5.7,18,8.8,25.7,3.1-8.7,7.4-20.1,8.8-25.7h18.2l.7,3.8L265,7.3l1,20.1c.3,5.9.7,9,1.4,10.1s2.9,2,4.7,2.6l-.7,3.8H251.6l-.7-3.8,5.5-1.8c.2-3.6-.8-18.1-.9-28.5L244.6,39.1a54.7,54.7,0,0,1-8.1,0C234,33,228.9,18.6,225.1,9.8l-.3,13.1c-.3,9.6-.4,13.2.1,14.4s3.5,2,5.9,2.8Z"/><path class="cls-1" d="M294.5,43.9H276.9l-.7-3.8,5.3-1.8c.4-3.4.9-11,1.2-17.5.4-8.4.4-11.9,0-13.3s-3-2-4.7-2.7l.8-3.7h19.3c1.7,6,5.7,18,8.8,25.7,3.1-8.7,7.4-20.1,8.8-25.7h18.2l.8,3.8-5.3,2.4,1.1,20.1c.3,5.9.6,9,1.3,10.1s3,2,4.7,2.6l-.7,3.8H316l-.7-3.8,5.5-1.8c.2-3.6-.8-18.1-.9-28.5L309.1,39.1a56.1,56.1,0,0,1-8.2,0c-2.5-6.1-7.6-20.5-11.4-29.3l-.3,13.1c-.3,9.6-.4,13.2.1,14.4s3.5,2,5.9,2.8Z"/><path class="cls-2" d="M4.7,69.2V64H6.4v5.1c0,1.9.9,2.7,2.3,2.7s2.4-.8,2.4-2.7V64h1.6v5.2c0,2.7-1.5,4.1-4,4.1S4.7,71.9,4.7,69.2Z"/><path class="cls-2" d="M23.2,64v9.2H21.8l-5-6.2v6.2H15.1V64h1.4l5,6.2V64Z"/><path class="cls-2" d="M25.7,64h1.7v9.2H25.7Z"/><path class="cls-2" d="M29.9,64h3.9c3,0,5,1.9,5,4.6s-2,4.6-5,4.6H29.9Zm3.9,7.7a3.1,3.1,0,1,0,0-6.2H31.5v6.2Z"/><path class="cls-2" d="M46.4,71.1H41.9L41,73.2H39.2L43.3,64H45l4.1,9.2H47.4Zm-.5-1.4-1.7-4-1.8,4Z"/><path class="cls-2" d="M50.3,64h4c3,0,5,1.9,5,4.6s-2,4.6-5,4.6h-4Zm3.9,7.7a3.1,3.1,0,1,0,0-6.2H52v6.2Z"/><path class="cls-2" d="M64.7,64h4c2.9,0,5,1.9,5,4.6s-2.1,4.6-5,4.6h-4Zm3.9,7.7a3.1,3.1,0,1,0,0-6.2H66.4v6.2Z"/><path class="cls-2" d="M82.3,71.8v1.4H75.5V64h6.6v1.5H77.2v2.3h4.4v1.4H77.2v2.6Z"/><path class="cls-2" d="M84.2,64h1.7v7.7h4.8v1.5H84.2Z"/><path class="cls-2" d="M94.9,72.2l.6-1.3a4.9,4.9,0,0,0,3,1c1.4,0,2-.5,2-1.2s-5.4-.7-5.4-4.1c0-1.4,1.1-2.7,3.7-2.7a5.8,5.8,0,0,1,3,.8l-.5,1.3a5.4,5.4,0,0,0-2.6-.7c-1.4,0-1.9.6-1.9,1.3s5.4.6,5.4,4c0,1.5-1.2,2.7-3.7,2.7A5.5,5.5,0,0,1,94.9,72.2Z"/><path class="cls-2" d="M103.9,64h1.7v9.2h-1.7Z"/><path class="cls-2" d="M107.3,72.2l.5-1.3a5.2,5.2,0,0,0,3.1,1c1.4,0,2-.5,2-1.2s-5.4-.7-5.4-4.1c0-1.4,1.1-2.7,3.6-2.7a6.2,6.2,0,0,1,3.1.8l-.6,1.3a4.7,4.7,0,0,0-2.5-.7c-1.4,0-2,.6-2,1.3s5.5.6,5.5,4c0,1.5-1.2,2.7-3.7,2.7A5.3,5.3,0,0,1,107.3,72.2Z"/><path class="cls-2" d="M118,65.5h-3.1V64h7.8v1.5h-3v7.7H118Z"/><path class="cls-2" d="M130.8,71.8v1.4H124V64h6.6v1.5h-4.9v2.3h4.4v1.4h-4.4v2.6Z"/><path class="cls-2" d="M141.1,73.2V67.1l-3,5h-.8l-3-4.9v6h-1.6V64h1.4l3.7,6.1,3.5-6.1h1.4v9.2Z"/><path class="cls-2" d="M151.1,71.1h-4.5l-.9,2.1h-1.8L148,64h1.7l4.1,9.2H152Zm-.5-1.4-1.8-4-1.7,4Z"/><path class="cls-2" d="M166.2,67.3c0,2-1.5,3.2-3.9,3.2h-2v2.7h-1.7V64h3.7C164.7,64,166.2,65.3,166.2,67.3Zm-1.7,0c0-1.2-.7-1.8-2.2-1.8h-2v3.6h2C163.8,69.1,164.5,68.4,164.5,67.3Z"/><path class="cls-2" d="M173.4,71.1h-4.6l-.9,2.1h-1.7l4.1-9.2H172l4.1,9.2h-1.8Zm-.6-1.4-1.7-4-1.7,4Z"/><path class="cls-2" d="M183.2,73.2l-1.8-2.7H179v2.7h-1.7V64H181c2.4,0,3.9,1.3,3.9,3.3a3,3,0,0,1-1.9,2.9l2.1,3Zm-2.3-7.7H179v3.6h1.9c1.5,0,2.3-.7,2.3-1.8S182.4,65.5,180.9,65.5Z"/><path class="cls-2" d="M192.7,71.1h-4.5l-.9,2.1h-1.8l4.1-9.2h1.7l4.1,9.2h-1.8Zm-.5-1.4-1.8-4-1.7,4Z"/><path class="cls-2" d="M200.2,64h1.7v7.7h4.8v1.5h-6.5Z"/><path class="cls-2" d="M214,71.1h-4.6l-.9,2.1h-1.7l4.1-9.2h1.7l4.1,9.2h-1.8Zm-.6-1.4-1.7-4-1.7,4Z"/><path class="cls-2" d="M220.8,68.6a4.7,4.7,0,0,1,4.9-4.7,4.5,4.5,0,0,1,3.6,1.5l-1.1,1.1a2.9,2.9,0,0,0-2.4-1.1,3.2,3.2,0,1,0,0,6.4,2.9,2.9,0,0,0,2.4-1.1l1.1,1.1a4.5,4.5,0,0,1-3.6,1.5A4.7,4.7,0,0,1,220.8,68.6Z"/><path class="cls-2" d="M236.7,71.1h-4.6l-.9,2.1h-1.7l4.1-9.2h1.7l4.1,9.2h-1.8Zm-.6-1.4-1.7-4-1.7,4Z"/><path class="cls-2" d="M246.5,73.2l-1.8-2.7h-2.5v2.7h-1.7V64h3.8c2.4,0,3.9,1.3,3.9,3.3a3,3,0,0,1-1.9,2.9l2.1,3Zm-2.3-7.7h-2v3.6h2c1.5,0,2.3-.7,2.3-1.8S245.7,65.5,244.2,65.5Z"/><path class="cls-2" d="M256.1,73.2l-1.9-2.7h-2.4v2.7h-1.7V64h3.8c2.4,0,3.8,1.3,3.8,3.3a3,3,0,0,1-1.9,2.9l2.1,3Zm-2.3-7.7h-2v3.6h2c1.5,0,2.2-.7,2.2-1.8S255.3,65.5,253.8,65.5Z"/><path class="cls-2" d="M266.5,71.8v1.4h-6.9V64h6.7v1.5h-5v2.3h4.5v1.4h-4.5v2.6Z"/><path class="cls-2" d="M274.4,73.2l-1.9-2.7h-2.4v2.7h-1.7V64h3.8c2.4,0,3.8,1.3,3.8,3.3a3,3,0,0,1-1.9,2.9l2.1,3Zm-2.3-7.7h-2v3.6h2c1.5,0,2.2-.7,2.2-1.8S273.6,65.5,272.1,65.5Z"/><path class="cls-2" d="M283.9,71.1h-4.6l-.9,2.1h-1.8l4.2-9.2h1.6l4.2,9.2h-1.8Zm-.6-1.4-1.7-4-1.7,4Z"/><path class="cls-2" d="M4.8,80.2h4c3,0,5,1.8,5,4.6s-2,4.6-5,4.6h-4Zm3.9,7.7c2.1,0,3.4-1.2,3.4-3.1s-1.3-3.1-3.4-3.1H6.5v6.2Z"/><path class="cls-2" d="M22.4,87.9v1.5H15.6V80.2h6.7v1.4h-5V84h4.4v1.4H17.3v2.5Z"/><path class="cls-2" d="M27.9,80.2h1.7v7.7h4.8v1.5H27.9Z"/><path class="cls-2" d="M41.8,87.2H37.2l-.9,2.2H34.5l4.2-9.2h1.6l4.2,9.2H42.7Zm-.6-1.3-1.7-4-1.7,4Z"/><path class="cls-2" d="M44.8,88.4l.6-1.3a5.1,5.1,0,0,0,3,1c1.5,0,2.1-.5,2.1-1.2S45,86.2,45,82.8c0-1.5,1.2-2.7,3.7-2.7a6.2,6.2,0,0,1,3.1.8l-.6,1.3a4.7,4.7,0,0,0-2.5-.7c-1.4,0-2,.5-2,1.2s5.4.7,5.4,4.1c0,1.4-1.1,2.7-3.7,2.7A6.4,6.4,0,0,1,44.8,88.4Z"/><path class="cls-2" d="M65.8,89.4V83.3l-3,5h-.7l-3-4.9v6H57.4V80.2h1.4l3.7,6.1L66,80.2h1.4v9.2Z"/><path class="cls-2" d="M75.8,87.2H71.3l-.9,2.2H68.6l4.1-9.2h1.7l4.1,9.2H76.7Zm-.5-1.3-1.8-4-1.7,4Z"/><path class="cls-2" d="M86.5,87.9v1.5H79.7V80.2h6.7v1.4h-5V84h4.4v1.4H81.4v2.5Z"/><path class="cls-2" d="M87.7,88.4l.6-1.3a4.7,4.7,0,0,0,3,1c1.4,0,2-.5,2-1.2s-5.4-.7-5.4-4.1c0-1.5,1.1-2.7,3.6-2.7a6.2,6.2,0,0,1,3.1.8l-.5,1.3a5.4,5.4,0,0,0-2.6-.7c-1.4,0-2,.5-2,1.2s5.5.7,5.5,4.1c0,1.4-1.2,2.7-3.7,2.7A5.9,5.9,0,0,1,87.7,88.4Z"/><path class="cls-2" d="M98.4,81.7H95.3V80.2h7.8v1.5h-3v7.7H98.4Z"/><path class="cls-2" d="M110.4,89.4l-1.9-2.7h-2.4v2.7h-1.7V80.2h3.7c2.4,0,3.9,1.2,3.9,3.3a3,3,0,0,1-1.9,2.9l2.1,3Zm-2.3-7.7h-2v3.6h2c1.5,0,2.2-.7,2.2-1.8S109.6,81.7,108.1,81.7Z"/><path class="cls-2" d="M119.9,87.2h-4.6l-.9,2.2h-1.8l4.2-9.2h1.6l4.1,9.2h-1.7Zm-.6-1.3-1.7-4-1.7,4Z"/><path class="cls-2" d="M122.9,88.4l.6-1.3a5.1,5.1,0,0,0,3,1c1.5,0,2.1-.5,2.1-1.2s-5.5-.7-5.5-4.1c0-1.5,1.2-2.7,3.7-2.7a6.2,6.2,0,0,1,3.1.8l-.6,1.3a4.7,4.7,0,0,0-2.5-.7c-1.4,0-2,.5-2,1.2s5.4.7,5.4,4.1c0,1.4-1.1,2.7-3.7,2.7A6.4,6.4,0,0,1,122.9,88.4Z"/><path class="cls-2" d="M139.5,86.1v3.3h-1.7V86.2l-3.6-6H136l2.7,4.5,2.7-4.5h1.7Z"/><path class="cls-2" d="M147.8,80.2h4c2.9,0,5,1.8,5,4.6s-2.1,4.6-5,4.6h-4Zm3.9,7.7a3.1,3.1,0,1,0,0-6.2h-2.2v6.2Z"/><path class="cls-2" d="M165.4,87.9v1.5h-6.8V80.2h6.6v1.4h-4.9V84h4.4v1.4h-4.4v2.5Z"/><path class="cls-2" d="M170.9,80.2h1.7v7.7h4.8v1.5h-6.5Z"/><path class="cls-2" d="M177.9,84.8a5,5,0,1,1,4.9,4.7A4.7,4.7,0,0,1,177.9,84.8Zm8.1,0a3,3,0,0,0-3.2-3.2,3.2,3.2,0,0,0,0,6.4A3,3,0,0,0,186,84.8Z"/><path class="cls-2" d="M188.8,88.4l.6-1.3a4.9,4.9,0,0,0,3,1c1.4,0,2-.5,2-1.2s-5.4-.7-5.4-4.1c0-1.5,1.2-2.7,3.7-2.7a5.8,5.8,0,0,1,3,.8l-.5,1.3a4.7,4.7,0,0,0-2.5-.7c-1.5,0-2,.5-2,1.2s5.4.7,5.4,4.1c0,1.4-1.2,2.7-3.7,2.7A6.2,6.2,0,0,1,188.8,88.4Z"/><path class="cls-2" d="M209.8,89.4V83.3l-3,5H206l-3-4.9v6h-1.6V80.2h1.4l3.6,6.1,3.6-6.1h1.4v9.2Z"/><path class="cls-2" d="M219.8,87.2h-4.6l-.9,2.2h-1.7l4.1-9.2h1.6l4.2,9.2h-1.8Zm-.6-1.3-1.7-4-1.7,4Z"/><path class="cls-2" d="M230.5,87.9v1.5h-6.9V80.2h6.7v1.4h-5V84h4.4v1.4h-4.4v2.5Z"/><path class="cls-2" d="M231.6,88.4l.6-1.3a4.9,4.9,0,0,0,3,1c1.4,0,2-.5,2-1.2s-5.4-.7-5.4-4.1c0-1.5,1.2-2.7,3.7-2.7a5.8,5.8,0,0,1,3,.8l-.5,1.3a4.7,4.7,0,0,0-2.5-.7c-1.4,0-2,.5-2,1.2s5.4.7,5.4,4.1c0,1.4-1.2,2.7-3.7,2.7A6.4,6.4,0,0,1,231.6,88.4Z"/><path class="cls-2" d="M242.3,81.7h-3V80.2H247v1.5h-3v7.7h-1.7Z"/><path class="cls-2" d="M254.3,89.4l-1.9-2.7H250v2.7h-1.7V80.2h3.8c2.4,0,3.9,1.2,3.9,3.3a2.9,2.9,0,0,1-2,2.9l2.1,3ZM252,81.7h-2v3.6h2c1.5,0,2.3-.7,2.3-1.8S253.5,81.7,252,81.7Z"/><path class="cls-2" d="M257.2,84.8a5,5,0,1,1,4.9,4.7A4.7,4.7,0,0,1,257.2,84.8Zm8.2,0a3.3,3.3,0,1,0-3.3,3.2A3.1,3.1,0,0,0,265.4,84.8Z"/><path class="cls-2" d="M268.1,88.4l.6-1.3a4.9,4.9,0,0,0,3,1c1.4,0,2-.5,2-1.2s-5.4-.7-5.4-4.1c0-1.5,1.2-2.7,3.7-2.7a5.8,5.8,0,0,1,3,.8l-.5,1.3a4.7,4.7,0,0,0-2.5-.7c-1.4,0-2,.5-2,1.2s5.4.7,5.4,4.1c0,1.4-1.2,2.7-3.7,2.7A6.4,6.4,0,0,1,268.1,88.4Z"/></g></g></svg>